%TF.GenerationSoftware,KiCad,Pcbnew,(5.1.9)-1*%
%TF.CreationDate,2021-01-24T02:40:07-08:00*%
%TF.ProjectId,rc-ramrom,72632d72-616d-4726-9f6d-2e6b69636164,rev?*%
%TF.SameCoordinates,PX9157080PY9071968*%
%TF.FileFunction,Legend,Top*%
%TF.FilePolarity,Positive*%
%FSLAX46Y46*%
G04 Gerber Fmt 4.6, Leading zero omitted, Abs format (unit mm)*
G04 Created by KiCad (PCBNEW (5.1.9)-1) date 2021-01-24 02:40:07*
%MOMM*%
%LPD*%
G01*
G04 APERTURE LIST*
%ADD10C,0.100000*%
%ADD11C,0.150000*%
%ADD12C,0.300000*%
%ADD13C,0.381000*%
%ADD14C,0.266667*%
%ADD15C,0.200000*%
%ADD16C,0.120000*%
G04 APERTURE END LIST*
D10*
G36*
X31940500Y33223200D02*
G01*
X31432500Y32715200D01*
X31432500Y33096200D01*
X28892500Y33096200D01*
X28892500Y33350200D01*
X31432500Y33350200D01*
X31432500Y33731200D01*
X31940500Y33223200D01*
G37*
X31940500Y33223200D02*
X31432500Y32715200D01*
X31432500Y33096200D01*
X28892500Y33096200D01*
X28892500Y33350200D01*
X31432500Y33350200D01*
X31432500Y33731200D01*
X31940500Y33223200D01*
D11*
X39687500Y29222700D02*
X44132500Y29222700D01*
X39687500Y36842700D02*
X39687500Y29222700D01*
X39052500Y37477700D02*
G75*
G02*
X39687500Y36842700I0J-635000D01*
G01*
D10*
G36*
X32258000Y37160200D02*
G01*
X31877000Y37160200D01*
X31877000Y34620200D01*
X31623000Y34620200D01*
X31623000Y37160200D01*
X31242000Y37160200D01*
X31750000Y37668200D01*
X32258000Y37160200D01*
G37*
X32258000Y37160200D02*
X31877000Y37160200D01*
X31877000Y34620200D01*
X31623000Y34620200D01*
X31623000Y37160200D01*
X31242000Y37160200D01*
X31750000Y37668200D01*
X32258000Y37160200D01*
D12*
X42680714Y47276629D02*
X42680714Y48776629D01*
X43252142Y48776629D01*
X43395000Y48705200D01*
X43466428Y48633772D01*
X43537857Y48490915D01*
X43537857Y48276629D01*
X43466428Y48133772D01*
X43395000Y48062343D01*
X43252142Y47990915D01*
X42680714Y47990915D01*
X44180714Y47276629D02*
X44180714Y48776629D01*
X44537857Y48776629D01*
X44752142Y48705200D01*
X44895000Y48562343D01*
X44966428Y48419486D01*
X45037857Y48133772D01*
X45037857Y47919486D01*
X44966428Y47633772D01*
X44895000Y47490915D01*
X44752142Y47348058D01*
X44537857Y47276629D01*
X44180714Y47276629D01*
X46466428Y47276629D02*
X45609285Y47276629D01*
X46037857Y47276629D02*
X46037857Y48776629D01*
X45895000Y48562343D01*
X45752142Y48419486D01*
X45609285Y48348058D01*
X47395000Y48776629D02*
X47537857Y48776629D01*
X47680714Y48705200D01*
X47752142Y48633772D01*
X47823571Y48490915D01*
X47895000Y48205200D01*
X47895000Y47848058D01*
X47823571Y47562343D01*
X47752142Y47419486D01*
X47680714Y47348058D01*
X47537857Y47276629D01*
X47395000Y47276629D01*
X47252142Y47348058D01*
X47180714Y47419486D01*
X47109285Y47562343D01*
X47037857Y47848058D01*
X47037857Y48205200D01*
X47109285Y48490915D01*
X47180714Y48633772D01*
X47252142Y48705200D01*
X47395000Y48776629D01*
X49180714Y48776629D02*
X48895000Y48776629D01*
X48752142Y48705200D01*
X48680714Y48633772D01*
X48537857Y48419486D01*
X48466428Y48133772D01*
X48466428Y47562343D01*
X48537857Y47419486D01*
X48609285Y47348058D01*
X48752142Y47276629D01*
X49037857Y47276629D01*
X49180714Y47348058D01*
X49252142Y47419486D01*
X49323571Y47562343D01*
X49323571Y47919486D01*
X49252142Y48062343D01*
X49180714Y48133772D01*
X49037857Y48205200D01*
X48752142Y48205200D01*
X48609285Y48133772D01*
X48537857Y48062343D01*
X48466428Y47919486D01*
X50966428Y48276629D02*
X51323571Y47276629D01*
X51680714Y48276629D01*
X53037857Y47276629D02*
X52180714Y47276629D01*
X52609285Y47276629D02*
X52609285Y48776629D01*
X52466428Y48562343D01*
X52323571Y48419486D01*
X52180714Y48348058D01*
X53680714Y47419486D02*
X53752142Y47348058D01*
X53680714Y47276629D01*
X53609285Y47348058D01*
X53680714Y47419486D01*
X53680714Y47276629D01*
X54680714Y48776629D02*
X54823571Y48776629D01*
X54966428Y48705200D01*
X55037857Y48633772D01*
X55109285Y48490915D01*
X55180714Y48205200D01*
X55180714Y47848058D01*
X55109285Y47562343D01*
X55037857Y47419486D01*
X54966428Y47348058D01*
X54823571Y47276629D01*
X54680714Y47276629D01*
X54537857Y47348058D01*
X54466428Y47419486D01*
X54395000Y47562343D01*
X54323571Y47848058D01*
X54323571Y48205200D01*
X54395000Y48490915D01*
X54466428Y48633772D01*
X54537857Y48705200D01*
X54680714Y48776629D01*
D11*
X25273000Y47828200D02*
X25273000Y47320200D01*
X25019000Y47574200D02*
X25527000Y47574200D01*
X21447380Y42422820D02*
X21447380Y43422820D01*
X21828333Y43422820D01*
X21923571Y43375200D01*
X21971190Y43327581D01*
X22018809Y43232343D01*
X22018809Y43089486D01*
X21971190Y42994248D01*
X21923571Y42946629D01*
X21828333Y42899010D01*
X21447380Y42899010D01*
X22875952Y42422820D02*
X22875952Y42946629D01*
X22828333Y43041867D01*
X22733095Y43089486D01*
X22542619Y43089486D01*
X22447380Y43041867D01*
X22875952Y42470439D02*
X22780714Y42422820D01*
X22542619Y42422820D01*
X22447380Y42470439D01*
X22399761Y42565677D01*
X22399761Y42660915D01*
X22447380Y42756153D01*
X22542619Y42803772D01*
X22780714Y42803772D01*
X22875952Y42851391D01*
X23780714Y43089486D02*
X23780714Y42279962D01*
X23733095Y42184724D01*
X23685476Y42137105D01*
X23590238Y42089486D01*
X23447380Y42089486D01*
X23352142Y42137105D01*
X23780714Y42470439D02*
X23685476Y42422820D01*
X23495000Y42422820D01*
X23399761Y42470439D01*
X23352142Y42518058D01*
X23304523Y42613296D01*
X23304523Y42899010D01*
X23352142Y42994248D01*
X23399761Y43041867D01*
X23495000Y43089486D01*
X23685476Y43089486D01*
X23780714Y43041867D01*
X24637857Y42470439D02*
X24542619Y42422820D01*
X24352142Y42422820D01*
X24256904Y42470439D01*
X24209285Y42565677D01*
X24209285Y42946629D01*
X24256904Y43041867D01*
X24352142Y43089486D01*
X24542619Y43089486D01*
X24637857Y43041867D01*
X24685476Y42946629D01*
X24685476Y42851391D01*
X24209285Y42756153D01*
X25542619Y42422820D02*
X25542619Y43422820D01*
X25542619Y42470439D02*
X25447380Y42422820D01*
X25256904Y42422820D01*
X25161666Y42470439D01*
X25114047Y42518058D01*
X25066428Y42613296D01*
X25066428Y42899010D01*
X25114047Y42994248D01*
X25161666Y43041867D01*
X25256904Y43089486D01*
X25447380Y43089486D01*
X25542619Y43041867D01*
X32702500Y36207700D02*
X33972500Y37477700D01*
X44132500Y29222700D02*
G75*
G02*
X44767500Y28587700I0J-635000D01*
G01*
X40322500Y45415200D02*
X41592500Y46685200D01*
X46672500Y46685200D02*
G75*
G02*
X47307500Y46050200I0J-635000D01*
G01*
X38735000Y49542700D02*
G75*
G02*
X39687500Y48590200I0J-952500D01*
G01*
X14724285Y42422820D02*
X14724285Y43422820D01*
X14724285Y42946629D02*
X15295714Y42946629D01*
X15295714Y42422820D02*
X15295714Y43422820D01*
X16343333Y42422820D02*
X16010000Y42899010D01*
X15771904Y42422820D02*
X15771904Y43422820D01*
X16152857Y43422820D01*
X16248095Y43375200D01*
X16295714Y43327581D01*
X16343333Y43232343D01*
X16343333Y43089486D01*
X16295714Y42994248D01*
X16248095Y42946629D01*
X16152857Y42899010D01*
X15771904Y42899010D01*
X16724285Y42708534D02*
X17200476Y42708534D01*
X16629047Y42422820D02*
X16962380Y43422820D01*
X17295714Y42422820D01*
X17629047Y42422820D02*
X17629047Y43422820D01*
X17962380Y42708534D01*
X18295714Y43422820D01*
X18295714Y42422820D01*
X40322500Y29857700D02*
X40322500Y45415200D01*
X47307500Y29857700D02*
X40322500Y29857700D01*
X47307500Y46050200D02*
X47307500Y29857700D01*
X41592500Y46685200D02*
X46672500Y46685200D01*
X41465595Y33357581D02*
X41513214Y33405200D01*
X41608452Y33452820D01*
X41846547Y33452820D01*
X41941785Y33405200D01*
X41989404Y33357581D01*
X42037023Y33262343D01*
X42037023Y33167105D01*
X41989404Y33024248D01*
X41417976Y32452820D01*
X42037023Y32452820D01*
X42608452Y33024248D02*
X42513214Y33071867D01*
X42465595Y33119486D01*
X42417976Y33214724D01*
X42417976Y33262343D01*
X42465595Y33357581D01*
X42513214Y33405200D01*
X42608452Y33452820D01*
X42798928Y33452820D01*
X42894166Y33405200D01*
X42941785Y33357581D01*
X42989404Y33262343D01*
X42989404Y33214724D01*
X42941785Y33119486D01*
X42894166Y33071867D01*
X42798928Y33024248D01*
X42608452Y33024248D01*
X42513214Y32976629D01*
X42465595Y32929010D01*
X42417976Y32833772D01*
X42417976Y32643296D01*
X42465595Y32548058D01*
X42513214Y32500439D01*
X42608452Y32452820D01*
X42798928Y32452820D01*
X42894166Y32500439D01*
X42941785Y32548058D01*
X42989404Y32643296D01*
X42989404Y32833772D01*
X42941785Y32929010D01*
X42894166Y32976629D01*
X42798928Y33024248D01*
X41727500Y30898058D02*
X41679880Y30850439D01*
X41537023Y30802820D01*
X41441785Y30802820D01*
X41298928Y30850439D01*
X41203690Y30945677D01*
X41156071Y31040915D01*
X41108452Y31231391D01*
X41108452Y31374248D01*
X41156071Y31564724D01*
X41203690Y31659962D01*
X41298928Y31755200D01*
X41441785Y31802820D01*
X41537023Y31802820D01*
X41679880Y31755200D01*
X41727500Y31707581D01*
X42060833Y30802820D02*
X42584642Y31469486D01*
X42060833Y31469486D02*
X42584642Y30802820D01*
X42870357Y30802820D02*
X43394166Y31469486D01*
X42870357Y31469486D02*
X43394166Y30802820D01*
X41465595Y37485081D02*
X41513214Y37532700D01*
X41608452Y37580320D01*
X41846547Y37580320D01*
X41941785Y37532700D01*
X41989404Y37485081D01*
X42037023Y37389843D01*
X42037023Y37294605D01*
X41989404Y37151748D01*
X41417976Y36580320D01*
X42037023Y36580320D01*
X42370357Y37580320D02*
X43037023Y37580320D01*
X42608452Y36580320D01*
X41727500Y35025558D02*
X41679880Y34977939D01*
X41537023Y34930320D01*
X41441785Y34930320D01*
X41298928Y34977939D01*
X41203690Y35073177D01*
X41156071Y35168415D01*
X41108452Y35358891D01*
X41108452Y35501748D01*
X41156071Y35692224D01*
X41203690Y35787462D01*
X41298928Y35882700D01*
X41441785Y35930320D01*
X41537023Y35930320D01*
X41679880Y35882700D01*
X41727500Y35835081D01*
X42060833Y34930320D02*
X42584642Y35596986D01*
X42060833Y35596986D02*
X42584642Y34930320D01*
X42870357Y34930320D02*
X43394166Y35596986D01*
X42870357Y35596986D02*
X43394166Y34930320D01*
X46355000Y36207700D02*
X46355000Y34937700D01*
X43815000Y36207700D02*
X43815000Y34937700D01*
X46355000Y36207700D02*
X43815000Y36207700D01*
X43815000Y34937700D02*
X46355000Y34937700D01*
X43815000Y37477700D02*
X43815000Y36207700D01*
D13*
X45717460Y35572700D02*
X45720000Y35572700D01*
D11*
X46355000Y37477700D02*
X43815000Y37477700D01*
D13*
X44451270Y36842700D02*
X44453810Y36842700D01*
X44447460Y35572700D02*
X44450000Y35572700D01*
X45717460Y36842700D02*
X45720000Y36842700D01*
D11*
X46355000Y37477700D02*
X46355000Y36207700D01*
X43815000Y36207700D02*
X46355000Y36207700D01*
X43815000Y33350200D02*
X43815000Y30810200D01*
D13*
X44447460Y31445200D02*
X44450000Y31445200D01*
X45717460Y31445200D02*
X45720000Y31445200D01*
D11*
X46355000Y30810200D02*
X46355000Y33350200D01*
D13*
X44451270Y32715200D02*
X44453810Y32715200D01*
D11*
X45085000Y30810200D02*
X46355000Y30810200D01*
D13*
X45717460Y32715200D02*
X45720000Y32715200D01*
D11*
X45085000Y33350200D02*
X45085000Y30810200D01*
X46355000Y33350200D02*
X45085000Y33350200D01*
X45085000Y33350200D02*
X43815000Y33350200D01*
X45085000Y30810200D02*
X45085000Y33350200D01*
X43815000Y30810200D02*
X45085000Y30810200D01*
X39687500Y48590200D02*
X39687500Y38112700D01*
X28892500Y49542700D02*
X38735000Y49542700D01*
X26670000Y47320200D02*
X28892500Y49542700D01*
X26670000Y38112700D02*
X26670000Y47320200D01*
X39687500Y38112700D02*
X26670000Y38112700D01*
X32702500Y19697700D02*
X32702500Y36207700D01*
X44767500Y19697700D02*
X32702500Y19697700D01*
X44767500Y28587700D02*
X44767500Y19697700D01*
X33972500Y37477700D02*
X39052500Y37477700D01*
D13*
X34290000Y25095200D02*
X34292540Y25095200D01*
D11*
X34925000Y27000200D02*
X34925000Y24460200D01*
D13*
X34287460Y26365200D02*
X34290000Y26365200D01*
D11*
X34925000Y24460200D02*
X36195000Y24460200D01*
X36195000Y27000200D02*
X34925000Y27000200D01*
X33655000Y24460200D02*
X34925000Y24460200D01*
X34925000Y24460200D02*
X34925000Y27000200D01*
D13*
X35557460Y26365200D02*
X35560000Y26365200D01*
X35557460Y27635200D02*
X35560000Y27635200D01*
D11*
X33655000Y27000200D02*
X33655000Y24460200D01*
D13*
X35557460Y25095200D02*
X35560000Y25095200D01*
D11*
X36195000Y24460200D02*
X36195000Y27000200D01*
X34925000Y27000200D02*
X33655000Y27000200D01*
D13*
X34291270Y27635200D02*
X34293810Y27635200D01*
D11*
X34329761Y23309248D02*
X34234523Y23356867D01*
X34186904Y23404486D01*
X34139285Y23499724D01*
X34139285Y23547343D01*
X34186904Y23642581D01*
X34234523Y23690200D01*
X34329761Y23737820D01*
X34520238Y23737820D01*
X34615476Y23690200D01*
X34663095Y23642581D01*
X34710714Y23547343D01*
X34710714Y23499724D01*
X34663095Y23404486D01*
X34615476Y23356867D01*
X34520238Y23309248D01*
X34329761Y23309248D01*
X34234523Y23261629D01*
X34186904Y23214010D01*
X34139285Y23118772D01*
X34139285Y22928296D01*
X34186904Y22833058D01*
X34234523Y22785439D01*
X34329761Y22737820D01*
X34520238Y22737820D01*
X34615476Y22785439D01*
X34663095Y22833058D01*
X34710714Y22928296D01*
X34710714Y23118772D01*
X34663095Y23214010D01*
X34615476Y23261629D01*
X34520238Y23309248D01*
X35139285Y22737820D02*
X35139285Y23737820D01*
X35710714Y22737820D02*
X35282142Y23309248D01*
X35710714Y23737820D02*
X35139285Y23166391D01*
D13*
X38100000Y25095200D02*
X38102540Y25095200D01*
D11*
X37465000Y27000200D02*
X37465000Y24460200D01*
D13*
X38097460Y26365200D02*
X38100000Y26365200D01*
X39367460Y26365200D02*
X39370000Y26365200D01*
D11*
X40005000Y25730200D02*
X40005000Y28270200D01*
D13*
X38101270Y27635200D02*
X38103810Y27635200D01*
D11*
X38735000Y25730200D02*
X40005000Y25730200D01*
D13*
X39367460Y25095200D02*
X39370000Y25095200D01*
X39367460Y27635200D02*
X39370000Y27635200D01*
D11*
X38735000Y27000200D02*
X38735000Y24460200D01*
X38044523Y22737820D02*
X37473095Y22737820D01*
X37758809Y22737820D02*
X37758809Y23737820D01*
X37663571Y23594962D01*
X37568333Y23499724D01*
X37473095Y23452105D01*
X38901666Y23737820D02*
X38711190Y23737820D01*
X38615952Y23690200D01*
X38568333Y23642581D01*
X38473095Y23499724D01*
X38425476Y23309248D01*
X38425476Y22928296D01*
X38473095Y22833058D01*
X38520714Y22785439D01*
X38615952Y22737820D01*
X38806428Y22737820D01*
X38901666Y22785439D01*
X38949285Y22833058D01*
X38996904Y22928296D01*
X38996904Y23166391D01*
X38949285Y23261629D01*
X38901666Y23309248D01*
X38806428Y23356867D01*
X38615952Y23356867D01*
X38520714Y23309248D01*
X38473095Y23261629D01*
X38425476Y23166391D01*
X39425476Y22737820D02*
X39425476Y23737820D01*
X39996904Y22737820D02*
X39568333Y23309248D01*
X39996904Y23737820D02*
X39425476Y23166391D01*
X40005000Y28270200D02*
X38735000Y28270200D01*
X38735000Y27000200D02*
X37465000Y27000200D01*
X38735000Y25730200D02*
X38735000Y28270200D01*
X37465000Y24460200D02*
X38735000Y24460200D01*
X42545000Y28270200D02*
X42545000Y25730200D01*
X43815000Y28270200D02*
X42545000Y28270200D01*
X43815000Y25730200D02*
X43815000Y28270200D01*
X42545000Y25730200D02*
X43815000Y25730200D01*
X41235476Y23737820D02*
X41854523Y23737820D01*
X41521190Y23356867D01*
X41664047Y23356867D01*
X41759285Y23309248D01*
X41806904Y23261629D01*
X41854523Y23166391D01*
X41854523Y22928296D01*
X41806904Y22833058D01*
X41759285Y22785439D01*
X41664047Y22737820D01*
X41378333Y22737820D01*
X41283095Y22785439D01*
X41235476Y22833058D01*
X42235476Y23642581D02*
X42283095Y23690200D01*
X42378333Y23737820D01*
X42616428Y23737820D01*
X42711666Y23690200D01*
X42759285Y23642581D01*
X42806904Y23547343D01*
X42806904Y23452105D01*
X42759285Y23309248D01*
X42187857Y22737820D01*
X42806904Y22737820D01*
X43235476Y22737820D02*
X43235476Y23737820D01*
X43806904Y22737820D02*
X43378333Y23309248D01*
X43806904Y23737820D02*
X43235476Y23166391D01*
D13*
X43177460Y27635200D02*
X43180000Y27635200D01*
X41911270Y27635200D02*
X41913810Y27635200D01*
X43177460Y26365200D02*
X43180000Y26365200D01*
X41907460Y26365200D02*
X41910000Y26365200D01*
X41910000Y25095200D02*
X41912540Y25095200D01*
X43177460Y25095200D02*
X43180000Y25095200D01*
D11*
X41275000Y28270200D02*
X41275000Y25730200D01*
X42545000Y28270200D02*
X41275000Y28270200D01*
X42545000Y25730200D02*
X42545000Y28270200D01*
X41275000Y25730200D02*
X42545000Y25730200D01*
X18034000Y47574200D02*
X18542000Y47574200D01*
X18288000Y47828200D02*
X18288000Y47320200D01*
D12*
X70747857Y47276629D02*
X70247857Y47990915D01*
X69890714Y47276629D02*
X69890714Y48776629D01*
X70462142Y48776629D01*
X70605000Y48705200D01*
X70676428Y48633772D01*
X70747857Y48490915D01*
X70747857Y48276629D01*
X70676428Y48133772D01*
X70605000Y48062343D01*
X70462142Y47990915D01*
X69890714Y47990915D01*
X71319285Y47705200D02*
X72033571Y47705200D01*
X71176428Y47276629D02*
X71676428Y48776629D01*
X72176428Y47276629D01*
X72676428Y47276629D02*
X72676428Y48776629D01*
X73176428Y47705200D01*
X73676428Y48776629D01*
X73676428Y47276629D01*
X75462142Y48848058D02*
X74176428Y46919486D01*
X76819285Y47276629D02*
X76319285Y47990915D01*
X75962142Y47276629D02*
X75962142Y48776629D01*
X76533571Y48776629D01*
X76676428Y48705200D01*
X76747857Y48633772D01*
X76819285Y48490915D01*
X76819285Y48276629D01*
X76747857Y48133772D01*
X76676428Y48062343D01*
X76533571Y47990915D01*
X75962142Y47990915D01*
X77747857Y48776629D02*
X78033571Y48776629D01*
X78176428Y48705200D01*
X78319285Y48562343D01*
X78390714Y48276629D01*
X78390714Y47776629D01*
X78319285Y47490915D01*
X78176428Y47348058D01*
X78033571Y47276629D01*
X77747857Y47276629D01*
X77605000Y47348058D01*
X77462142Y47490915D01*
X77390714Y47776629D01*
X77390714Y48276629D01*
X77462142Y48562343D01*
X77605000Y48705200D01*
X77747857Y48776629D01*
X79033571Y47276629D02*
X79033571Y48776629D01*
X79533571Y47705200D01*
X80033571Y48776629D01*
X80033571Y47276629D01*
X82747857Y47419486D02*
X82676428Y47348058D01*
X82462142Y47276629D01*
X82319285Y47276629D01*
X82105000Y47348058D01*
X81962142Y47490915D01*
X81890714Y47633772D01*
X81819285Y47919486D01*
X81819285Y48133772D01*
X81890714Y48419486D01*
X81962142Y48562343D01*
X82105000Y48705200D01*
X82319285Y48776629D01*
X82462142Y48776629D01*
X82676428Y48705200D01*
X82747857Y48633772D01*
X84033571Y47276629D02*
X84033571Y48062343D01*
X83962142Y48205200D01*
X83819285Y48276629D01*
X83533571Y48276629D01*
X83390714Y48205200D01*
X84033571Y47348058D02*
X83890714Y47276629D01*
X83533571Y47276629D01*
X83390714Y47348058D01*
X83319285Y47490915D01*
X83319285Y47633772D01*
X83390714Y47776629D01*
X83533571Y47848058D01*
X83890714Y47848058D01*
X84033571Y47919486D01*
X84747857Y47276629D02*
X84747857Y48276629D01*
X84747857Y47990915D02*
X84819285Y48133772D01*
X84890714Y48205200D01*
X85033571Y48276629D01*
X85176428Y48276629D01*
X86319285Y47276629D02*
X86319285Y48776629D01*
X86319285Y47348058D02*
X86176428Y47276629D01*
X85890714Y47276629D01*
X85747857Y47348058D01*
X85676428Y47419486D01*
X85605000Y47562343D01*
X85605000Y47990915D01*
X85676428Y48133772D01*
X85747857Y48205200D01*
X85890714Y48276629D01*
X86176428Y48276629D01*
X86319285Y48205200D01*
D11*
X29106904Y47502820D02*
X29106904Y48502820D01*
X29106904Y48121867D02*
X29202142Y48169486D01*
X29392619Y48169486D01*
X29487857Y48121867D01*
X29535476Y48074248D01*
X29583095Y47979010D01*
X29583095Y47693296D01*
X29535476Y47598058D01*
X29487857Y47550439D01*
X29392619Y47502820D01*
X29202142Y47502820D01*
X29106904Y47550439D01*
X30011666Y47502820D02*
X30011666Y48169486D01*
X30011666Y48502820D02*
X29964047Y48455200D01*
X30011666Y48407581D01*
X30059285Y48455200D01*
X30011666Y48502820D01*
X30011666Y48407581D01*
X30345000Y48169486D02*
X30725952Y48169486D01*
X30487857Y48502820D02*
X30487857Y47645677D01*
X30535476Y47550439D01*
X30630714Y47502820D01*
X30725952Y47502820D01*
X37274523Y47502820D02*
X36703095Y47502820D01*
X36988809Y47502820D02*
X36988809Y48502820D01*
X36893571Y48359962D01*
X36798333Y48264724D01*
X36703095Y48217105D01*
X37607857Y48502820D02*
X38226904Y48502820D01*
X37893571Y48121867D01*
X38036428Y48121867D01*
X38131666Y48074248D01*
X38179285Y48026629D01*
X38226904Y47931391D01*
X38226904Y47693296D01*
X38179285Y47598058D01*
X38131666Y47550439D01*
X38036428Y47502820D01*
X37750714Y47502820D01*
X37655476Y47550439D01*
X37607857Y47598058D01*
X34734523Y47502820D02*
X34163095Y47502820D01*
X34448809Y47502820D02*
X34448809Y48502820D01*
X34353571Y48359962D01*
X34258333Y48264724D01*
X34163095Y48217105D01*
X35591666Y48169486D02*
X35591666Y47502820D01*
X35353571Y48550439D02*
X35115476Y47836153D01*
X35734523Y47836153D01*
X32194523Y47502820D02*
X31623095Y47502820D01*
X31908809Y47502820D02*
X31908809Y48502820D01*
X31813571Y48359962D01*
X31718333Y48264724D01*
X31623095Y48217105D01*
X33099285Y48502820D02*
X32623095Y48502820D01*
X32575476Y48026629D01*
X32623095Y48074248D01*
X32718333Y48121867D01*
X32956428Y48121867D01*
X33051666Y48074248D01*
X33099285Y48026629D01*
X33146904Y47931391D01*
X33146904Y47693296D01*
X33099285Y47598058D01*
X33051666Y47550439D01*
X32956428Y47502820D01*
X32718333Y47502820D01*
X32623095Y47550439D01*
X32575476Y47598058D01*
X28392380Y38660915D02*
X27392380Y38660915D01*
X27392380Y39041867D01*
X27440000Y39137105D01*
X27487619Y39184724D01*
X27582857Y39232343D01*
X27725714Y39232343D01*
X27820952Y39184724D01*
X27868571Y39137105D01*
X27916190Y39041867D01*
X27916190Y38660915D01*
X28392380Y40089486D02*
X27868571Y40089486D01*
X27773333Y40041867D01*
X27725714Y39946629D01*
X27725714Y39756153D01*
X27773333Y39660915D01*
X28344761Y40089486D02*
X28392380Y39994248D01*
X28392380Y39756153D01*
X28344761Y39660915D01*
X28249523Y39613296D01*
X28154285Y39613296D01*
X28059047Y39660915D01*
X28011428Y39756153D01*
X28011428Y39994248D01*
X27963809Y40089486D01*
X27725714Y40994248D02*
X28535238Y40994248D01*
X28630476Y40946629D01*
X28678095Y40899010D01*
X28725714Y40803772D01*
X28725714Y40660915D01*
X28678095Y40565677D01*
X28344761Y40994248D02*
X28392380Y40899010D01*
X28392380Y40708534D01*
X28344761Y40613296D01*
X28297142Y40565677D01*
X28201904Y40518058D01*
X27916190Y40518058D01*
X27820952Y40565677D01*
X27773333Y40613296D01*
X27725714Y40708534D01*
X27725714Y40899010D01*
X27773333Y40994248D01*
X28344761Y41851391D02*
X28392380Y41756153D01*
X28392380Y41565677D01*
X28344761Y41470439D01*
X28249523Y41422820D01*
X27868571Y41422820D01*
X27773333Y41470439D01*
X27725714Y41565677D01*
X27725714Y41756153D01*
X27773333Y41851391D01*
X27868571Y41899010D01*
X27963809Y41899010D01*
X28059047Y41422820D01*
X28344761Y43041867D02*
X28392380Y43137105D01*
X28392380Y43327581D01*
X28344761Y43422820D01*
X28249523Y43470439D01*
X28201904Y43470439D01*
X28106666Y43422820D01*
X28059047Y43327581D01*
X28059047Y43184724D01*
X28011428Y43089486D01*
X27916190Y43041867D01*
X27868571Y43041867D01*
X27773333Y43089486D01*
X27725714Y43184724D01*
X27725714Y43327581D01*
X27773333Y43422820D01*
X28344761Y44279962D02*
X28392380Y44184724D01*
X28392380Y43994248D01*
X28344761Y43899010D01*
X28249523Y43851391D01*
X27868571Y43851391D01*
X27773333Y43899010D01*
X27725714Y43994248D01*
X27725714Y44184724D01*
X27773333Y44279962D01*
X27868571Y44327581D01*
X27963809Y44327581D01*
X28059047Y43851391D01*
X28392380Y44899010D02*
X28344761Y44803772D01*
X28249523Y44756153D01*
X27392380Y44756153D01*
X28344761Y45660915D02*
X28392380Y45565677D01*
X28392380Y45375200D01*
X28344761Y45279962D01*
X28249523Y45232343D01*
X27868571Y45232343D01*
X27773333Y45279962D01*
X27725714Y45375200D01*
X27725714Y45565677D01*
X27773333Y45660915D01*
X27868571Y45708534D01*
X27963809Y45708534D01*
X28059047Y45232343D01*
X28344761Y46565677D02*
X28392380Y46470439D01*
X28392380Y46279962D01*
X28344761Y46184724D01*
X28297142Y46137105D01*
X28201904Y46089486D01*
X27916190Y46089486D01*
X27820952Y46137105D01*
X27773333Y46184724D01*
X27725714Y46279962D01*
X27725714Y46470439D01*
X27773333Y46565677D01*
X27725714Y46851391D02*
X27725714Y47232343D01*
X27392380Y46994248D02*
X28249523Y46994248D01*
X28344761Y47041867D01*
X28392380Y47137105D01*
X28392380Y47232343D01*
X35282619Y20832820D02*
X35282619Y21832820D01*
X35663571Y21832820D01*
X35758809Y21785200D01*
X35806428Y21737581D01*
X35854047Y21642343D01*
X35854047Y21499486D01*
X35806428Y21404248D01*
X35758809Y21356629D01*
X35663571Y21309010D01*
X35282619Y21309010D01*
X36711190Y20832820D02*
X36711190Y21356629D01*
X36663571Y21451867D01*
X36568333Y21499486D01*
X36377857Y21499486D01*
X36282619Y21451867D01*
X36711190Y20880439D02*
X36615952Y20832820D01*
X36377857Y20832820D01*
X36282619Y20880439D01*
X36235000Y20975677D01*
X36235000Y21070915D01*
X36282619Y21166153D01*
X36377857Y21213772D01*
X36615952Y21213772D01*
X36711190Y21261391D01*
X37615952Y21499486D02*
X37615952Y20689962D01*
X37568333Y20594724D01*
X37520714Y20547105D01*
X37425476Y20499486D01*
X37282619Y20499486D01*
X37187380Y20547105D01*
X37615952Y20880439D02*
X37520714Y20832820D01*
X37330238Y20832820D01*
X37235000Y20880439D01*
X37187380Y20928058D01*
X37139761Y21023296D01*
X37139761Y21309010D01*
X37187380Y21404248D01*
X37235000Y21451867D01*
X37330238Y21499486D01*
X37520714Y21499486D01*
X37615952Y21451867D01*
X38473095Y20880439D02*
X38377857Y20832820D01*
X38187380Y20832820D01*
X38092142Y20880439D01*
X38044523Y20975677D01*
X38044523Y21356629D01*
X38092142Y21451867D01*
X38187380Y21499486D01*
X38377857Y21499486D01*
X38473095Y21451867D01*
X38520714Y21356629D01*
X38520714Y21261391D01*
X38044523Y21166153D01*
X39663571Y20880439D02*
X39758809Y20832820D01*
X39949285Y20832820D01*
X40044523Y20880439D01*
X40092142Y20975677D01*
X40092142Y21023296D01*
X40044523Y21118534D01*
X39949285Y21166153D01*
X39806428Y21166153D01*
X39711190Y21213772D01*
X39663571Y21309010D01*
X39663571Y21356629D01*
X39711190Y21451867D01*
X39806428Y21499486D01*
X39949285Y21499486D01*
X40044523Y21451867D01*
X40520714Y20832820D02*
X40520714Y21499486D01*
X40520714Y21832820D02*
X40473095Y21785200D01*
X40520714Y21737581D01*
X40568333Y21785200D01*
X40520714Y21832820D01*
X40520714Y21737581D01*
X40901666Y21499486D02*
X41425476Y21499486D01*
X40901666Y20832820D01*
X41425476Y20832820D01*
X42187380Y20880439D02*
X42092142Y20832820D01*
X41901666Y20832820D01*
X41806428Y20880439D01*
X41758809Y20975677D01*
X41758809Y21356629D01*
X41806428Y21451867D01*
X41901666Y21499486D01*
X42092142Y21499486D01*
X42187380Y21451867D01*
X42235000Y21356629D01*
X42235000Y21261391D01*
X41758809Y21166153D01*
D12*
X29773571Y41791629D02*
X29916428Y41791629D01*
X30059285Y41720200D01*
X30130714Y41648772D01*
X30202142Y41505915D01*
X30273571Y41220200D01*
X30273571Y40863058D01*
X30202142Y40577343D01*
X30130714Y40434486D01*
X30059285Y40363058D01*
X29916428Y40291629D01*
X29773571Y40291629D01*
X29630714Y40363058D01*
X29559285Y40434486D01*
X29487857Y40577343D01*
X29416428Y40863058D01*
X29416428Y41220200D01*
X29487857Y41505915D01*
X29559285Y41648772D01*
X29630714Y41720200D01*
X29773571Y41791629D01*
X30273571Y44101629D02*
X29416428Y44101629D01*
X29845000Y44101629D02*
X29845000Y45601629D01*
X29702142Y45387343D01*
X29559285Y45244486D01*
X29416428Y45173058D01*
D14*
X53281190Y9904724D02*
X53281190Y9011867D01*
X53221666Y8833296D01*
X53102619Y8714248D01*
X52924047Y8654724D01*
X52805000Y8654724D01*
X54471666Y8654724D02*
X53876428Y8654724D01*
X53876428Y9904724D01*
X55602619Y8773772D02*
X55543095Y8714248D01*
X55364523Y8654724D01*
X55245476Y8654724D01*
X55066904Y8714248D01*
X54947857Y8833296D01*
X54888333Y8952343D01*
X54828809Y9190439D01*
X54828809Y9369010D01*
X54888333Y9607105D01*
X54947857Y9726153D01*
X55066904Y9845200D01*
X55245476Y9904724D01*
X55364523Y9904724D01*
X55543095Y9845200D01*
X55602619Y9785677D01*
X56495476Y9904724D02*
X56495476Y9011867D01*
X56435952Y8833296D01*
X56316904Y8714248D01*
X56138333Y8654724D01*
X56019285Y8654724D01*
X57685952Y8654724D02*
X57090714Y8654724D01*
X57090714Y9904724D01*
X58816904Y8773772D02*
X58757380Y8714248D01*
X58578809Y8654724D01*
X58459761Y8654724D01*
X58281190Y8714248D01*
X58162142Y8833296D01*
X58102619Y8952343D01*
X58043095Y9190439D01*
X58043095Y9369010D01*
X58102619Y9607105D01*
X58162142Y9726153D01*
X58281190Y9845200D01*
X58459761Y9904724D01*
X58578809Y9904724D01*
X58757380Y9845200D01*
X58816904Y9785677D01*
X59709761Y9904724D02*
X59709761Y9011867D01*
X59650238Y8833296D01*
X59531190Y8714248D01*
X59352619Y8654724D01*
X59233571Y8654724D01*
X60900238Y8654724D02*
X60305000Y8654724D01*
X60305000Y9904724D01*
X62031190Y8773772D02*
X61971666Y8714248D01*
X61793095Y8654724D01*
X61674047Y8654724D01*
X61495476Y8714248D01*
X61376428Y8833296D01*
X61316904Y8952343D01*
X61257380Y9190439D01*
X61257380Y9369010D01*
X61316904Y9607105D01*
X61376428Y9726153D01*
X61495476Y9845200D01*
X61674047Y9904724D01*
X61793095Y9904724D01*
X61971666Y9845200D01*
X62031190Y9785677D01*
X62924047Y9904724D02*
X62924047Y9011867D01*
X62864523Y8833296D01*
X62745476Y8714248D01*
X62566904Y8654724D01*
X62447857Y8654724D01*
X64114523Y8654724D02*
X63519285Y8654724D01*
X63519285Y9904724D01*
X65245476Y8773772D02*
X65185952Y8714248D01*
X65007380Y8654724D01*
X64888333Y8654724D01*
X64709761Y8714248D01*
X64590714Y8833296D01*
X64531190Y8952343D01*
X64471666Y9190439D01*
X64471666Y9369010D01*
X64531190Y9607105D01*
X64590714Y9726153D01*
X64709761Y9845200D01*
X64888333Y9904724D01*
X65007380Y9904724D01*
X65185952Y9845200D01*
X65245476Y9785677D01*
D12*
X1613333Y-4991942D02*
X1613333Y-4277657D01*
X2039047Y-5134800D02*
X549047Y-4634800D01*
X2039047Y-4134800D01*
X2039047Y-2849085D02*
X2039047Y-3706228D01*
X2039047Y-3277657D02*
X549047Y-3277657D01*
X761904Y-3420514D01*
X903809Y-3563371D01*
X974761Y-3706228D01*
X549047Y-1491942D02*
X549047Y-2206228D01*
X1258571Y-2277657D01*
X1187619Y-2206228D01*
X1116666Y-2063371D01*
X1116666Y-1706228D01*
X1187619Y-1563371D01*
X1258571Y-1491942D01*
X1400476Y-1420514D01*
X1755238Y-1420514D01*
X1897142Y-1491942D01*
X1968095Y-1563371D01*
X2039047Y-1706228D01*
X2039047Y-2063371D01*
X1968095Y-2206228D01*
X1897142Y-2277657D01*
X4148333Y-4991942D02*
X4148333Y-4277657D01*
X4574047Y-5134800D02*
X3084047Y-4634800D01*
X4574047Y-4134800D01*
X4574047Y-2849085D02*
X4574047Y-3706228D01*
X4574047Y-3277657D02*
X3084047Y-3277657D01*
X3296904Y-3420514D01*
X3438809Y-3563371D01*
X3509761Y-3706228D01*
X3580714Y-1563371D02*
X4574047Y-1563371D01*
X3013095Y-1920514D02*
X4077380Y-2277657D01*
X4077380Y-1349085D01*
X6683333Y-4991942D02*
X6683333Y-4277657D01*
X7109047Y-5134800D02*
X5619047Y-4634800D01*
X7109047Y-4134800D01*
X7109047Y-2849085D02*
X7109047Y-3706228D01*
X7109047Y-3277657D02*
X5619047Y-3277657D01*
X5831904Y-3420514D01*
X5973809Y-3563371D01*
X6044761Y-3706228D01*
X5619047Y-2349085D02*
X5619047Y-1420514D01*
X6186666Y-1920514D01*
X6186666Y-1706228D01*
X6257619Y-1563371D01*
X6328571Y-1491942D01*
X6470476Y-1420514D01*
X6825238Y-1420514D01*
X6967142Y-1491942D01*
X7038095Y-1563371D01*
X7109047Y-1706228D01*
X7109047Y-2134800D01*
X7038095Y-2277657D01*
X6967142Y-2349085D01*
X9218333Y-4991942D02*
X9218333Y-4277657D01*
X9644047Y-5134800D02*
X8154047Y-4634800D01*
X9644047Y-4134800D01*
X9644047Y-2849085D02*
X9644047Y-3706228D01*
X9644047Y-3277657D02*
X8154047Y-3277657D01*
X8366904Y-3420514D01*
X8508809Y-3563371D01*
X8579761Y-3706228D01*
X8295952Y-2277657D02*
X8225000Y-2206228D01*
X8154047Y-2063371D01*
X8154047Y-1706228D01*
X8225000Y-1563371D01*
X8295952Y-1491942D01*
X8437857Y-1420514D01*
X8579761Y-1420514D01*
X8792619Y-1491942D01*
X9644047Y-2349085D01*
X9644047Y-1420514D01*
X11753333Y-4991942D02*
X11753333Y-4277657D01*
X12179047Y-5134800D02*
X10689047Y-4634800D01*
X12179047Y-4134800D01*
X12179047Y-2849085D02*
X12179047Y-3706228D01*
X12179047Y-3277657D02*
X10689047Y-3277657D01*
X10901904Y-3420514D01*
X11043809Y-3563371D01*
X11114761Y-3706228D01*
X12179047Y-1420514D02*
X12179047Y-2277657D01*
X12179047Y-1849085D02*
X10689047Y-1849085D01*
X10901904Y-1991942D01*
X11043809Y-2134800D01*
X11114761Y-2277657D01*
X14288333Y-4991942D02*
X14288333Y-4277657D01*
X14714047Y-5134800D02*
X13224047Y-4634800D01*
X14714047Y-4134800D01*
X14714047Y-2849085D02*
X14714047Y-3706228D01*
X14714047Y-3277657D02*
X13224047Y-3277657D01*
X13436904Y-3420514D01*
X13578809Y-3563371D01*
X13649761Y-3706228D01*
X13224047Y-1920514D02*
X13224047Y-1777657D01*
X13295000Y-1634800D01*
X13365952Y-1563371D01*
X13507857Y-1491942D01*
X13791666Y-1420514D01*
X14146428Y-1420514D01*
X14430238Y-1491942D01*
X14572142Y-1563371D01*
X14643095Y-1634800D01*
X14714047Y-1777657D01*
X14714047Y-1920514D01*
X14643095Y-2063371D01*
X14572142Y-2134800D01*
X14430238Y-2206228D01*
X14146428Y-2277657D01*
X13791666Y-2277657D01*
X13507857Y-2206228D01*
X13365952Y-2134800D01*
X13295000Y-2063371D01*
X13224047Y-1920514D01*
X16823333Y-3563371D02*
X16823333Y-2849085D01*
X17249047Y-3706228D02*
X15759047Y-3206228D01*
X17249047Y-2706228D01*
X17249047Y-2134800D02*
X17249047Y-1849085D01*
X17178095Y-1706228D01*
X17107142Y-1634800D01*
X16894285Y-1491942D01*
X16610476Y-1420514D01*
X16042857Y-1420514D01*
X15900952Y-1491942D01*
X15830000Y-1563371D01*
X15759047Y-1706228D01*
X15759047Y-1991942D01*
X15830000Y-2134800D01*
X15900952Y-2206228D01*
X16042857Y-2277657D01*
X16397619Y-2277657D01*
X16539523Y-2206228D01*
X16610476Y-2134800D01*
X16681428Y-1991942D01*
X16681428Y-1706228D01*
X16610476Y-1563371D01*
X16539523Y-1491942D01*
X16397619Y-1420514D01*
X19358333Y-3563371D02*
X19358333Y-2849085D01*
X19784047Y-3706228D02*
X18294047Y-3206228D01*
X19784047Y-2706228D01*
X18932619Y-1991942D02*
X18861666Y-2134800D01*
X18790714Y-2206228D01*
X18648809Y-2277657D01*
X18577857Y-2277657D01*
X18435952Y-2206228D01*
X18365000Y-2134800D01*
X18294047Y-1991942D01*
X18294047Y-1706228D01*
X18365000Y-1563371D01*
X18435952Y-1491942D01*
X18577857Y-1420514D01*
X18648809Y-1420514D01*
X18790714Y-1491942D01*
X18861666Y-1563371D01*
X18932619Y-1706228D01*
X18932619Y-1991942D01*
X19003571Y-2134800D01*
X19074523Y-2206228D01*
X19216428Y-2277657D01*
X19500238Y-2277657D01*
X19642142Y-2206228D01*
X19713095Y-2134800D01*
X19784047Y-1991942D01*
X19784047Y-1706228D01*
X19713095Y-1563371D01*
X19642142Y-1491942D01*
X19500238Y-1420514D01*
X19216428Y-1420514D01*
X19074523Y-1491942D01*
X19003571Y-1563371D01*
X18932619Y-1706228D01*
X21893333Y-3563371D02*
X21893333Y-2849085D01*
X22319047Y-3706228D02*
X20829047Y-3206228D01*
X22319047Y-2706228D01*
X20829047Y-2349085D02*
X20829047Y-1349085D01*
X22319047Y-1991942D01*
X24428333Y-3563371D02*
X24428333Y-2849085D01*
X24854047Y-3706228D02*
X23364047Y-3206228D01*
X24854047Y-2706228D01*
X23364047Y-1563371D02*
X23364047Y-1849085D01*
X23435000Y-1991942D01*
X23505952Y-2063371D01*
X23718809Y-2206228D01*
X24002619Y-2277657D01*
X24570238Y-2277657D01*
X24712142Y-2206228D01*
X24783095Y-2134800D01*
X24854047Y-1991942D01*
X24854047Y-1706228D01*
X24783095Y-1563371D01*
X24712142Y-1491942D01*
X24570238Y-1420514D01*
X24215476Y-1420514D01*
X24073571Y-1491942D01*
X24002619Y-1563371D01*
X23931666Y-1706228D01*
X23931666Y-1991942D01*
X24002619Y-2134800D01*
X24073571Y-2206228D01*
X24215476Y-2277657D01*
X26963333Y-3563371D02*
X26963333Y-2849085D01*
X27389047Y-3706228D02*
X25899047Y-3206228D01*
X27389047Y-2706228D01*
X25899047Y-1491942D02*
X25899047Y-2206228D01*
X26608571Y-2277657D01*
X26537619Y-2206228D01*
X26466666Y-2063371D01*
X26466666Y-1706228D01*
X26537619Y-1563371D01*
X26608571Y-1491942D01*
X26750476Y-1420514D01*
X27105238Y-1420514D01*
X27247142Y-1491942D01*
X27318095Y-1563371D01*
X27389047Y-1706228D01*
X27389047Y-2063371D01*
X27318095Y-2206228D01*
X27247142Y-2277657D01*
X29498333Y-3563371D02*
X29498333Y-2849085D01*
X29924047Y-3706228D02*
X28434047Y-3206228D01*
X29924047Y-2706228D01*
X28930714Y-1563371D02*
X29924047Y-1563371D01*
X28363095Y-1920514D02*
X29427380Y-2277657D01*
X29427380Y-1349085D01*
X32033333Y-3563371D02*
X32033333Y-2849085D01*
X32459047Y-3706228D02*
X30969047Y-3206228D01*
X32459047Y-2706228D01*
X30969047Y-2349085D02*
X30969047Y-1420514D01*
X31536666Y-1920514D01*
X31536666Y-1706228D01*
X31607619Y-1563371D01*
X31678571Y-1491942D01*
X31820476Y-1420514D01*
X32175238Y-1420514D01*
X32317142Y-1491942D01*
X32388095Y-1563371D01*
X32459047Y-1706228D01*
X32459047Y-2134800D01*
X32388095Y-2277657D01*
X32317142Y-2349085D01*
X34568333Y-3563371D02*
X34568333Y-2849085D01*
X34994047Y-3706228D02*
X33504047Y-3206228D01*
X34994047Y-2706228D01*
X33645952Y-2277657D02*
X33575000Y-2206228D01*
X33504047Y-2063371D01*
X33504047Y-1706228D01*
X33575000Y-1563371D01*
X33645952Y-1491942D01*
X33787857Y-1420514D01*
X33929761Y-1420514D01*
X34142619Y-1491942D01*
X34994047Y-2349085D01*
X34994047Y-1420514D01*
X37103333Y-3563371D02*
X37103333Y-2849085D01*
X37529047Y-3706228D02*
X36039047Y-3206228D01*
X37529047Y-2706228D01*
X37529047Y-1420514D02*
X37529047Y-2277657D01*
X37529047Y-1849085D02*
X36039047Y-1849085D01*
X36251904Y-1991942D01*
X36393809Y-2134800D01*
X36464761Y-2277657D01*
X39638333Y-3563371D02*
X39638333Y-2849085D01*
X40064047Y-3706228D02*
X38574047Y-3206228D01*
X40064047Y-2706228D01*
X38574047Y-1920514D02*
X38574047Y-1777657D01*
X38645000Y-1634800D01*
X38715952Y-1563371D01*
X38857857Y-1491942D01*
X39141666Y-1420514D01*
X39496428Y-1420514D01*
X39780238Y-1491942D01*
X39922142Y-1563371D01*
X39993095Y-1634800D01*
X40064047Y-1777657D01*
X40064047Y-1920514D01*
X39993095Y-2063371D01*
X39922142Y-2134800D01*
X39780238Y-2206228D01*
X39496428Y-2277657D01*
X39141666Y-2277657D01*
X38857857Y-2206228D01*
X38715952Y-2134800D01*
X38645000Y-2063371D01*
X38574047Y-1920514D01*
X41180000Y-4206228D02*
X41109047Y-4349085D01*
X41109047Y-4563371D01*
X41180000Y-4777657D01*
X41321904Y-4920514D01*
X41463809Y-4991942D01*
X41747619Y-5063371D01*
X41960476Y-5063371D01*
X42244285Y-4991942D01*
X42386190Y-4920514D01*
X42528095Y-4777657D01*
X42599047Y-4563371D01*
X42599047Y-4420514D01*
X42528095Y-4206228D01*
X42457142Y-4134800D01*
X41960476Y-4134800D01*
X41960476Y-4420514D01*
X41605714Y-3491942D02*
X42599047Y-3491942D01*
X41747619Y-3491942D02*
X41676666Y-3420514D01*
X41605714Y-3277657D01*
X41605714Y-3063371D01*
X41676666Y-2920514D01*
X41818571Y-2849085D01*
X42599047Y-2849085D01*
X42599047Y-1491942D02*
X41109047Y-1491942D01*
X42528095Y-1491942D02*
X42599047Y-1634800D01*
X42599047Y-1920514D01*
X42528095Y-2063371D01*
X42457142Y-2134800D01*
X42315238Y-2206228D01*
X41889523Y-2206228D01*
X41747619Y-2134800D01*
X41676666Y-2063371D01*
X41605714Y-1920514D01*
X41605714Y-1634800D01*
X41676666Y-1491942D01*
X43644047Y-2634800D02*
X43644047Y-3349085D01*
X44353571Y-3420514D01*
X44282619Y-3349085D01*
X44211666Y-3206228D01*
X44211666Y-2849085D01*
X44282619Y-2706228D01*
X44353571Y-2634800D01*
X44495476Y-2563371D01*
X44850238Y-2563371D01*
X44992142Y-2634800D01*
X45063095Y-2706228D01*
X45134047Y-2849085D01*
X45134047Y-3206228D01*
X45063095Y-3349085D01*
X44992142Y-3420514D01*
X44140714Y-2063371D02*
X45134047Y-1706228D01*
X44140714Y-1349085D01*
X47669047Y-3920514D02*
X46179047Y-3920514D01*
X47243333Y-3420514D01*
X46179047Y-2920514D01*
X47669047Y-2920514D01*
X47669047Y-1420514D02*
X47669047Y-2277657D01*
X47669047Y-1849085D02*
X46179047Y-1849085D01*
X46391904Y-1991942D01*
X46533809Y-2134800D01*
X46604761Y-2277657D01*
X50204047Y-6063371D02*
X49494523Y-6563371D01*
X50204047Y-6920514D02*
X48714047Y-6920514D01*
X48714047Y-6349085D01*
X48785000Y-6206228D01*
X48855952Y-6134800D01*
X48997857Y-6063371D01*
X49210714Y-6063371D01*
X49352619Y-6134800D01*
X49423571Y-6206228D01*
X49494523Y-6349085D01*
X49494523Y-6920514D01*
X50133095Y-4849085D02*
X50204047Y-4991942D01*
X50204047Y-5277657D01*
X50133095Y-5420514D01*
X49991190Y-5491942D01*
X49423571Y-5491942D01*
X49281666Y-5420514D01*
X49210714Y-5277657D01*
X49210714Y-4991942D01*
X49281666Y-4849085D01*
X49423571Y-4777657D01*
X49565476Y-4777657D01*
X49707380Y-5491942D01*
X50133095Y-4206228D02*
X50204047Y-4063371D01*
X50204047Y-3777657D01*
X50133095Y-3634800D01*
X49991190Y-3563371D01*
X49920238Y-3563371D01*
X49778333Y-3634800D01*
X49707380Y-3777657D01*
X49707380Y-3991942D01*
X49636428Y-4134800D01*
X49494523Y-4206228D01*
X49423571Y-4206228D01*
X49281666Y-4134800D01*
X49210714Y-3991942D01*
X49210714Y-3777657D01*
X49281666Y-3634800D01*
X50133095Y-2349085D02*
X50204047Y-2491942D01*
X50204047Y-2777657D01*
X50133095Y-2920514D01*
X49991190Y-2991942D01*
X49423571Y-2991942D01*
X49281666Y-2920514D01*
X49210714Y-2777657D01*
X49210714Y-2491942D01*
X49281666Y-2349085D01*
X49423571Y-2277657D01*
X49565476Y-2277657D01*
X49707380Y-2991942D01*
X49210714Y-1849085D02*
X49210714Y-1277657D01*
X48714047Y-1634800D02*
X49991190Y-1634800D01*
X50133095Y-1563371D01*
X50204047Y-1420514D01*
X50204047Y-1277657D01*
X52597142Y-6063371D02*
X52668095Y-6134800D01*
X52739047Y-6349085D01*
X52739047Y-6491942D01*
X52668095Y-6706228D01*
X52526190Y-6849085D01*
X52384285Y-6920514D01*
X52100476Y-6991942D01*
X51887619Y-6991942D01*
X51603809Y-6920514D01*
X51461904Y-6849085D01*
X51320000Y-6706228D01*
X51249047Y-6491942D01*
X51249047Y-6349085D01*
X51320000Y-6134800D01*
X51390952Y-6063371D01*
X52739047Y-5206228D02*
X52668095Y-5349085D01*
X52526190Y-5420514D01*
X51249047Y-5420514D01*
X52739047Y-4420514D02*
X52668095Y-4563371D01*
X52597142Y-4634800D01*
X52455238Y-4706228D01*
X52029523Y-4706228D01*
X51887619Y-4634800D01*
X51816666Y-4563371D01*
X51745714Y-4420514D01*
X51745714Y-4206228D01*
X51816666Y-4063371D01*
X51887619Y-3991942D01*
X52029523Y-3920514D01*
X52455238Y-3920514D01*
X52597142Y-3991942D01*
X52668095Y-4063371D01*
X52739047Y-4206228D01*
X52739047Y-4420514D01*
X52668095Y-2634800D02*
X52739047Y-2777657D01*
X52739047Y-3063371D01*
X52668095Y-3206228D01*
X52597142Y-3277657D01*
X52455238Y-3349085D01*
X52029523Y-3349085D01*
X51887619Y-3277657D01*
X51816666Y-3206228D01*
X51745714Y-3063371D01*
X51745714Y-2777657D01*
X51816666Y-2634800D01*
X52739047Y-1991942D02*
X51249047Y-1991942D01*
X52171428Y-1849085D02*
X52739047Y-1420514D01*
X51745714Y-1420514D02*
X52313333Y-1991942D01*
X55274047Y-4206228D02*
X53784047Y-4206228D01*
X55274047Y-3491942D02*
X53784047Y-3491942D01*
X55274047Y-2634800D01*
X53784047Y-2634800D01*
X53784047Y-2134800D02*
X53784047Y-1277657D01*
X55274047Y-1706228D02*
X53784047Y-1706228D01*
X57809047Y-6063371D02*
X56319047Y-6063371D01*
X57383333Y-5563371D01*
X56319047Y-5063371D01*
X57809047Y-5063371D01*
X57809047Y-4349085D02*
X56815714Y-4349085D01*
X57099523Y-4349085D02*
X56957619Y-4277657D01*
X56886666Y-4206228D01*
X56815714Y-4063371D01*
X56815714Y-3920514D01*
X57738095Y-2849085D02*
X57809047Y-2991942D01*
X57809047Y-3277657D01*
X57738095Y-3420514D01*
X57596190Y-3491942D01*
X57028571Y-3491942D01*
X56886666Y-3420514D01*
X56815714Y-3277657D01*
X56815714Y-2991942D01*
X56886666Y-2849085D01*
X57028571Y-2777657D01*
X57170476Y-2777657D01*
X57312380Y-3491942D01*
X56815714Y-1491942D02*
X58305714Y-1491942D01*
X57738095Y-1491942D02*
X57809047Y-1634800D01*
X57809047Y-1920514D01*
X57738095Y-2063371D01*
X57667142Y-2134800D01*
X57525238Y-2206228D01*
X57099523Y-2206228D01*
X56957619Y-2134800D01*
X56886666Y-2063371D01*
X56815714Y-1920514D01*
X56815714Y-1634800D01*
X56886666Y-1491942D01*
X58854047Y-3563371D02*
X60344047Y-3206228D01*
X59279761Y-2920514D01*
X60344047Y-2634800D01*
X58854047Y-2277657D01*
X60344047Y-1706228D02*
X59350714Y-1706228D01*
X59634523Y-1706228D02*
X59492619Y-1634800D01*
X59421666Y-1563371D01*
X59350714Y-1420514D01*
X59350714Y-1277657D01*
X62879047Y-2777657D02*
X62169523Y-3277657D01*
X62879047Y-3634800D02*
X61389047Y-3634800D01*
X61389047Y-3063371D01*
X61460000Y-2920514D01*
X61530952Y-2849085D01*
X61672857Y-2777657D01*
X61885714Y-2777657D01*
X62027619Y-2849085D01*
X62098571Y-2920514D01*
X62169523Y-3063371D01*
X62169523Y-3634800D01*
X62879047Y-1920514D02*
X62808095Y-2063371D01*
X62737142Y-2134800D01*
X62595238Y-2206228D01*
X62169523Y-2206228D01*
X62027619Y-2134800D01*
X61956666Y-2063371D01*
X61885714Y-1920514D01*
X61885714Y-1706228D01*
X61956666Y-1563371D01*
X62027619Y-1491942D01*
X62169523Y-1420514D01*
X62595238Y-1420514D01*
X62737142Y-1491942D01*
X62808095Y-1563371D01*
X62879047Y-1706228D01*
X62879047Y-1920514D01*
X65414047Y-6134800D02*
X63924047Y-6134800D01*
X63924047Y-5134800D02*
X63924047Y-4849085D01*
X63995000Y-4706228D01*
X64136904Y-4563371D01*
X64420714Y-4491942D01*
X64917380Y-4491942D01*
X65201190Y-4563371D01*
X65343095Y-4706228D01*
X65414047Y-4849085D01*
X65414047Y-5134800D01*
X65343095Y-5277657D01*
X65201190Y-5420514D01*
X64917380Y-5491942D01*
X64420714Y-5491942D01*
X64136904Y-5420514D01*
X63995000Y-5277657D01*
X63924047Y-5134800D01*
X65414047Y-2991942D02*
X64704523Y-3491942D01*
X65414047Y-3849085D02*
X63924047Y-3849085D01*
X63924047Y-3277657D01*
X63995000Y-3134800D01*
X64065952Y-3063371D01*
X64207857Y-2991942D01*
X64420714Y-2991942D01*
X64562619Y-3063371D01*
X64633571Y-3134800D01*
X64704523Y-3277657D01*
X64704523Y-3849085D01*
X65555952Y-1349085D02*
X65485000Y-1491942D01*
X65343095Y-1634800D01*
X65130238Y-1849085D01*
X65059285Y-1991942D01*
X65059285Y-2134800D01*
X65414047Y-2063371D02*
X65343095Y-2206228D01*
X65201190Y-2349085D01*
X64917380Y-2420514D01*
X64420714Y-2420514D01*
X64136904Y-2349085D01*
X63995000Y-2206228D01*
X63924047Y-2063371D01*
X63924047Y-1777657D01*
X63995000Y-1634800D01*
X64136904Y-1491942D01*
X64420714Y-1420514D01*
X64917380Y-1420514D01*
X65201190Y-1491942D01*
X65343095Y-1634800D01*
X65414047Y-1777657D01*
X65414047Y-2063371D01*
X67949047Y-3706228D02*
X66459047Y-3706228D01*
X66459047Y-3349085D01*
X66530000Y-3134800D01*
X66671904Y-2991942D01*
X66813809Y-2920514D01*
X67097619Y-2849085D01*
X67310476Y-2849085D01*
X67594285Y-2920514D01*
X67736190Y-2991942D01*
X67878095Y-3134800D01*
X67949047Y-3349085D01*
X67949047Y-3706228D01*
X66459047Y-1920514D02*
X66459047Y-1777657D01*
X66530000Y-1634800D01*
X66600952Y-1563371D01*
X66742857Y-1491942D01*
X67026666Y-1420514D01*
X67381428Y-1420514D01*
X67665238Y-1491942D01*
X67807142Y-1563371D01*
X67878095Y-1634800D01*
X67949047Y-1777657D01*
X67949047Y-1920514D01*
X67878095Y-2063371D01*
X67807142Y-2134800D01*
X67665238Y-2206228D01*
X67381428Y-2277657D01*
X67026666Y-2277657D01*
X66742857Y-2206228D01*
X66600952Y-2134800D01*
X66530000Y-2063371D01*
X66459047Y-1920514D01*
X70484047Y-3706228D02*
X68994047Y-3706228D01*
X68994047Y-3349085D01*
X69065000Y-3134800D01*
X69206904Y-2991942D01*
X69348809Y-2920514D01*
X69632619Y-2849085D01*
X69845476Y-2849085D01*
X70129285Y-2920514D01*
X70271190Y-2991942D01*
X70413095Y-3134800D01*
X70484047Y-3349085D01*
X70484047Y-3706228D01*
X70484047Y-1420514D02*
X70484047Y-2277657D01*
X70484047Y-1849085D02*
X68994047Y-1849085D01*
X69206904Y-1991942D01*
X69348809Y-2134800D01*
X69419761Y-2277657D01*
X73019047Y-3706228D02*
X71529047Y-3706228D01*
X71529047Y-3349085D01*
X71600000Y-3134800D01*
X71741904Y-2991942D01*
X71883809Y-2920514D01*
X72167619Y-2849085D01*
X72380476Y-2849085D01*
X72664285Y-2920514D01*
X72806190Y-2991942D01*
X72948095Y-3134800D01*
X73019047Y-3349085D01*
X73019047Y-3706228D01*
X71670952Y-2277657D02*
X71600000Y-2206228D01*
X71529047Y-2063371D01*
X71529047Y-1706228D01*
X71600000Y-1563371D01*
X71670952Y-1491942D01*
X71812857Y-1420514D01*
X71954761Y-1420514D01*
X72167619Y-1491942D01*
X73019047Y-2349085D01*
X73019047Y-1420514D01*
X75554047Y-3706228D02*
X74064047Y-3706228D01*
X74064047Y-3349085D01*
X74135000Y-3134800D01*
X74276904Y-2991942D01*
X74418809Y-2920514D01*
X74702619Y-2849085D01*
X74915476Y-2849085D01*
X75199285Y-2920514D01*
X75341190Y-2991942D01*
X75483095Y-3134800D01*
X75554047Y-3349085D01*
X75554047Y-3706228D01*
X74064047Y-2349085D02*
X74064047Y-1420514D01*
X74631666Y-1920514D01*
X74631666Y-1706228D01*
X74702619Y-1563371D01*
X74773571Y-1491942D01*
X74915476Y-1420514D01*
X75270238Y-1420514D01*
X75412142Y-1491942D01*
X75483095Y-1563371D01*
X75554047Y-1706228D01*
X75554047Y-2134800D01*
X75483095Y-2277657D01*
X75412142Y-2349085D01*
X78089047Y-3706228D02*
X76599047Y-3706228D01*
X76599047Y-3349085D01*
X76670000Y-3134800D01*
X76811904Y-2991942D01*
X76953809Y-2920514D01*
X77237619Y-2849085D01*
X77450476Y-2849085D01*
X77734285Y-2920514D01*
X77876190Y-2991942D01*
X78018095Y-3134800D01*
X78089047Y-3349085D01*
X78089047Y-3706228D01*
X77095714Y-1563371D02*
X78089047Y-1563371D01*
X76528095Y-1920514D02*
X77592380Y-2277657D01*
X77592380Y-1349085D01*
X80624047Y-3706228D02*
X79134047Y-3706228D01*
X79134047Y-3349085D01*
X79205000Y-3134800D01*
X79346904Y-2991942D01*
X79488809Y-2920514D01*
X79772619Y-2849085D01*
X79985476Y-2849085D01*
X80269285Y-2920514D01*
X80411190Y-2991942D01*
X80553095Y-3134800D01*
X80624047Y-3349085D01*
X80624047Y-3706228D01*
X79134047Y-1491942D02*
X79134047Y-2206228D01*
X79843571Y-2277657D01*
X79772619Y-2206228D01*
X79701666Y-2063371D01*
X79701666Y-1706228D01*
X79772619Y-1563371D01*
X79843571Y-1491942D01*
X79985476Y-1420514D01*
X80340238Y-1420514D01*
X80482142Y-1491942D01*
X80553095Y-1563371D01*
X80624047Y-1706228D01*
X80624047Y-2063371D01*
X80553095Y-2206228D01*
X80482142Y-2277657D01*
X83159047Y-3706228D02*
X81669047Y-3706228D01*
X81669047Y-3349085D01*
X81740000Y-3134800D01*
X81881904Y-2991942D01*
X82023809Y-2920514D01*
X82307619Y-2849085D01*
X82520476Y-2849085D01*
X82804285Y-2920514D01*
X82946190Y-2991942D01*
X83088095Y-3134800D01*
X83159047Y-3349085D01*
X83159047Y-3706228D01*
X81669047Y-1563371D02*
X81669047Y-1849085D01*
X81740000Y-1991942D01*
X81810952Y-2063371D01*
X82023809Y-2206228D01*
X82307619Y-2277657D01*
X82875238Y-2277657D01*
X83017142Y-2206228D01*
X83088095Y-2134800D01*
X83159047Y-1991942D01*
X83159047Y-1706228D01*
X83088095Y-1563371D01*
X83017142Y-1491942D01*
X82875238Y-1420514D01*
X82520476Y-1420514D01*
X82378571Y-1491942D01*
X82307619Y-1563371D01*
X82236666Y-1706228D01*
X82236666Y-1991942D01*
X82307619Y-2134800D01*
X82378571Y-2206228D01*
X82520476Y-2277657D01*
X85694047Y-3706228D02*
X84204047Y-3706228D01*
X84204047Y-3349085D01*
X84275000Y-3134800D01*
X84416904Y-2991942D01*
X84558809Y-2920514D01*
X84842619Y-2849085D01*
X85055476Y-2849085D01*
X85339285Y-2920514D01*
X85481190Y-2991942D01*
X85623095Y-3134800D01*
X85694047Y-3349085D01*
X85694047Y-3706228D01*
X84204047Y-2349085D02*
X84204047Y-1349085D01*
X85694047Y-1991942D01*
X86739047Y-3349085D02*
X86739047Y-2491942D01*
X88229047Y-2920514D02*
X86739047Y-2920514D01*
X88229047Y-2134800D02*
X87235714Y-1349085D01*
X87235714Y-2134800D02*
X88229047Y-1349085D01*
X90764047Y-2634800D02*
X90054523Y-3134800D01*
X90764047Y-3491942D02*
X89274047Y-3491942D01*
X89274047Y-2920514D01*
X89345000Y-2777657D01*
X89415952Y-2706228D01*
X89557857Y-2634800D01*
X89770714Y-2634800D01*
X89912619Y-2706228D01*
X89983571Y-2777657D01*
X90054523Y-2920514D01*
X90054523Y-3491942D01*
X90764047Y-2134800D02*
X89770714Y-1349085D01*
X89770714Y-2134800D02*
X90764047Y-1349085D01*
X91809047Y-6706228D02*
X93015238Y-6706228D01*
X93157142Y-6634800D01*
X93228095Y-6563371D01*
X93299047Y-6420514D01*
X93299047Y-6134800D01*
X93228095Y-5991942D01*
X93157142Y-5920514D01*
X93015238Y-5849085D01*
X91809047Y-5849085D01*
X93228095Y-5206228D02*
X93299047Y-4991942D01*
X93299047Y-4634800D01*
X93228095Y-4491942D01*
X93157142Y-4420514D01*
X93015238Y-4349085D01*
X92873333Y-4349085D01*
X92731428Y-4420514D01*
X92660476Y-4491942D01*
X92589523Y-4634800D01*
X92518571Y-4920514D01*
X92447619Y-5063371D01*
X92376666Y-5134800D01*
X92234761Y-5206228D01*
X92092857Y-5206228D01*
X91950952Y-5134800D01*
X91880000Y-5063371D01*
X91809047Y-4920514D01*
X91809047Y-4563371D01*
X91880000Y-4349085D01*
X93299047Y-2849085D02*
X92589523Y-3349085D01*
X93299047Y-3706228D02*
X91809047Y-3706228D01*
X91809047Y-3134800D01*
X91880000Y-2991942D01*
X91950952Y-2920514D01*
X92092857Y-2849085D01*
X92305714Y-2849085D01*
X92447619Y-2920514D01*
X92518571Y-2991942D01*
X92589523Y-3134800D01*
X92589523Y-3706228D01*
X93299047Y-1420514D02*
X93299047Y-2277657D01*
X93299047Y-1849085D02*
X91809047Y-1849085D01*
X92021904Y-1991942D01*
X92163809Y-2134800D01*
X92234761Y-2277657D01*
X94344047Y-6706228D02*
X95550238Y-6706228D01*
X95692142Y-6634800D01*
X95763095Y-6563371D01*
X95834047Y-6420514D01*
X95834047Y-6134800D01*
X95763095Y-5991942D01*
X95692142Y-5920514D01*
X95550238Y-5849085D01*
X94344047Y-5849085D01*
X95763095Y-5206228D02*
X95834047Y-4991942D01*
X95834047Y-4634800D01*
X95763095Y-4491942D01*
X95692142Y-4420514D01*
X95550238Y-4349085D01*
X95408333Y-4349085D01*
X95266428Y-4420514D01*
X95195476Y-4491942D01*
X95124523Y-4634800D01*
X95053571Y-4920514D01*
X94982619Y-5063371D01*
X94911666Y-5134800D01*
X94769761Y-5206228D01*
X94627857Y-5206228D01*
X94485952Y-5134800D01*
X94415000Y-5063371D01*
X94344047Y-4920514D01*
X94344047Y-4563371D01*
X94415000Y-4349085D01*
X95834047Y-2849085D02*
X95124523Y-3349085D01*
X95834047Y-3706228D02*
X94344047Y-3706228D01*
X94344047Y-3134800D01*
X94415000Y-2991942D01*
X94485952Y-2920514D01*
X94627857Y-2849085D01*
X94840714Y-2849085D01*
X94982619Y-2920514D01*
X95053571Y-2991942D01*
X95124523Y-3134800D01*
X95124523Y-3706228D01*
X94485952Y-2277657D02*
X94415000Y-2206228D01*
X94344047Y-2063371D01*
X94344047Y-1706228D01*
X94415000Y-1563371D01*
X94485952Y-1491942D01*
X94627857Y-1420514D01*
X94769761Y-1420514D01*
X94982619Y-1491942D01*
X95834047Y-2349085D01*
X95834047Y-1420514D01*
X96879047Y-6706228D02*
X98085238Y-6706228D01*
X98227142Y-6634800D01*
X98298095Y-6563371D01*
X98369047Y-6420514D01*
X98369047Y-6134800D01*
X98298095Y-5991942D01*
X98227142Y-5920514D01*
X98085238Y-5849085D01*
X96879047Y-5849085D01*
X98298095Y-5206228D02*
X98369047Y-4991942D01*
X98369047Y-4634800D01*
X98298095Y-4491942D01*
X98227142Y-4420514D01*
X98085238Y-4349085D01*
X97943333Y-4349085D01*
X97801428Y-4420514D01*
X97730476Y-4491942D01*
X97659523Y-4634800D01*
X97588571Y-4920514D01*
X97517619Y-5063371D01*
X97446666Y-5134800D01*
X97304761Y-5206228D01*
X97162857Y-5206228D01*
X97020952Y-5134800D01*
X96950000Y-5063371D01*
X96879047Y-4920514D01*
X96879047Y-4563371D01*
X96950000Y-4349085D01*
X98369047Y-2849085D02*
X97659523Y-3349085D01*
X98369047Y-3706228D02*
X96879047Y-3706228D01*
X96879047Y-3134800D01*
X96950000Y-2991942D01*
X97020952Y-2920514D01*
X97162857Y-2849085D01*
X97375714Y-2849085D01*
X97517619Y-2920514D01*
X97588571Y-2991942D01*
X97659523Y-3134800D01*
X97659523Y-3706228D01*
X96879047Y-2349085D02*
X96879047Y-1420514D01*
X97446666Y-1920514D01*
X97446666Y-1706228D01*
X97517619Y-1563371D01*
X97588571Y-1491942D01*
X97730476Y-1420514D01*
X98085238Y-1420514D01*
X98227142Y-1491942D01*
X98298095Y-1563371D01*
X98369047Y-1706228D01*
X98369047Y-2134800D01*
X98298095Y-2277657D01*
X98227142Y-2349085D01*
D15*
X2743200Y10345420D02*
X2743200Y233680D01*
X1173480Y10345420D02*
X2743200Y10345420D01*
X-7620Y9164320D02*
X1173480Y10345420D01*
X-7620Y233680D02*
X-7620Y9164320D01*
D12*
X2207651Y4049735D02*
X707651Y4049735D01*
X707651Y4621163D01*
X779080Y4764020D01*
X850508Y4835449D01*
X993365Y4906878D01*
X1207651Y4906878D01*
X1350508Y4835449D01*
X1421937Y4764020D01*
X1493365Y4621163D01*
X1493365Y4049735D01*
X2207651Y5549735D02*
X1207651Y5549735D01*
X707651Y5549735D02*
X779080Y5478306D01*
X850508Y5549735D01*
X779080Y5621163D01*
X707651Y5549735D01*
X850508Y5549735D01*
X1207651Y6264020D02*
X2207651Y6264020D01*
X1350508Y6264020D02*
X1279080Y6335449D01*
X1207651Y6478306D01*
X1207651Y6692592D01*
X1279080Y6835449D01*
X1421937Y6906878D01*
X2207651Y6906878D01*
X2207651Y9549735D02*
X2207651Y8692592D01*
X2207651Y9121163D02*
X707651Y9121163D01*
X921937Y8978306D01*
X1064794Y8835449D01*
X1136222Y8692592D01*
D16*
%TO.C,U1*%
X57030000Y44315200D02*
X57030000Y26195200D01*
X92830000Y44315200D02*
X57030000Y44315200D01*
X92830000Y26195200D02*
X92830000Y44315200D01*
X57030000Y26195200D02*
X92830000Y26195200D01*
X57090000Y41315200D02*
X57090000Y36255200D01*
X92770000Y41315200D02*
X57090000Y41315200D01*
X92770000Y29195200D02*
X92770000Y41315200D01*
X57090000Y29195200D02*
X92770000Y29195200D01*
X57090000Y34255200D02*
X57090000Y29195200D01*
X57090000Y36255200D02*
G75*
G02*
X57090000Y34255200I0J-1000000D01*
G01*
%TO.C,U2*%
X52010000Y20360200D02*
X52010000Y15300200D01*
X92770000Y20360200D02*
X52010000Y20360200D01*
X92770000Y8240200D02*
X92770000Y20360200D01*
X52010000Y8240200D02*
X92770000Y8240200D01*
X52010000Y13300200D02*
X52010000Y8240200D01*
X52010000Y15300200D02*
G75*
G02*
X52010000Y13300200I0J-1000000D01*
G01*
%TO.C,C2*%
X49880000Y21299200D02*
X49880000Y20041200D01*
X51720000Y21299200D02*
X51720000Y20041200D01*
%TO.C,R2*%
X17375000Y33890200D02*
X17045000Y33890200D01*
X17045000Y33890200D02*
X17045000Y40430200D01*
X17045000Y40430200D02*
X17375000Y40430200D01*
X19455000Y33890200D02*
X19785000Y33890200D01*
X19785000Y33890200D02*
X19785000Y40430200D01*
X19785000Y40430200D02*
X19455000Y40430200D01*
%TO.C,D2*%
X21935000Y47286200D02*
X21935000Y47130200D01*
X21935000Y44970200D02*
X21935000Y44814200D01*
X24536130Y44970363D02*
G75*
G02*
X22454039Y44970200I-1041130J1079837D01*
G01*
X24536130Y47130037D02*
G75*
G03*
X22454039Y47130200I-1041130J-1079837D01*
G01*
X25167335Y44971592D02*
G75*
G02*
X21935000Y44814684I-1672335J1078608D01*
G01*
X25167335Y47128808D02*
G75*
G03*
X21935000Y47285716I-1672335J-1078608D01*
G01*
%TO.C,U4*%
X3750000Y12740200D02*
X3750000Y11490200D01*
X21650000Y12740200D02*
X3750000Y12740200D01*
X21650000Y8240200D02*
X21650000Y12740200D01*
X3750000Y8240200D02*
X21650000Y8240200D01*
X3750000Y9490200D02*
X3750000Y8240200D01*
X3750000Y11490200D02*
G75*
G02*
X3750000Y9490200I0J-1000000D01*
G01*
%TO.C,U5*%
X25340000Y12740200D02*
X25340000Y11490200D01*
X45780000Y12740200D02*
X25340000Y12740200D01*
X45780000Y8240200D02*
X45780000Y12740200D01*
X25340000Y8240200D02*
X45780000Y8240200D01*
X25340000Y9490200D02*
X25340000Y8240200D01*
X25340000Y11490200D02*
G75*
G02*
X25340000Y9490200I0J-1000000D01*
G01*
%TO.C,JP6*%
X41215000Y39005200D02*
X41215000Y40335200D01*
X42545000Y39005200D02*
X41215000Y39005200D01*
X41215000Y41605200D02*
X41215000Y44205200D01*
X43815000Y41605200D02*
X41215000Y41605200D01*
X43815000Y39005200D02*
X43815000Y41605200D01*
X41215000Y44205200D02*
X46415000Y44205200D01*
X43815000Y39005200D02*
X46415000Y39005200D01*
X46415000Y39005200D02*
X46415000Y44205200D01*
%TO.C,U3*%
X13910000Y23460200D02*
X13910000Y22210200D01*
X13910000Y22210200D02*
X31810000Y22210200D01*
X31810000Y22210200D02*
X31810000Y26710200D01*
X31810000Y26710200D02*
X13910000Y26710200D01*
X13910000Y26710200D02*
X13910000Y25460200D01*
X13910000Y25460200D02*
G75*
G02*
X13910000Y23460200I0J-1000000D01*
G01*
%TO.C,R1*%
X13870000Y33890200D02*
X14200000Y33890200D01*
X13870000Y40430200D02*
X13870000Y33890200D01*
X14200000Y40430200D02*
X13870000Y40430200D01*
X16610000Y33890200D02*
X16280000Y33890200D01*
X16610000Y40430200D02*
X16610000Y33890200D01*
X16280000Y40430200D02*
X16610000Y40430200D01*
%TO.C,R4*%
X26135000Y40430200D02*
X25805000Y40430200D01*
X26135000Y33890200D02*
X26135000Y40430200D01*
X25805000Y33890200D02*
X26135000Y33890200D01*
X23395000Y40430200D02*
X23725000Y40430200D01*
X23395000Y33890200D02*
X23395000Y40430200D01*
X23725000Y33890200D02*
X23395000Y33890200D01*
%TO.C,R3*%
X22960000Y40430200D02*
X22630000Y40430200D01*
X22960000Y33890200D02*
X22960000Y40430200D01*
X22630000Y33890200D02*
X22960000Y33890200D01*
X20220000Y40430200D02*
X20550000Y40430200D01*
X20220000Y33890200D02*
X20220000Y40430200D01*
X20550000Y33890200D02*
X20220000Y33890200D01*
%TO.C,JP5*%
X36135000Y46745200D02*
X37465000Y46745200D01*
X36135000Y45415200D02*
X36135000Y46745200D01*
X36135000Y44145200D02*
X38795000Y44145200D01*
X38795000Y44145200D02*
X38795000Y39005200D01*
X36135000Y44145200D02*
X36135000Y39005200D01*
X36135000Y39005200D02*
X38795000Y39005200D01*
%TO.C,JP4*%
X33595000Y46745200D02*
X34925000Y46745200D01*
X33595000Y45415200D02*
X33595000Y46745200D01*
X33595000Y44145200D02*
X36255000Y44145200D01*
X36255000Y44145200D02*
X36255000Y39005200D01*
X33595000Y44145200D02*
X33595000Y39005200D01*
X33595000Y39005200D02*
X36255000Y39005200D01*
%TO.C,JP3*%
X31055000Y46745200D02*
X32385000Y46745200D01*
X31055000Y45415200D02*
X31055000Y46745200D01*
X31055000Y44145200D02*
X33715000Y44145200D01*
X33715000Y44145200D02*
X33715000Y39005200D01*
X31055000Y44145200D02*
X31055000Y39005200D01*
X31055000Y39005200D02*
X33715000Y39005200D01*
%TO.C,JP2*%
X36135000Y36585200D02*
X37465000Y36585200D01*
X36135000Y35255200D02*
X36135000Y36585200D01*
X36135000Y33985200D02*
X38795000Y33985200D01*
X38795000Y33985200D02*
X38795000Y28845200D01*
X36135000Y33985200D02*
X36135000Y28845200D01*
X36135000Y28845200D02*
X38795000Y28845200D01*
%TO.C,JP1*%
X33595000Y36585200D02*
X34925000Y36585200D01*
X33595000Y35255200D02*
X33595000Y36585200D01*
X33595000Y33985200D02*
X36255000Y33985200D01*
X36255000Y33985200D02*
X36255000Y28845200D01*
X33595000Y33985200D02*
X33595000Y28845200D01*
X33595000Y28845200D02*
X36255000Y28845200D01*
%TO.C,D1*%
X14950000Y44970200D02*
X14950000Y44814200D01*
X14950000Y47286200D02*
X14950000Y47130200D01*
X17551130Y44970363D02*
G75*
G02*
X15469039Y44970200I-1041130J1079837D01*
G01*
X17551130Y47130037D02*
G75*
G03*
X15469039Y47130200I-1041130J-1079837D01*
G01*
X18182335Y44971592D02*
G75*
G02*
X14950000Y44814684I-1672335J1078608D01*
G01*
X18182335Y47128808D02*
G75*
G03*
X14950000Y47285716I-1672335J-1078608D01*
G01*
%TO.C,C3*%
X15861000Y29890200D02*
X17119000Y29890200D01*
X15861000Y31730200D02*
X17119000Y31730200D01*
%TO.C,C4*%
X5701000Y15920200D02*
X6959000Y15920200D01*
X5701000Y17760200D02*
X6959000Y17760200D01*
%TO.C,C5*%
X27291000Y15920200D02*
X28549000Y15920200D01*
X27291000Y17760200D02*
X28549000Y17760200D01*
%TO.C,C1*%
X59041000Y47035200D02*
X60299000Y47035200D01*
X59041000Y48875200D02*
X60299000Y48875200D01*
%TO.C,J1*%
X-60000Y270200D02*
X-60000Y1600200D01*
X1270000Y270200D02*
X-60000Y270200D01*
X2540000Y270200D02*
X2540000Y2930200D01*
X2540000Y2930200D02*
X99120000Y2930200D01*
X2540000Y270200D02*
X99120000Y270200D01*
X99120000Y270200D02*
X99120000Y2930200D01*
%TD*%
D10*
%TO.C,*%
X6630000Y33350200D02*
G75*
G03*
X6630000Y33350200I-1550000J0D01*
G01*
%TD*%
%TO.C,U1*%
D11*
X55542380Y34493296D02*
X56351904Y34493296D01*
X56447142Y34540915D01*
X56494761Y34588534D01*
X56542380Y34683772D01*
X56542380Y34874248D01*
X56494761Y34969486D01*
X56447142Y35017105D01*
X56351904Y35064724D01*
X55542380Y35064724D01*
X56542380Y36064724D02*
X56542380Y35493296D01*
X56542380Y35779010D02*
X55542380Y35779010D01*
X55685238Y35683772D01*
X55780476Y35588534D01*
X55828095Y35493296D01*
X81510476Y35326629D02*
X81843809Y35326629D01*
X81986666Y34802820D02*
X81510476Y34802820D01*
X81510476Y35802820D01*
X81986666Y35802820D01*
X82415238Y34802820D02*
X82415238Y35802820D01*
X82796190Y35802820D01*
X82891428Y35755200D01*
X82939047Y35707581D01*
X82986666Y35612343D01*
X82986666Y35469486D01*
X82939047Y35374248D01*
X82891428Y35326629D01*
X82796190Y35279010D01*
X82415238Y35279010D01*
X83986666Y34802820D02*
X83653333Y35279010D01*
X83415238Y34802820D02*
X83415238Y35802820D01*
X83796190Y35802820D01*
X83891428Y35755200D01*
X83939047Y35707581D01*
X83986666Y35612343D01*
X83986666Y35469486D01*
X83939047Y35374248D01*
X83891428Y35326629D01*
X83796190Y35279010D01*
X83415238Y35279010D01*
X84605714Y35802820D02*
X84796190Y35802820D01*
X84891428Y35755200D01*
X84986666Y35659962D01*
X85034285Y35469486D01*
X85034285Y35136153D01*
X84986666Y34945677D01*
X84891428Y34850439D01*
X84796190Y34802820D01*
X84605714Y34802820D01*
X84510476Y34850439D01*
X84415238Y34945677D01*
X84367619Y35136153D01*
X84367619Y35469486D01*
X84415238Y35659962D01*
X84510476Y35755200D01*
X84605714Y35802820D01*
X85462857Y34802820D02*
X85462857Y35802820D01*
X85796190Y35088534D01*
X86129523Y35802820D01*
X86129523Y34802820D01*
%TO.C,U2*%
X50462380Y13538296D02*
X51271904Y13538296D01*
X51367142Y13585915D01*
X51414761Y13633534D01*
X51462380Y13728772D01*
X51462380Y13919248D01*
X51414761Y14014486D01*
X51367142Y14062105D01*
X51271904Y14109724D01*
X50462380Y14109724D01*
X50557619Y14538296D02*
X50510000Y14585915D01*
X50462380Y14681153D01*
X50462380Y14919248D01*
X50510000Y15014486D01*
X50557619Y15062105D01*
X50652857Y15109724D01*
X50748095Y15109724D01*
X50890952Y15062105D01*
X51462380Y14490677D01*
X51462380Y15109724D01*
X78954761Y14133534D02*
X79430952Y14133534D01*
X78859523Y13847820D02*
X79192857Y14847820D01*
X79526190Y13847820D01*
X79811904Y13895439D02*
X79954761Y13847820D01*
X80192857Y13847820D01*
X80288095Y13895439D01*
X80335714Y13943058D01*
X80383333Y14038296D01*
X80383333Y14133534D01*
X80335714Y14228772D01*
X80288095Y14276391D01*
X80192857Y14324010D01*
X80002380Y14371629D01*
X79907142Y14419248D01*
X79859523Y14466867D01*
X79811904Y14562105D01*
X79811904Y14657343D01*
X79859523Y14752581D01*
X79907142Y14800200D01*
X80002380Y14847820D01*
X80240476Y14847820D01*
X80383333Y14800200D01*
X81240476Y14847820D02*
X81050000Y14847820D01*
X80954761Y14800200D01*
X80907142Y14752581D01*
X80811904Y14609724D01*
X80764285Y14419248D01*
X80764285Y14038296D01*
X80811904Y13943058D01*
X80859523Y13895439D01*
X80954761Y13847820D01*
X81145238Y13847820D01*
X81240476Y13895439D01*
X81288095Y13943058D01*
X81335714Y14038296D01*
X81335714Y14276391D01*
X81288095Y14371629D01*
X81240476Y14419248D01*
X81145238Y14466867D01*
X80954761Y14466867D01*
X80859523Y14419248D01*
X80811904Y14371629D01*
X80764285Y14276391D01*
X82335714Y13943058D02*
X82288095Y13895439D01*
X82145238Y13847820D01*
X82050000Y13847820D01*
X81907142Y13895439D01*
X81811904Y13990677D01*
X81764285Y14085915D01*
X81716666Y14276391D01*
X81716666Y14419248D01*
X81764285Y14609724D01*
X81811904Y14704962D01*
X81907142Y14800200D01*
X82050000Y14847820D01*
X82145238Y14847820D01*
X82288095Y14800200D01*
X82335714Y14752581D01*
X83288095Y13847820D02*
X82716666Y13847820D01*
X83002380Y13847820D02*
X83002380Y14847820D01*
X82907142Y14704962D01*
X82811904Y14609724D01*
X82716666Y14562105D01*
X83907142Y14847820D02*
X84002380Y14847820D01*
X84097619Y14800200D01*
X84145238Y14752581D01*
X84192857Y14657343D01*
X84240476Y14466867D01*
X84240476Y14228772D01*
X84192857Y14038296D01*
X84145238Y13943058D01*
X84097619Y13895439D01*
X84002380Y13847820D01*
X83907142Y13847820D01*
X83811904Y13895439D01*
X83764285Y13943058D01*
X83716666Y14038296D01*
X83669047Y14228772D01*
X83669047Y14466867D01*
X83716666Y14657343D01*
X83764285Y14752581D01*
X83811904Y14800200D01*
X83907142Y14847820D01*
X84859523Y14847820D02*
X84954761Y14847820D01*
X85050000Y14800200D01*
X85097619Y14752581D01*
X85145238Y14657343D01*
X85192857Y14466867D01*
X85192857Y14228772D01*
X85145238Y14038296D01*
X85097619Y13943058D01*
X85050000Y13895439D01*
X84954761Y13847820D01*
X84859523Y13847820D01*
X84764285Y13895439D01*
X84716666Y13943058D01*
X84669047Y14038296D01*
X84621428Y14228772D01*
X84621428Y14466867D01*
X84669047Y14657343D01*
X84716666Y14752581D01*
X84764285Y14800200D01*
X84859523Y14847820D01*
X85764285Y14419248D02*
X85669047Y14466867D01*
X85621428Y14514486D01*
X85573809Y14609724D01*
X85573809Y14657343D01*
X85621428Y14752581D01*
X85669047Y14800200D01*
X85764285Y14847820D01*
X85954761Y14847820D01*
X86050000Y14800200D01*
X86097619Y14752581D01*
X86145238Y14657343D01*
X86145238Y14609724D01*
X86097619Y14514486D01*
X86050000Y14466867D01*
X85954761Y14419248D01*
X85764285Y14419248D01*
X85669047Y14371629D01*
X85621428Y14324010D01*
X85573809Y14228772D01*
X85573809Y14038296D01*
X85621428Y13943058D01*
X85669047Y13895439D01*
X85764285Y13847820D01*
X85954761Y13847820D01*
X86050000Y13895439D01*
X86097619Y13943058D01*
X86145238Y14038296D01*
X86145238Y14228772D01*
X86097619Y14324010D01*
X86050000Y14371629D01*
X85954761Y14419248D01*
%TO.C,C2*%
X49252142Y20503534D02*
X49299761Y20455915D01*
X49347380Y20313058D01*
X49347380Y20217820D01*
X49299761Y20074962D01*
X49204523Y19979724D01*
X49109285Y19932105D01*
X48918809Y19884486D01*
X48775952Y19884486D01*
X48585476Y19932105D01*
X48490238Y19979724D01*
X48395000Y20074962D01*
X48347380Y20217820D01*
X48347380Y20313058D01*
X48395000Y20455915D01*
X48442619Y20503534D01*
X48442619Y20884486D02*
X48395000Y20932105D01*
X48347380Y21027343D01*
X48347380Y21265439D01*
X48395000Y21360677D01*
X48442619Y21408296D01*
X48537857Y21455915D01*
X48633095Y21455915D01*
X48775952Y21408296D01*
X49347380Y20836867D01*
X49347380Y21455915D01*
%TO.C,R2*%
X12533333Y37342820D02*
X12200000Y37819010D01*
X11961904Y37342820D02*
X11961904Y38342820D01*
X12342857Y38342820D01*
X12438095Y38295200D01*
X12485714Y38247581D01*
X12533333Y38152343D01*
X12533333Y38009486D01*
X12485714Y37914248D01*
X12438095Y37866629D01*
X12342857Y37819010D01*
X11961904Y37819010D01*
X12914285Y38247581D02*
X12961904Y38295200D01*
X13057142Y38342820D01*
X13295238Y38342820D01*
X13390476Y38295200D01*
X13438095Y38247581D01*
X13485714Y38152343D01*
X13485714Y38057105D01*
X13438095Y37914248D01*
X12866666Y37342820D01*
X13485714Y37342820D01*
X18200714Y35898296D02*
X18867380Y35898296D01*
X17819761Y35660200D02*
X18534047Y35422105D01*
X18534047Y36041153D01*
X17867380Y36326867D02*
X17867380Y36993534D01*
X18867380Y36564962D01*
X17867380Y37564962D02*
X17867380Y37660200D01*
X17915000Y37755439D01*
X17962619Y37803058D01*
X18057857Y37850677D01*
X18248333Y37898296D01*
X18486428Y37898296D01*
X18676904Y37850677D01*
X18772142Y37803058D01*
X18819761Y37755439D01*
X18867380Y37660200D01*
X18867380Y37564962D01*
X18819761Y37469724D01*
X18772142Y37422105D01*
X18676904Y37374486D01*
X18486428Y37326867D01*
X18248333Y37326867D01*
X18057857Y37374486D01*
X17962619Y37422105D01*
X17915000Y37469724D01*
X17867380Y37564962D01*
X18867380Y38898296D02*
X18391190Y38564962D01*
X18867380Y38326867D02*
X17867380Y38326867D01*
X17867380Y38707820D01*
X17915000Y38803058D01*
X17962619Y38850677D01*
X18057857Y38898296D01*
X18200714Y38898296D01*
X18295952Y38850677D01*
X18343571Y38803058D01*
X18391190Y38707820D01*
X18391190Y38326867D01*
%TO.C,D2*%
X22756904Y48557820D02*
X22756904Y49557820D01*
X22995000Y49557820D01*
X23137857Y49510200D01*
X23233095Y49414962D01*
X23280714Y49319724D01*
X23328333Y49129248D01*
X23328333Y48986391D01*
X23280714Y48795915D01*
X23233095Y48700677D01*
X23137857Y48605439D01*
X22995000Y48557820D01*
X22756904Y48557820D01*
X23709285Y49462581D02*
X23756904Y49510200D01*
X23852142Y49557820D01*
X24090238Y49557820D01*
X24185476Y49510200D01*
X24233095Y49462581D01*
X24280714Y49367343D01*
X24280714Y49272105D01*
X24233095Y49129248D01*
X23661666Y48557820D01*
X24280714Y48557820D01*
%TO.C,U4*%
X2202380Y9728296D02*
X3011904Y9728296D01*
X3107142Y9775915D01*
X3154761Y9823534D01*
X3202380Y9918772D01*
X3202380Y10109248D01*
X3154761Y10204486D01*
X3107142Y10252105D01*
X3011904Y10299724D01*
X2202380Y10299724D01*
X2535714Y11204486D02*
X3202380Y11204486D01*
X2154761Y10966391D02*
X2869047Y10728296D01*
X2869047Y11347343D01*
X9533333Y11037820D02*
X10200000Y11037820D01*
X9771428Y10037820D01*
X11009523Y10704486D02*
X11009523Y10037820D01*
X10771428Y11085439D02*
X10533333Y10371153D01*
X11152380Y10371153D01*
X11533333Y10037820D02*
X11533333Y11037820D01*
X11533333Y10561629D02*
X12104761Y10561629D01*
X12104761Y10037820D02*
X12104761Y11037820D01*
X13152380Y10133058D02*
X13104761Y10085439D01*
X12961904Y10037820D01*
X12866666Y10037820D01*
X12723809Y10085439D01*
X12628571Y10180677D01*
X12580952Y10275915D01*
X12533333Y10466391D01*
X12533333Y10609248D01*
X12580952Y10799724D01*
X12628571Y10894962D01*
X12723809Y10990200D01*
X12866666Y11037820D01*
X12961904Y11037820D01*
X13104761Y10990200D01*
X13152380Y10942581D01*
X13438095Y11037820D02*
X14009523Y11037820D01*
X13723809Y10037820D02*
X13723809Y11037820D01*
X14247619Y11037820D02*
X14914285Y11037820D01*
X14485714Y10037820D01*
X15723809Y10704486D02*
X15723809Y10037820D01*
X15485714Y11085439D02*
X15247619Y10371153D01*
X15866666Y10371153D01*
%TO.C,U5*%
X23792380Y9728296D02*
X24601904Y9728296D01*
X24697142Y9775915D01*
X24744761Y9823534D01*
X24792380Y9918772D01*
X24792380Y10109248D01*
X24744761Y10204486D01*
X24697142Y10252105D01*
X24601904Y10299724D01*
X23792380Y10299724D01*
X23792380Y11252105D02*
X23792380Y10775915D01*
X24268571Y10728296D01*
X24220952Y10775915D01*
X24173333Y10871153D01*
X24173333Y11109248D01*
X24220952Y11204486D01*
X24268571Y11252105D01*
X24363809Y11299724D01*
X24601904Y11299724D01*
X24697142Y11252105D01*
X24744761Y11204486D01*
X24792380Y11109248D01*
X24792380Y10871153D01*
X24744761Y10775915D01*
X24697142Y10728296D01*
X31917142Y11037820D02*
X32583809Y11037820D01*
X32155238Y10037820D01*
X33393333Y10704486D02*
X33393333Y10037820D01*
X33155238Y11085439D02*
X32917142Y10371153D01*
X33536190Y10371153D01*
X33917142Y10037820D02*
X33917142Y11037820D01*
X33917142Y10561629D02*
X34488571Y10561629D01*
X34488571Y10037820D02*
X34488571Y11037820D01*
X35536190Y10133058D02*
X35488571Y10085439D01*
X35345714Y10037820D01*
X35250476Y10037820D01*
X35107619Y10085439D01*
X35012380Y10180677D01*
X34964761Y10275915D01*
X34917142Y10466391D01*
X34917142Y10609248D01*
X34964761Y10799724D01*
X35012380Y10894962D01*
X35107619Y10990200D01*
X35250476Y11037820D01*
X35345714Y11037820D01*
X35488571Y10990200D01*
X35536190Y10942581D01*
X35821904Y11037820D02*
X36393333Y11037820D01*
X36107619Y10037820D02*
X36107619Y11037820D01*
X37250476Y10037820D02*
X36679047Y10037820D01*
X36964761Y10037820D02*
X36964761Y11037820D01*
X36869523Y10894962D01*
X36774285Y10799724D01*
X36679047Y10752105D01*
X37583809Y11037820D02*
X38202857Y11037820D01*
X37869523Y10656867D01*
X38012380Y10656867D01*
X38107619Y10609248D01*
X38155238Y10561629D01*
X38202857Y10466391D01*
X38202857Y10228296D01*
X38155238Y10133058D01*
X38107619Y10085439D01*
X38012380Y10037820D01*
X37726666Y10037820D01*
X37631428Y10085439D01*
X37583809Y10133058D01*
X38774285Y10609248D02*
X38679047Y10656867D01*
X38631428Y10704486D01*
X38583809Y10799724D01*
X38583809Y10847343D01*
X38631428Y10942581D01*
X38679047Y10990200D01*
X38774285Y11037820D01*
X38964761Y11037820D01*
X39060000Y10990200D01*
X39107619Y10942581D01*
X39155238Y10847343D01*
X39155238Y10799724D01*
X39107619Y10704486D01*
X39060000Y10656867D01*
X38964761Y10609248D01*
X38774285Y10609248D01*
X38679047Y10561629D01*
X38631428Y10514010D01*
X38583809Y10418772D01*
X38583809Y10228296D01*
X38631428Y10133058D01*
X38679047Y10085439D01*
X38774285Y10037820D01*
X38964761Y10037820D01*
X39060000Y10085439D01*
X39107619Y10133058D01*
X39155238Y10228296D01*
X39155238Y10418772D01*
X39107619Y10514010D01*
X39060000Y10561629D01*
X38964761Y10609248D01*
%TO.C,JP6*%
X42981666Y45708820D02*
X42981666Y44994534D01*
X42934047Y44851677D01*
X42838809Y44756439D01*
X42695952Y44708820D01*
X42600714Y44708820D01*
X43457857Y44708820D02*
X43457857Y45708820D01*
X43838809Y45708820D01*
X43934047Y45661200D01*
X43981666Y45613581D01*
X44029285Y45518343D01*
X44029285Y45375486D01*
X43981666Y45280248D01*
X43934047Y45232629D01*
X43838809Y45185010D01*
X43457857Y45185010D01*
X44886428Y45708820D02*
X44695952Y45708820D01*
X44600714Y45661200D01*
X44553095Y45613581D01*
X44457857Y45470724D01*
X44410238Y45280248D01*
X44410238Y44899296D01*
X44457857Y44804058D01*
X44505476Y44756439D01*
X44600714Y44708820D01*
X44791190Y44708820D01*
X44886428Y44756439D01*
X44934047Y44804058D01*
X44981666Y44899296D01*
X44981666Y45137391D01*
X44934047Y45232629D01*
X44886428Y45280248D01*
X44791190Y45327867D01*
X44600714Y45327867D01*
X44505476Y45280248D01*
X44457857Y45232629D01*
X44410238Y45137391D01*
%TO.C,U3*%
X12362380Y23698296D02*
X13171904Y23698296D01*
X13267142Y23745915D01*
X13314761Y23793534D01*
X13362380Y23888772D01*
X13362380Y24079248D01*
X13314761Y24174486D01*
X13267142Y24222105D01*
X13171904Y24269724D01*
X12362380Y24269724D01*
X12362380Y24650677D02*
X12362380Y25269724D01*
X12743333Y24936391D01*
X12743333Y25079248D01*
X12790952Y25174486D01*
X12838571Y25222105D01*
X12933809Y25269724D01*
X13171904Y25269724D01*
X13267142Y25222105D01*
X13314761Y25174486D01*
X13362380Y25079248D01*
X13362380Y24793534D01*
X13314761Y24698296D01*
X13267142Y24650677D01*
X18740952Y25007820D02*
X19407619Y25007820D01*
X18979047Y24007820D01*
X20217142Y24674486D02*
X20217142Y24007820D01*
X19979047Y25055439D02*
X19740952Y24341153D01*
X20360000Y24341153D01*
X20740952Y24007820D02*
X20740952Y25007820D01*
X20740952Y24531629D02*
X21312380Y24531629D01*
X21312380Y24007820D02*
X21312380Y25007820D01*
X22360000Y24103058D02*
X22312380Y24055439D01*
X22169523Y24007820D01*
X22074285Y24007820D01*
X21931428Y24055439D01*
X21836190Y24150677D01*
X21788571Y24245915D01*
X21740952Y24436391D01*
X21740952Y24579248D01*
X21788571Y24769724D01*
X21836190Y24864962D01*
X21931428Y24960200D01*
X22074285Y25007820D01*
X22169523Y25007820D01*
X22312380Y24960200D01*
X22360000Y24912581D01*
X22645714Y25007820D02*
X23217142Y25007820D01*
X22931428Y24007820D02*
X22931428Y25007820D01*
X23979047Y24674486D02*
X23979047Y24007820D01*
X23740952Y25055439D02*
X23502857Y24341153D01*
X24121904Y24341153D01*
X24693333Y25007820D02*
X24788571Y25007820D01*
X24883809Y24960200D01*
X24931428Y24912581D01*
X24979047Y24817343D01*
X25026666Y24626867D01*
X25026666Y24388772D01*
X24979047Y24198296D01*
X24931428Y24103058D01*
X24883809Y24055439D01*
X24788571Y24007820D01*
X24693333Y24007820D01*
X24598095Y24055439D01*
X24550476Y24103058D01*
X24502857Y24198296D01*
X24455238Y24388772D01*
X24455238Y24626867D01*
X24502857Y24817343D01*
X24550476Y24912581D01*
X24598095Y24960200D01*
X24693333Y25007820D01*
X25360000Y25007820D02*
X26026666Y25007820D01*
X25598095Y24007820D01*
X26883809Y25007820D02*
X26407619Y25007820D01*
X26360000Y24531629D01*
X26407619Y24579248D01*
X26502857Y24626867D01*
X26740952Y24626867D01*
X26836190Y24579248D01*
X26883809Y24531629D01*
X26931428Y24436391D01*
X26931428Y24198296D01*
X26883809Y24103058D01*
X26836190Y24055439D01*
X26740952Y24007820D01*
X26502857Y24007820D01*
X26407619Y24055439D01*
X26360000Y24103058D01*
%TO.C,R1*%
X12533333Y38612820D02*
X12200000Y39089010D01*
X11961904Y38612820D02*
X11961904Y39612820D01*
X12342857Y39612820D01*
X12438095Y39565200D01*
X12485714Y39517581D01*
X12533333Y39422343D01*
X12533333Y39279486D01*
X12485714Y39184248D01*
X12438095Y39136629D01*
X12342857Y39089010D01*
X11961904Y39089010D01*
X13485714Y38612820D02*
X12914285Y38612820D01*
X13200000Y38612820D02*
X13200000Y39612820D01*
X13104761Y39469962D01*
X13009523Y39374724D01*
X12914285Y39327105D01*
X15025714Y35898296D02*
X15692380Y35898296D01*
X14644761Y35660200D02*
X15359047Y35422105D01*
X15359047Y36041153D01*
X14692380Y36326867D02*
X14692380Y36993534D01*
X15692380Y36564962D01*
X14692380Y37564962D02*
X14692380Y37660200D01*
X14740000Y37755439D01*
X14787619Y37803058D01*
X14882857Y37850677D01*
X15073333Y37898296D01*
X15311428Y37898296D01*
X15501904Y37850677D01*
X15597142Y37803058D01*
X15644761Y37755439D01*
X15692380Y37660200D01*
X15692380Y37564962D01*
X15644761Y37469724D01*
X15597142Y37422105D01*
X15501904Y37374486D01*
X15311428Y37326867D01*
X15073333Y37326867D01*
X14882857Y37374486D01*
X14787619Y37422105D01*
X14740000Y37469724D01*
X14692380Y37564962D01*
X15692380Y38898296D02*
X15216190Y38564962D01*
X15692380Y38326867D02*
X14692380Y38326867D01*
X14692380Y38707820D01*
X14740000Y38803058D01*
X14787619Y38850677D01*
X14882857Y38898296D01*
X15025714Y38898296D01*
X15120952Y38850677D01*
X15168571Y38803058D01*
X15216190Y38707820D01*
X15216190Y38326867D01*
%TO.C,R4*%
X12533333Y34802820D02*
X12200000Y35279010D01*
X11961904Y34802820D02*
X11961904Y35802820D01*
X12342857Y35802820D01*
X12438095Y35755200D01*
X12485714Y35707581D01*
X12533333Y35612343D01*
X12533333Y35469486D01*
X12485714Y35374248D01*
X12438095Y35326629D01*
X12342857Y35279010D01*
X11961904Y35279010D01*
X13390476Y35469486D02*
X13390476Y34802820D01*
X13152380Y35850439D02*
X12914285Y35136153D01*
X13533333Y35136153D01*
X25217380Y36564962D02*
X25217380Y35993534D01*
X25217380Y36279248D02*
X24217380Y36279248D01*
X24360238Y36184010D01*
X24455476Y36088772D01*
X24503095Y35993534D01*
X24217380Y37184010D02*
X24217380Y37279248D01*
X24265000Y37374486D01*
X24312619Y37422105D01*
X24407857Y37469724D01*
X24598333Y37517343D01*
X24836428Y37517343D01*
X25026904Y37469724D01*
X25122142Y37422105D01*
X25169761Y37374486D01*
X25217380Y37279248D01*
X25217380Y37184010D01*
X25169761Y37088772D01*
X25122142Y37041153D01*
X25026904Y36993534D01*
X24836428Y36945915D01*
X24598333Y36945915D01*
X24407857Y36993534D01*
X24312619Y37041153D01*
X24265000Y37088772D01*
X24217380Y37184010D01*
X25217380Y37945915D02*
X24217380Y37945915D01*
X24836428Y38041153D02*
X25217380Y38326867D01*
X24550714Y38326867D02*
X24931666Y37945915D01*
%TO.C,R3*%
X12533333Y36072820D02*
X12200000Y36549010D01*
X11961904Y36072820D02*
X11961904Y37072820D01*
X12342857Y37072820D01*
X12438095Y37025200D01*
X12485714Y36977581D01*
X12533333Y36882343D01*
X12533333Y36739486D01*
X12485714Y36644248D01*
X12438095Y36596629D01*
X12342857Y36549010D01*
X11961904Y36549010D01*
X12866666Y37072820D02*
X13485714Y37072820D01*
X13152380Y36691867D01*
X13295238Y36691867D01*
X13390476Y36644248D01*
X13438095Y36596629D01*
X13485714Y36501391D01*
X13485714Y36263296D01*
X13438095Y36168058D01*
X13390476Y36120439D01*
X13295238Y36072820D01*
X13009523Y36072820D01*
X12914285Y36120439D01*
X12866666Y36168058D01*
X22042380Y36564962D02*
X22042380Y35993534D01*
X22042380Y36279248D02*
X21042380Y36279248D01*
X21185238Y36184010D01*
X21280476Y36088772D01*
X21328095Y35993534D01*
X21042380Y37184010D02*
X21042380Y37279248D01*
X21090000Y37374486D01*
X21137619Y37422105D01*
X21232857Y37469724D01*
X21423333Y37517343D01*
X21661428Y37517343D01*
X21851904Y37469724D01*
X21947142Y37422105D01*
X21994761Y37374486D01*
X22042380Y37279248D01*
X22042380Y37184010D01*
X21994761Y37088772D01*
X21947142Y37041153D01*
X21851904Y36993534D01*
X21661428Y36945915D01*
X21423333Y36945915D01*
X21232857Y36993534D01*
X21137619Y37041153D01*
X21090000Y37088772D01*
X21042380Y37184010D01*
X22042380Y37945915D02*
X21042380Y37945915D01*
X21661428Y38041153D02*
X22042380Y38326867D01*
X21375714Y38326867D02*
X21756666Y37945915D01*
%TO.C,JP5*%
X29011666Y35167820D02*
X29011666Y34453534D01*
X28964047Y34310677D01*
X28868809Y34215439D01*
X28725952Y34167820D01*
X28630714Y34167820D01*
X29487857Y34167820D02*
X29487857Y35167820D01*
X29868809Y35167820D01*
X29964047Y35120200D01*
X30011666Y35072581D01*
X30059285Y34977343D01*
X30059285Y34834486D01*
X30011666Y34739248D01*
X29964047Y34691629D01*
X29868809Y34644010D01*
X29487857Y34644010D01*
X30964047Y35167820D02*
X30487857Y35167820D01*
X30440238Y34691629D01*
X30487857Y34739248D01*
X30583095Y34786867D01*
X30821190Y34786867D01*
X30916428Y34739248D01*
X30964047Y34691629D01*
X31011666Y34596391D01*
X31011666Y34358296D01*
X30964047Y34263058D01*
X30916428Y34215439D01*
X30821190Y34167820D01*
X30583095Y34167820D01*
X30487857Y34215439D01*
X30440238Y34263058D01*
%TO.C,JP4*%
X29011666Y36437820D02*
X29011666Y35723534D01*
X28964047Y35580677D01*
X28868809Y35485439D01*
X28725952Y35437820D01*
X28630714Y35437820D01*
X29487857Y35437820D02*
X29487857Y36437820D01*
X29868809Y36437820D01*
X29964047Y36390200D01*
X30011666Y36342581D01*
X30059285Y36247343D01*
X30059285Y36104486D01*
X30011666Y36009248D01*
X29964047Y35961629D01*
X29868809Y35914010D01*
X29487857Y35914010D01*
X30916428Y36104486D02*
X30916428Y35437820D01*
X30678333Y36485439D02*
X30440238Y35771153D01*
X31059285Y35771153D01*
%TO.C,JP3*%
X29011666Y37707820D02*
X29011666Y36993534D01*
X28964047Y36850677D01*
X28868809Y36755439D01*
X28725952Y36707820D01*
X28630714Y36707820D01*
X29487857Y36707820D02*
X29487857Y37707820D01*
X29868809Y37707820D01*
X29964047Y37660200D01*
X30011666Y37612581D01*
X30059285Y37517343D01*
X30059285Y37374486D01*
X30011666Y37279248D01*
X29964047Y37231629D01*
X29868809Y37184010D01*
X29487857Y37184010D01*
X30392619Y37707820D02*
X31011666Y37707820D01*
X30678333Y37326867D01*
X30821190Y37326867D01*
X30916428Y37279248D01*
X30964047Y37231629D01*
X31011666Y37136391D01*
X31011666Y36898296D01*
X30964047Y36803058D01*
X30916428Y36755439D01*
X30821190Y36707820D01*
X30535476Y36707820D01*
X30440238Y36755439D01*
X30392619Y36803058D01*
%TO.C,JP2*%
X29011666Y31357820D02*
X29011666Y30643534D01*
X28964047Y30500677D01*
X28868809Y30405439D01*
X28725952Y30357820D01*
X28630714Y30357820D01*
X29487857Y30357820D02*
X29487857Y31357820D01*
X29868809Y31357820D01*
X29964047Y31310200D01*
X30011666Y31262581D01*
X30059285Y31167343D01*
X30059285Y31024486D01*
X30011666Y30929248D01*
X29964047Y30881629D01*
X29868809Y30834010D01*
X29487857Y30834010D01*
X30440238Y31262581D02*
X30487857Y31310200D01*
X30583095Y31357820D01*
X30821190Y31357820D01*
X30916428Y31310200D01*
X30964047Y31262581D01*
X31011666Y31167343D01*
X31011666Y31072105D01*
X30964047Y30929248D01*
X30392619Y30357820D01*
X31011666Y30357820D01*
%TO.C,JP1*%
X29011666Y32627820D02*
X29011666Y31913534D01*
X28964047Y31770677D01*
X28868809Y31675439D01*
X28725952Y31627820D01*
X28630714Y31627820D01*
X29487857Y31627820D02*
X29487857Y32627820D01*
X29868809Y32627820D01*
X29964047Y32580200D01*
X30011666Y32532581D01*
X30059285Y32437343D01*
X30059285Y32294486D01*
X30011666Y32199248D01*
X29964047Y32151629D01*
X29868809Y32104010D01*
X29487857Y32104010D01*
X31011666Y31627820D02*
X30440238Y31627820D01*
X30725952Y31627820D02*
X30725952Y32627820D01*
X30630714Y32484962D01*
X30535476Y32389724D01*
X30440238Y32342105D01*
%TO.C,D1*%
X15771904Y48557820D02*
X15771904Y49557820D01*
X16010000Y49557820D01*
X16152857Y49510200D01*
X16248095Y49414962D01*
X16295714Y49319724D01*
X16343333Y49129248D01*
X16343333Y48986391D01*
X16295714Y48795915D01*
X16248095Y48700677D01*
X16152857Y48605439D01*
X16010000Y48557820D01*
X15771904Y48557820D01*
X17295714Y48557820D02*
X16724285Y48557820D01*
X17010000Y48557820D02*
X17010000Y49557820D01*
X16914761Y49414962D01*
X16819523Y49319724D01*
X16724285Y49272105D01*
%TO.C,C3*%
X19645333Y30453058D02*
X19597714Y30405439D01*
X19454857Y30357820D01*
X19359619Y30357820D01*
X19216761Y30405439D01*
X19121523Y30500677D01*
X19073904Y30595915D01*
X19026285Y30786391D01*
X19026285Y30929248D01*
X19073904Y31119724D01*
X19121523Y31214962D01*
X19216761Y31310200D01*
X19359619Y31357820D01*
X19454857Y31357820D01*
X19597714Y31310200D01*
X19645333Y31262581D01*
X19978666Y31357820D02*
X20597714Y31357820D01*
X20264380Y30976867D01*
X20407238Y30976867D01*
X20502476Y30929248D01*
X20550095Y30881629D01*
X20597714Y30786391D01*
X20597714Y30548296D01*
X20550095Y30453058D01*
X20502476Y30405439D01*
X20407238Y30357820D01*
X20121523Y30357820D01*
X20026285Y30405439D01*
X19978666Y30453058D01*
%TO.C,C4*%
X9485333Y16483058D02*
X9437714Y16435439D01*
X9294857Y16387820D01*
X9199619Y16387820D01*
X9056761Y16435439D01*
X8961523Y16530677D01*
X8913904Y16625915D01*
X8866285Y16816391D01*
X8866285Y16959248D01*
X8913904Y17149724D01*
X8961523Y17244962D01*
X9056761Y17340200D01*
X9199619Y17387820D01*
X9294857Y17387820D01*
X9437714Y17340200D01*
X9485333Y17292581D01*
X10342476Y17054486D02*
X10342476Y16387820D01*
X10104380Y17435439D02*
X9866285Y16721153D01*
X10485333Y16721153D01*
%TO.C,C5*%
X31075333Y16483058D02*
X31027714Y16435439D01*
X30884857Y16387820D01*
X30789619Y16387820D01*
X30646761Y16435439D01*
X30551523Y16530677D01*
X30503904Y16625915D01*
X30456285Y16816391D01*
X30456285Y16959248D01*
X30503904Y17149724D01*
X30551523Y17244962D01*
X30646761Y17340200D01*
X30789619Y17387820D01*
X30884857Y17387820D01*
X31027714Y17340200D01*
X31075333Y17292581D01*
X31980095Y17387820D02*
X31503904Y17387820D01*
X31456285Y16911629D01*
X31503904Y16959248D01*
X31599142Y17006867D01*
X31837238Y17006867D01*
X31932476Y16959248D01*
X31980095Y16911629D01*
X32027714Y16816391D01*
X32027714Y16578296D01*
X31980095Y16483058D01*
X31932476Y16435439D01*
X31837238Y16387820D01*
X31599142Y16387820D01*
X31503904Y16435439D01*
X31456285Y16483058D01*
%TO.C,C1*%
X59523333Y45693058D02*
X59475714Y45645439D01*
X59332857Y45597820D01*
X59237619Y45597820D01*
X59094761Y45645439D01*
X58999523Y45740677D01*
X58951904Y45835915D01*
X58904285Y46026391D01*
X58904285Y46169248D01*
X58951904Y46359724D01*
X58999523Y46454962D01*
X59094761Y46550200D01*
X59237619Y46597820D01*
X59332857Y46597820D01*
X59475714Y46550200D01*
X59523333Y46502581D01*
X60475714Y45597820D02*
X59904285Y45597820D01*
X60190000Y45597820D02*
X60190000Y46597820D01*
X60094761Y46454962D01*
X59999523Y46359724D01*
X59904285Y46312105D01*
%TD*%
M02*
