%TF.GenerationSoftware,KiCad,Pcbnew,(5.1.9)-1*%
%TF.CreationDate,2021-01-24T02:40:07-08:00*%
%TF.ProjectId,rc-ramrom,72632d72-616d-4726-9f6d-2e6b69636164,rev?*%
%TF.SameCoordinates,PX9157080PY9071968*%
%TF.FileFunction,Soldermask,Top*%
%TF.FilePolarity,Negative*%
%FSLAX46Y46*%
G04 Gerber Fmt 4.6, Leading zero omitted, Abs format (unit mm)*
G04 Created by KiCad (PCBNEW (5.1.9)-1) date 2021-01-24 02:40:07*
%MOMM*%
%LPD*%
G01*
G04 APERTURE LIST*
%ADD10O,1.600000X2.400000*%
%ADD11C,1.600000*%
%ADD12O,1.600000X1.600000*%
%ADD13C,1.800000*%
%ADD14O,1.700000X1.700000*%
%ADD15C,3.200000*%
G04 APERTURE END LIST*
D10*
%TO.C,U1*%
X58420000Y42875200D03*
X91440000Y27635200D03*
X60960000Y42875200D03*
X88900000Y27635200D03*
X63500000Y42875200D03*
X86360000Y27635200D03*
X66040000Y42875200D03*
X83820000Y27635200D03*
X68580000Y42875200D03*
X81280000Y27635200D03*
X71120000Y42875200D03*
X78740000Y27635200D03*
X73660000Y42875200D03*
X76200000Y27635200D03*
X76200000Y42875200D03*
X73660000Y27635200D03*
X78740000Y42875200D03*
X71120000Y27635200D03*
X81280000Y42875200D03*
X68580000Y27635200D03*
X83820000Y42875200D03*
X66040000Y27635200D03*
X86360000Y42875200D03*
X63500000Y27635200D03*
X88900000Y42875200D03*
X60960000Y27635200D03*
X91440000Y42875200D03*
G36*
G01*
X58820000Y26435200D02*
X58020000Y26435200D01*
G75*
G02*
X57620000Y26835200I0J400000D01*
G01*
X57620000Y28435200D01*
G75*
G02*
X58020000Y28835200I400000J0D01*
G01*
X58820000Y28835200D01*
G75*
G02*
X59220000Y28435200I0J-400000D01*
G01*
X59220000Y26835200D01*
G75*
G02*
X58820000Y26435200I-400000J0D01*
G01*
G37*
%TD*%
%TO.C,U2*%
X53340000Y21920200D03*
X91440000Y6680200D03*
X55880000Y21920200D03*
X88900000Y6680200D03*
X58420000Y21920200D03*
X86360000Y6680200D03*
X60960000Y21920200D03*
X83820000Y6680200D03*
X63500000Y21920200D03*
X81280000Y6680200D03*
X66040000Y21920200D03*
X78740000Y6680200D03*
X68580000Y21920200D03*
X76200000Y6680200D03*
X71120000Y21920200D03*
X73660000Y6680200D03*
X73660000Y21920200D03*
X71120000Y6680200D03*
X76200000Y21920200D03*
X68580000Y6680200D03*
X78740000Y21920200D03*
X66040000Y6680200D03*
X81280000Y21920200D03*
X63500000Y6680200D03*
X83820000Y21920200D03*
X60960000Y6680200D03*
X86360000Y21920200D03*
X58420000Y6680200D03*
X88900000Y21920200D03*
X55880000Y6680200D03*
X91440000Y21920200D03*
G36*
G01*
X53740000Y5480200D02*
X52940000Y5480200D01*
G75*
G02*
X52540000Y5880200I0J400000D01*
G01*
X52540000Y7480200D01*
G75*
G02*
X52940000Y7880200I400000J0D01*
G01*
X53740000Y7880200D01*
G75*
G02*
X54140000Y7480200I0J-400000D01*
G01*
X54140000Y5880200D01*
G75*
G02*
X53740000Y5480200I-400000J0D01*
G01*
G37*
%TD*%
D11*
%TO.C,C2*%
X50800000Y19420200D03*
X50800000Y21920200D03*
%TD*%
D12*
%TO.C,R2*%
X18415000Y40970200D03*
D11*
X18415000Y33350200D03*
%TD*%
D13*
%TO.C,D2*%
X24765000Y46050200D03*
G36*
G01*
X21325000Y45600200D02*
X21325000Y46500200D01*
G75*
G02*
X21775000Y46950200I450000J0D01*
G01*
X22675000Y46950200D01*
G75*
G02*
X23125000Y46500200I0J-450000D01*
G01*
X23125000Y45600200D01*
G75*
G02*
X22675000Y45150200I-450000J0D01*
G01*
X21775000Y45150200D01*
G75*
G02*
X21325000Y45600200I0J450000D01*
G01*
G37*
%TD*%
D10*
%TO.C,U4*%
X5080000Y14300200D03*
X20320000Y6680200D03*
X7620000Y14300200D03*
X17780000Y6680200D03*
X10160000Y14300200D03*
X15240000Y6680200D03*
X12700000Y14300200D03*
X12700000Y6680200D03*
X15240000Y14300200D03*
X10160000Y6680200D03*
X17780000Y14300200D03*
X7620000Y6680200D03*
X20320000Y14300200D03*
G36*
G01*
X5480000Y5480200D02*
X4680000Y5480200D01*
G75*
G02*
X4280000Y5880200I0J400000D01*
G01*
X4280000Y7480200D01*
G75*
G02*
X4680000Y7880200I400000J0D01*
G01*
X5480000Y7880200D01*
G75*
G02*
X5880000Y7480200I0J-400000D01*
G01*
X5880000Y5880200D01*
G75*
G02*
X5480000Y5480200I-400000J0D01*
G01*
G37*
%TD*%
%TO.C,U5*%
X26670000Y14300200D03*
X44450000Y6680200D03*
X29210000Y14300200D03*
X41910000Y6680200D03*
X31750000Y14300200D03*
X39370000Y6680200D03*
X34290000Y14300200D03*
X36830000Y6680200D03*
X36830000Y14300200D03*
X34290000Y6680200D03*
X39370000Y14300200D03*
X31750000Y6680200D03*
X41910000Y14300200D03*
X29210000Y6680200D03*
X44450000Y14300200D03*
G36*
G01*
X27070000Y5480200D02*
X26270000Y5480200D01*
G75*
G02*
X25870000Y5880200I0J400000D01*
G01*
X25870000Y7480200D01*
G75*
G02*
X26270000Y7880200I400000J0D01*
G01*
X27070000Y7880200D01*
G75*
G02*
X27470000Y7480200I0J-400000D01*
G01*
X27470000Y5880200D01*
G75*
G02*
X27070000Y5480200I-400000J0D01*
G01*
G37*
%TD*%
D14*
%TO.C,JP6*%
X45085000Y42875200D03*
X45085000Y40335200D03*
X42545000Y42875200D03*
X42545000Y40335200D03*
%TD*%
%TO.C,U3*%
G36*
G01*
X15640000Y19450200D02*
X14840000Y19450200D01*
G75*
G02*
X14440000Y19850200I0J400000D01*
G01*
X14440000Y21450200D01*
G75*
G02*
X14840000Y21850200I400000J0D01*
G01*
X15640000Y21850200D01*
G75*
G02*
X16040000Y21450200I0J-400000D01*
G01*
X16040000Y19850200D01*
G75*
G02*
X15640000Y19450200I-400000J0D01*
G01*
G37*
D10*
X30480000Y28270200D03*
X17780000Y20650200D03*
X27940000Y28270200D03*
X20320000Y20650200D03*
X25400000Y28270200D03*
X22860000Y20650200D03*
X22860000Y28270200D03*
X25400000Y20650200D03*
X20320000Y28270200D03*
X27940000Y20650200D03*
X17780000Y28270200D03*
X30480000Y20650200D03*
X15240000Y28270200D03*
%TD*%
D12*
%TO.C,R1*%
X15240000Y33350200D03*
D11*
X15240000Y40970200D03*
%TD*%
D12*
%TO.C,R4*%
X24765000Y40970200D03*
D11*
X24765000Y33350200D03*
%TD*%
D12*
%TO.C,R3*%
X21590000Y40970200D03*
D11*
X21590000Y33350200D03*
%TD*%
D14*
%TO.C,JP5*%
X37465000Y40335200D03*
X37465000Y42875200D03*
X37465000Y45415200D03*
%TD*%
%TO.C,JP4*%
X34925000Y40335200D03*
X34925000Y42875200D03*
X34925000Y45415200D03*
%TD*%
%TO.C,JP3*%
X32385000Y40335200D03*
X32385000Y42875200D03*
X32385000Y45415200D03*
%TD*%
%TO.C,JP2*%
X37465000Y30175200D03*
X37465000Y32715200D03*
X37465000Y35255200D03*
%TD*%
%TO.C,JP1*%
X34925000Y30175200D03*
X34925000Y32715200D03*
X34925000Y35255200D03*
%TD*%
D13*
%TO.C,D1*%
X17780000Y46050200D03*
G36*
G01*
X14340000Y45600200D02*
X14340000Y46500200D01*
G75*
G02*
X14790000Y46950200I450000J0D01*
G01*
X15690000Y46950200D01*
G75*
G02*
X16140000Y46500200I0J-450000D01*
G01*
X16140000Y45600200D01*
G75*
G02*
X15690000Y45150200I-450000J0D01*
G01*
X14790000Y45150200D01*
G75*
G02*
X14340000Y45600200I0J450000D01*
G01*
G37*
%TD*%
D11*
%TO.C,C3*%
X17740000Y30810200D03*
X15240000Y30810200D03*
%TD*%
%TO.C,C4*%
X7580000Y16840200D03*
X5080000Y16840200D03*
%TD*%
%TO.C,C5*%
X29170000Y16840200D03*
X26670000Y16840200D03*
%TD*%
%TO.C,C1*%
X60920000Y47955200D03*
X58420000Y47955200D03*
%TD*%
D14*
%TO.C,J1*%
X97790000Y1600200D03*
X95250000Y1600200D03*
X92710000Y1600200D03*
X90170000Y1600200D03*
X87630000Y1600200D03*
X85090000Y1600200D03*
X82550000Y1600200D03*
X80010000Y1600200D03*
X77470000Y1600200D03*
X74930000Y1600200D03*
X72390000Y1600200D03*
X69850000Y1600200D03*
X67310000Y1600200D03*
X64770000Y1600200D03*
X62230000Y1600200D03*
X59690000Y1600200D03*
X57150000Y1600200D03*
X54610000Y1600200D03*
X52070000Y1600200D03*
X49530000Y1600200D03*
X46990000Y1600200D03*
X44450000Y1600200D03*
X41910000Y1600200D03*
X39370000Y1600200D03*
X36830000Y1600200D03*
X34290000Y1600200D03*
X31750000Y1600200D03*
X29210000Y1600200D03*
X26670000Y1600200D03*
X24130000Y1600200D03*
X21590000Y1600200D03*
X19050000Y1600200D03*
X16510000Y1600200D03*
X13970000Y1600200D03*
X11430000Y1600200D03*
X8890000Y1600200D03*
X6350000Y1600200D03*
X3810000Y1600200D03*
G36*
G01*
X1695000Y750200D02*
X845000Y750200D01*
G75*
G02*
X420000Y1175200I0J425000D01*
G01*
X420000Y2025200D01*
G75*
G02*
X845000Y2450200I425000J0D01*
G01*
X1695000Y2450200D01*
G75*
G02*
X2120000Y2025200I0J-425000D01*
G01*
X2120000Y1175200D01*
G75*
G02*
X1695000Y750200I-425000J0D01*
G01*
G37*
%TD*%
D15*
%TO.C,*%
X5080000Y33350200D03*
%TD*%
M02*
