M48
; DRILL file {KiCad (5.1.9)-1} date 01/24/21 02:40:09
; FORMAT={-:-/ absolute / inch / decimal}
; #@! TF.CreationDate,2021-01-24T02:40:09-08:00
; #@! TF.GenerationSoftware,Kicad,Pcbnew,(5.1.9)-1
; #@! TF.FileFunction,Plated,1,2,PTH
FMAT,2
INCH
T1C0.0157
T2C0.0236
T3C0.0315
T4C0.0354
T5C0.0394
%
G90
G05
T1
X0.1Y0.263
X0.3Y0.413
X0.4Y0.413
X0.5Y1.013
X0.575Y0.438
X0.7Y0.363
X0.85Y0.213
X0.925Y0.313
X0.95Y0.638
X0.975Y0.713
X1.125Y0.188
X1.2Y1.313
X1.275Y0.738
X1.275Y0.113
X1.325Y0.338
X1.375Y0.338
X1.425Y0.888
X1.475Y0.888
X1.475Y0.338
X1.5Y1.638
X1.5Y1.238
X1.525Y0.888
X1.55Y1.763
X1.575Y0.888
X1.6Y0.438
X1.65Y0.413
X1.825Y0.538
X1.85Y0.563
X1.85Y0.438
X1.875Y0.738
X1.875Y0.688
X1.875Y0.638
X1.875Y0.588
X1.875Y0.463
X1.875Y0.413
X1.9Y0.988
X1.95Y0.363
X2.1625Y0.938
X2.2Y0.763
X2.25Y1.763
X2.275Y0.938
X2.3Y0.638
X2.325Y0.788
X2.425Y0.763
X2.45Y0.663
X2.525Y0.638
X2.6Y0.513
X2.625Y0.363
X2.65Y0.563
X2.725Y0.388
X2.75Y0.963
X2.75Y0.513
X2.825Y0.413
X2.85Y0.538
X2.925Y0.688
X2.95Y0.488
X3.025Y0.713
X3.05Y0.463
X3.125Y0.738
X3.15Y0.438
X3.225Y0.763
X3.25Y0.363
X3.275Y0.788
X3.35Y0.388
X3.375Y0.738
X3.45Y0.413
X3.475Y0.713
X3.5Y0.688
T2
X0.475Y1.113
X0.6625Y1.488
X1.7125Y0.4755
X2.0Y0.263
T3
X0.2Y0.663
X0.2Y0.563
X0.2Y0.263
X0.2984Y0.663
X0.3Y0.563
X0.3Y0.263
X0.4Y0.563
X0.4Y0.263
X0.5Y0.563
X0.5Y0.263
X0.6Y1.613
X0.6Y1.313
X0.6Y1.213
X0.6Y1.113
X0.6Y0.813
X0.6Y0.563
X0.6Y0.263
X0.6984Y1.213
X0.7Y1.113
X0.7Y0.813
X0.7Y0.563
X0.7Y0.263
X0.725Y1.613
X0.725Y1.313
X0.8Y1.113
X0.8Y0.813
X0.8Y0.563
X0.8Y0.263
X0.85Y1.613
X0.85Y1.313
X0.9Y1.113
X0.9Y0.813
X0.975Y1.613
X0.975Y1.313
X1.0Y1.113
X1.0Y0.813
X1.05Y0.663
X1.05Y0.563
X1.05Y0.263
X1.1Y1.113
X1.1Y0.813
X1.1484Y0.663
X1.15Y0.563
X1.15Y0.263
X1.2Y1.113
X1.2Y0.813
X1.25Y0.563
X1.25Y0.263
X1.35Y0.563
X1.35Y0.263
X1.45Y0.563
X1.45Y0.263
X1.55Y0.563
X1.55Y0.263
X1.65Y0.563
X1.65Y0.263
X1.75Y0.563
X1.75Y0.263
X2.0Y0.863
X2.0Y0.7646
X2.1Y0.863
X2.1Y0.263
X2.2Y0.863
X2.2Y0.263
X2.3Y1.888
X2.3Y0.863
X2.3Y0.263
X2.3984Y1.888
X2.4Y0.863
X2.4Y0.263
X2.5Y0.863
X2.5Y0.263
X2.6Y0.863
X2.6Y0.263
X2.7Y0.863
X2.7Y0.263
X2.8Y0.863
X2.8Y0.263
X2.9Y0.863
X2.9Y0.263
X3.0Y0.863
X3.0Y0.263
X3.1Y0.863
X3.1Y0.263
X3.2Y0.863
X3.2Y0.263
X3.3Y0.863
X3.3Y0.263
X3.4Y0.863
X3.4Y0.263
X3.5Y0.863
X3.5Y0.263
X3.6Y0.863
X3.6Y0.263
T4
X0.6Y1.813
X0.7Y1.813
X0.875Y1.813
X0.975Y1.813
T5
X0.05Y0.063
X0.15Y0.063
X0.25Y0.063
X0.35Y0.063
X0.45Y0.063
X0.55Y0.063
X0.65Y0.063
X0.75Y0.063
X0.85Y0.063
X0.95Y0.063
X1.05Y0.063
X1.15Y0.063
X1.25Y0.063
X1.275Y1.788
X1.275Y1.688
X1.275Y1.588
X1.35Y0.063
X1.375Y1.788
X1.375Y1.688
X1.375Y1.588
X1.375Y1.388
X1.375Y1.288
X1.375Y1.188
X1.45Y0.063
X1.475Y1.788
X1.475Y1.688
X1.475Y1.588
X1.475Y1.388
X1.475Y1.288
X1.475Y1.188
X1.55Y0.063
X1.65Y0.063
X1.675Y1.688
X1.675Y1.588
X1.75Y0.063
X1.775Y1.688
X1.775Y1.588
X1.85Y0.063
X1.95Y0.063
X2.05Y0.063
X2.15Y0.063
X2.25Y0.063
X2.3Y1.688
X2.3Y1.088
X2.35Y0.063
X2.4Y1.688
X2.4Y1.088
X2.45Y0.063
X2.5Y1.688
X2.5Y1.088
X2.55Y0.063
X2.6Y1.688
X2.6Y1.088
X2.65Y0.063
X2.7Y1.688
X2.7Y1.088
X2.75Y0.063
X2.8Y1.688
X2.8Y1.088
X2.85Y0.063
X2.9Y1.688
X2.9Y1.088
X2.95Y0.063
X3.0Y1.688
X3.0Y1.088
X3.05Y0.063
X3.1Y1.688
X3.1Y1.088
X3.15Y0.063
X3.2Y1.688
X3.2Y1.088
X3.25Y0.063
X3.3Y1.688
X3.3Y1.088
X3.35Y0.063
X3.4Y1.688
X3.4Y1.088
X3.45Y0.063
X3.5Y1.688
X3.5Y1.088
X3.55Y0.063
X3.6Y1.688
X3.6Y1.088
X3.65Y0.063
X3.75Y0.063
X3.85Y0.063
T0
M30
