%TF.GenerationSoftware,KiCad,Pcbnew,(5.1.6)-1*%
%TF.CreationDate,2021-01-01T20:16:01-08:00*%
%TF.ProjectId,rc-ramrom,72632d72-616d-4726-9f6d-2e6b69636164,rev?*%
%TF.SameCoordinates,PX9157080PY9071968*%
%TF.FileFunction,Legend,Bot*%
%TF.FilePolarity,Positive*%
%FSLAX46Y46*%
G04 Gerber Fmt 4.6, Leading zero omitted, Abs format (unit mm)*
G04 Created by KiCad (PCBNEW (5.1.6)-1) date 2021-01-01 20:16:01*
%MOMM*%
%LPD*%
G01*
G04 APERTURE LIST*
%ADD10C,0.300000*%
%ADD11C,0.150000*%
G04 APERTURE END LIST*
D10*
X54982142Y36486629D02*
X55482142Y37200915D01*
X55839285Y36486629D02*
X55839285Y37986629D01*
X55267857Y37986629D01*
X55125000Y37915200D01*
X55053571Y37843772D01*
X54982142Y37700915D01*
X54982142Y37486629D01*
X55053571Y37343772D01*
X55125000Y37272343D01*
X55267857Y37200915D01*
X55839285Y37200915D01*
X54410714Y36915200D02*
X53696428Y36915200D01*
X54553571Y36486629D02*
X54053571Y37986629D01*
X53553571Y36486629D01*
X53053571Y36486629D02*
X53053571Y37986629D01*
X52553571Y36915200D01*
X52053571Y37986629D01*
X52053571Y36486629D01*
X50267857Y38058058D02*
X51553571Y36129486D01*
X48910714Y36486629D02*
X49410714Y37200915D01*
X49767857Y36486629D02*
X49767857Y37986629D01*
X49196428Y37986629D01*
X49053571Y37915200D01*
X48982142Y37843772D01*
X48910714Y37700915D01*
X48910714Y37486629D01*
X48982142Y37343772D01*
X49053571Y37272343D01*
X49196428Y37200915D01*
X49767857Y37200915D01*
X47982142Y37986629D02*
X47696428Y37986629D01*
X47553571Y37915200D01*
X47410714Y37772343D01*
X47339285Y37486629D01*
X47339285Y36986629D01*
X47410714Y36700915D01*
X47553571Y36558058D01*
X47696428Y36486629D01*
X47982142Y36486629D01*
X48125000Y36558058D01*
X48267857Y36700915D01*
X48339285Y36986629D01*
X48339285Y37486629D01*
X48267857Y37772343D01*
X48125000Y37915200D01*
X47982142Y37986629D01*
X46696428Y36486629D02*
X46696428Y37986629D01*
X46196428Y36915200D01*
X45696428Y37986629D01*
X45696428Y36486629D01*
X42982142Y36629486D02*
X43053571Y36558058D01*
X43267857Y36486629D01*
X43410714Y36486629D01*
X43625000Y36558058D01*
X43767857Y36700915D01*
X43839285Y36843772D01*
X43910714Y37129486D01*
X43910714Y37343772D01*
X43839285Y37629486D01*
X43767857Y37772343D01*
X43625000Y37915200D01*
X43410714Y37986629D01*
X43267857Y37986629D01*
X43053571Y37915200D01*
X42982142Y37843772D01*
X41696428Y36486629D02*
X41696428Y37272343D01*
X41767857Y37415200D01*
X41910714Y37486629D01*
X42196428Y37486629D01*
X42339285Y37415200D01*
X41696428Y36558058D02*
X41839285Y36486629D01*
X42196428Y36486629D01*
X42339285Y36558058D01*
X42410714Y36700915D01*
X42410714Y36843772D01*
X42339285Y36986629D01*
X42196428Y37058058D01*
X41839285Y37058058D01*
X41696428Y37129486D01*
X40982142Y36486629D02*
X40982142Y37486629D01*
X40982142Y37200915D02*
X40910714Y37343772D01*
X40839285Y37415200D01*
X40696428Y37486629D01*
X40553571Y37486629D01*
X39410714Y36486629D02*
X39410714Y37986629D01*
X39410714Y36558058D02*
X39553571Y36486629D01*
X39839285Y36486629D01*
X39982142Y36558058D01*
X40053571Y36629486D01*
X40125000Y36772343D01*
X40125000Y37200915D01*
X40053571Y37343772D01*
X39982142Y37415200D01*
X39839285Y37486629D01*
X39553571Y37486629D01*
X39410714Y37415200D01*
X53839285Y33936629D02*
X53839285Y35436629D01*
X53267857Y35436629D01*
X53125000Y35365200D01*
X53053571Y35293772D01*
X52982142Y35150915D01*
X52982142Y34936629D01*
X53053571Y34793772D01*
X53125000Y34722343D01*
X53267857Y34650915D01*
X53839285Y34650915D01*
X52339285Y33936629D02*
X52339285Y35436629D01*
X51982142Y35436629D01*
X51767857Y35365200D01*
X51625000Y35222343D01*
X51553571Y35079486D01*
X51482142Y34793772D01*
X51482142Y34579486D01*
X51553571Y34293772D01*
X51625000Y34150915D01*
X51767857Y34008058D01*
X51982142Y33936629D01*
X52339285Y33936629D01*
X50053571Y33936629D02*
X50910714Y33936629D01*
X50482142Y33936629D02*
X50482142Y35436629D01*
X50625000Y35222343D01*
X50767857Y35079486D01*
X50910714Y35008058D01*
X49125000Y35436629D02*
X48982142Y35436629D01*
X48839285Y35365200D01*
X48767857Y35293772D01*
X48696428Y35150915D01*
X48625000Y34865200D01*
X48625000Y34508058D01*
X48696428Y34222343D01*
X48767857Y34079486D01*
X48839285Y34008058D01*
X48982142Y33936629D01*
X49125000Y33936629D01*
X49267857Y34008058D01*
X49339285Y34079486D01*
X49410714Y34222343D01*
X49482142Y34508058D01*
X49482142Y34865200D01*
X49410714Y35150915D01*
X49339285Y35293772D01*
X49267857Y35365200D01*
X49125000Y35436629D01*
X47339285Y35436629D02*
X47625000Y35436629D01*
X47767857Y35365200D01*
X47839285Y35293772D01*
X47982142Y35079486D01*
X48053571Y34793772D01*
X48053571Y34222343D01*
X47982142Y34079486D01*
X47910714Y34008058D01*
X47767857Y33936629D01*
X47482142Y33936629D01*
X47339285Y34008058D01*
X47267857Y34079486D01*
X47196428Y34222343D01*
X47196428Y34579486D01*
X47267857Y34722343D01*
X47339285Y34793772D01*
X47482142Y34865200D01*
X47767857Y34865200D01*
X47910714Y34793772D01*
X47982142Y34722343D01*
X48053571Y34579486D01*
X45553571Y34936629D02*
X45196428Y33936629D01*
X44839285Y34936629D01*
X43982142Y35436629D02*
X43839285Y35436629D01*
X43696428Y35365200D01*
X43625000Y35293772D01*
X43553571Y35150915D01*
X43482142Y34865200D01*
X43482142Y34508058D01*
X43553571Y34222343D01*
X43625000Y34079486D01*
X43696428Y34008058D01*
X43839285Y33936629D01*
X43982142Y33936629D01*
X44125000Y34008058D01*
X44196428Y34079486D01*
X44267857Y34222343D01*
X44339285Y34508058D01*
X44339285Y34865200D01*
X44267857Y35150915D01*
X44196428Y35293772D01*
X44125000Y35365200D01*
X43982142Y35436629D01*
X42839285Y34079486D02*
X42767857Y34008058D01*
X42839285Y33936629D01*
X42910714Y34008058D01*
X42839285Y34079486D01*
X42839285Y33936629D01*
X42053571Y33936629D02*
X41767857Y33936629D01*
X41625000Y34008058D01*
X41553571Y34079486D01*
X41410714Y34293772D01*
X41339285Y34579486D01*
X41339285Y35150915D01*
X41410714Y35293772D01*
X41482142Y35365200D01*
X41625000Y35436629D01*
X41910714Y35436629D01*
X42053571Y35365200D01*
X42125000Y35293772D01*
X42196428Y35150915D01*
X42196428Y34793772D01*
X42125000Y34650915D01*
X42053571Y34579486D01*
X41910714Y34508058D01*
X41625000Y34508058D01*
X41482142Y34579486D01*
X41410714Y34650915D01*
X41339285Y34793772D01*
D11*
X85128095Y16846629D02*
X85461428Y16846629D01*
X85461428Y16322820D02*
X85461428Y17322820D01*
X84985238Y17322820D01*
X84461428Y16322820D02*
X84556666Y16370439D01*
X84604285Y16418058D01*
X84651904Y16513296D01*
X84651904Y16799010D01*
X84604285Y16894248D01*
X84556666Y16941867D01*
X84461428Y16989486D01*
X84318571Y16989486D01*
X84223333Y16941867D01*
X84175714Y16894248D01*
X84128095Y16799010D01*
X84128095Y16513296D01*
X84175714Y16418058D01*
X84223333Y16370439D01*
X84318571Y16322820D01*
X84461428Y16322820D01*
X83699523Y16322820D02*
X83699523Y16989486D01*
X83699523Y16799010D02*
X83651904Y16894248D01*
X83604285Y16941867D01*
X83509047Y16989486D01*
X83413809Y16989486D01*
X82366190Y17227581D02*
X82318571Y17275200D01*
X82223333Y17322820D01*
X81985238Y17322820D01*
X81890000Y17275200D01*
X81842380Y17227581D01*
X81794761Y17132343D01*
X81794761Y17037105D01*
X81842380Y16894248D01*
X82413809Y16322820D01*
X81794761Y16322820D01*
X81461428Y17322820D02*
X80794761Y17322820D01*
X81223333Y16322820D01*
X79842380Y16418058D02*
X79890000Y16370439D01*
X80032857Y16322820D01*
X80128095Y16322820D01*
X80270952Y16370439D01*
X80366190Y16465677D01*
X80413809Y16560915D01*
X80461428Y16751391D01*
X80461428Y16894248D01*
X80413809Y17084724D01*
X80366190Y17179962D01*
X80270952Y17275200D01*
X80128095Y17322820D01*
X80032857Y17322820D01*
X79890000Y17275200D01*
X79842380Y17227581D01*
X78937619Y17322820D02*
X79413809Y17322820D01*
X79461428Y16846629D01*
X79413809Y16894248D01*
X79318571Y16941867D01*
X79080476Y16941867D01*
X78985238Y16894248D01*
X78937619Y16846629D01*
X78890000Y16751391D01*
X78890000Y16513296D01*
X78937619Y16418058D01*
X78985238Y16370439D01*
X79080476Y16322820D01*
X79318571Y16322820D01*
X79413809Y16370439D01*
X79461428Y16418058D01*
X77937619Y16322820D02*
X78509047Y16322820D01*
X78223333Y16322820D02*
X78223333Y17322820D01*
X78318571Y17179962D01*
X78413809Y17084724D01*
X78509047Y17037105D01*
X77556666Y17227581D02*
X77509047Y17275200D01*
X77413809Y17322820D01*
X77175714Y17322820D01*
X77080476Y17275200D01*
X77032857Y17227581D01*
X76985238Y17132343D01*
X76985238Y17037105D01*
X77032857Y16894248D01*
X77604285Y16322820D01*
X76985238Y16322820D01*
X76509047Y16370439D02*
X76509047Y16322820D01*
X76556666Y16227581D01*
X76604285Y16179962D01*
X75366190Y16370439D02*
X75270952Y16322820D01*
X75080476Y16322820D01*
X74985238Y16370439D01*
X74937619Y16465677D01*
X74937619Y16513296D01*
X74985238Y16608534D01*
X75080476Y16656153D01*
X75223333Y16656153D01*
X75318571Y16703772D01*
X75366190Y16799010D01*
X75366190Y16846629D01*
X75318571Y16941867D01*
X75223333Y16989486D01*
X75080476Y16989486D01*
X74985238Y16941867D01*
X74128095Y16370439D02*
X74223333Y16322820D01*
X74413809Y16322820D01*
X74509047Y16370439D01*
X74556666Y16465677D01*
X74556666Y16846629D01*
X74509047Y16941867D01*
X74413809Y16989486D01*
X74223333Y16989486D01*
X74128095Y16941867D01*
X74080476Y16846629D01*
X74080476Y16751391D01*
X74556666Y16656153D01*
X73794761Y16989486D02*
X73413809Y16989486D01*
X73651904Y17322820D02*
X73651904Y16465677D01*
X73604285Y16370439D01*
X73509047Y16322820D01*
X73413809Y16322820D01*
X72318571Y16989486D02*
X72318571Y16132343D01*
X72366190Y16037105D01*
X72461428Y15989486D01*
X72509047Y15989486D01*
X72318571Y17322820D02*
X72366190Y17275200D01*
X72318571Y17227581D01*
X72270952Y17275200D01*
X72318571Y17322820D01*
X72318571Y17227581D01*
X71413809Y16989486D02*
X71413809Y16322820D01*
X71842380Y16989486D02*
X71842380Y16465677D01*
X71794761Y16370439D01*
X71699523Y16322820D01*
X71556666Y16322820D01*
X71461428Y16370439D01*
X71413809Y16418058D01*
X70937619Y16322820D02*
X70937619Y16989486D01*
X70937619Y16894248D02*
X70890000Y16941867D01*
X70794761Y16989486D01*
X70651904Y16989486D01*
X70556666Y16941867D01*
X70509047Y16846629D01*
X70509047Y16322820D01*
X70509047Y16846629D02*
X70461428Y16941867D01*
X70366190Y16989486D01*
X70223333Y16989486D01*
X70128095Y16941867D01*
X70080476Y16846629D01*
X70080476Y16322820D01*
X69604285Y16989486D02*
X69604285Y15989486D01*
X69604285Y16941867D02*
X69509047Y16989486D01*
X69318571Y16989486D01*
X69223333Y16941867D01*
X69175714Y16894248D01*
X69128095Y16799010D01*
X69128095Y16513296D01*
X69175714Y16418058D01*
X69223333Y16370439D01*
X69318571Y16322820D01*
X69509047Y16322820D01*
X69604285Y16370439D01*
X68318571Y16370439D02*
X68413809Y16322820D01*
X68604285Y16322820D01*
X68699523Y16370439D01*
X68747142Y16465677D01*
X68747142Y16846629D01*
X68699523Y16941867D01*
X68604285Y16989486D01*
X68413809Y16989486D01*
X68318571Y16941867D01*
X68270952Y16846629D01*
X68270952Y16751391D01*
X68747142Y16656153D01*
X67842380Y16322820D02*
X67842380Y16989486D01*
X67842380Y16799010D02*
X67794761Y16894248D01*
X67747142Y16941867D01*
X67651904Y16989486D01*
X67556666Y16989486D01*
X67270952Y16370439D02*
X67175714Y16322820D01*
X66985238Y16322820D01*
X66890000Y16370439D01*
X66842380Y16465677D01*
X66842380Y16513296D01*
X66890000Y16608534D01*
X66985238Y16656153D01*
X67128095Y16656153D01*
X67223333Y16703772D01*
X67270952Y16799010D01*
X67270952Y16846629D01*
X67223333Y16941867D01*
X67128095Y16989486D01*
X66985238Y16989486D01*
X66890000Y16941867D01*
X65223333Y16322820D02*
X65223333Y16846629D01*
X65270952Y16941867D01*
X65366190Y16989486D01*
X65556666Y16989486D01*
X65651904Y16941867D01*
X65223333Y16370439D02*
X65318571Y16322820D01*
X65556666Y16322820D01*
X65651904Y16370439D01*
X65699523Y16465677D01*
X65699523Y16560915D01*
X65651904Y16656153D01*
X65556666Y16703772D01*
X65318571Y16703772D01*
X65223333Y16751391D01*
X64794761Y16370439D02*
X64699523Y16322820D01*
X64509047Y16322820D01*
X64413809Y16370439D01*
X64366190Y16465677D01*
X64366190Y16513296D01*
X64413809Y16608534D01*
X64509047Y16656153D01*
X64651904Y16656153D01*
X64747142Y16703772D01*
X64794761Y16799010D01*
X64794761Y16846629D01*
X64747142Y16941867D01*
X64651904Y16989486D01*
X64509047Y16989486D01*
X64413809Y16941867D01*
X62747142Y16322820D02*
X62747142Y16846629D01*
X62794761Y16941867D01*
X62890000Y16989486D01*
X63080476Y16989486D01*
X63175714Y16941867D01*
X62747142Y16370439D02*
X62842380Y16322820D01*
X63080476Y16322820D01*
X63175714Y16370439D01*
X63223333Y16465677D01*
X63223333Y16560915D01*
X63175714Y16656153D01*
X63080476Y16703772D01*
X62842380Y16703772D01*
X62747142Y16751391D01*
X62270952Y16322820D02*
X62270952Y17322820D01*
X62270952Y16941867D02*
X62175714Y16989486D01*
X61985238Y16989486D01*
X61890000Y16941867D01*
X61842380Y16894248D01*
X61794761Y16799010D01*
X61794761Y16513296D01*
X61842380Y16418058D01*
X61890000Y16370439D01*
X61985238Y16322820D01*
X62175714Y16322820D01*
X62270952Y16370439D01*
X61223333Y16322820D02*
X61318571Y16370439D01*
X61366190Y16418058D01*
X61413809Y16513296D01*
X61413809Y16799010D01*
X61366190Y16894248D01*
X61318571Y16941867D01*
X61223333Y16989486D01*
X61080476Y16989486D01*
X60985238Y16941867D01*
X60937619Y16894248D01*
X60890000Y16799010D01*
X60890000Y16513296D01*
X60937619Y16418058D01*
X60985238Y16370439D01*
X61080476Y16322820D01*
X61223333Y16322820D01*
X60556666Y16989486D02*
X60318571Y16322820D01*
X60080476Y16989486D01*
X59318571Y16370439D02*
X59413809Y16322820D01*
X59604285Y16322820D01*
X59699523Y16370439D01*
X59747142Y16465677D01*
X59747142Y16846629D01*
X59699523Y16941867D01*
X59604285Y16989486D01*
X59413809Y16989486D01*
X59318571Y16941867D01*
X59270952Y16846629D01*
X59270952Y16751391D01*
X59747142Y16656153D01*
X86056666Y14720439D02*
X85913809Y14672820D01*
X85675714Y14672820D01*
X85580476Y14720439D01*
X85532857Y14768058D01*
X85485238Y14863296D01*
X85485238Y14958534D01*
X85532857Y15053772D01*
X85580476Y15101391D01*
X85675714Y15149010D01*
X85866190Y15196629D01*
X85961428Y15244248D01*
X86009047Y15291867D01*
X86056666Y15387105D01*
X86056666Y15482343D01*
X86009047Y15577581D01*
X85961428Y15625200D01*
X85866190Y15672820D01*
X85628095Y15672820D01*
X85485238Y15625200D01*
X84675714Y14720439D02*
X84770952Y14672820D01*
X84961428Y14672820D01*
X85056666Y14720439D01*
X85104285Y14815677D01*
X85104285Y15196629D01*
X85056666Y15291867D01*
X84961428Y15339486D01*
X84770952Y15339486D01*
X84675714Y15291867D01*
X84628095Y15196629D01*
X84628095Y15101391D01*
X85104285Y15006153D01*
X84342380Y15339486D02*
X83961428Y15339486D01*
X84199523Y15672820D02*
X84199523Y14815677D01*
X84151904Y14720439D01*
X84056666Y14672820D01*
X83961428Y14672820D01*
X82580476Y15672820D02*
X82580476Y14958534D01*
X82628095Y14815677D01*
X82723333Y14720439D01*
X82866190Y14672820D01*
X82961428Y14672820D01*
X82104285Y14672820D02*
X82104285Y15672820D01*
X81723333Y15672820D01*
X81628095Y15625200D01*
X81580476Y15577581D01*
X81532857Y15482343D01*
X81532857Y15339486D01*
X81580476Y15244248D01*
X81628095Y15196629D01*
X81723333Y15149010D01*
X82104285Y15149010D01*
X81199523Y15672820D02*
X80580476Y15672820D01*
X80913809Y15291867D01*
X80770952Y15291867D01*
X80675714Y15244248D01*
X80628095Y15196629D01*
X80580476Y15101391D01*
X80580476Y14863296D01*
X80628095Y14768058D01*
X80675714Y14720439D01*
X80770952Y14672820D01*
X81056666Y14672820D01*
X81151904Y14720439D01*
X81199523Y14768058D01*
X79390000Y14672820D02*
X79390000Y15672820D01*
X78961428Y14672820D02*
X78961428Y15196629D01*
X79009047Y15291867D01*
X79104285Y15339486D01*
X79247142Y15339486D01*
X79342380Y15291867D01*
X79390000Y15244248D01*
X78485238Y14672820D02*
X78485238Y15339486D01*
X78485238Y15672820D02*
X78532857Y15625200D01*
X78485238Y15577581D01*
X78437619Y15625200D01*
X78485238Y15672820D01*
X78485238Y15577581D01*
X77580476Y15339486D02*
X77580476Y14529962D01*
X77628095Y14434724D01*
X77675714Y14387105D01*
X77770952Y14339486D01*
X77913809Y14339486D01*
X78009047Y14387105D01*
X77580476Y14720439D02*
X77675714Y14672820D01*
X77866190Y14672820D01*
X77961428Y14720439D01*
X78009047Y14768058D01*
X78056666Y14863296D01*
X78056666Y15149010D01*
X78009047Y15244248D01*
X77961428Y15291867D01*
X77866190Y15339486D01*
X77675714Y15339486D01*
X77580476Y15291867D01*
X77104285Y14672820D02*
X77104285Y15672820D01*
X76675714Y14672820D02*
X76675714Y15196629D01*
X76723333Y15291867D01*
X76818571Y15339486D01*
X76961428Y15339486D01*
X77056666Y15291867D01*
X77104285Y15244248D01*
X75580476Y15339486D02*
X75199523Y15339486D01*
X75437619Y14672820D02*
X75437619Y15529962D01*
X75390000Y15625200D01*
X75294761Y15672820D01*
X75199523Y15672820D01*
X74723333Y14672820D02*
X74818571Y14720439D01*
X74866190Y14768058D01*
X74913809Y14863296D01*
X74913809Y15149010D01*
X74866190Y15244248D01*
X74818571Y15291867D01*
X74723333Y15339486D01*
X74580476Y15339486D01*
X74485238Y15291867D01*
X74437619Y15244248D01*
X74390000Y15149010D01*
X74390000Y14863296D01*
X74437619Y14768058D01*
X74485238Y14720439D01*
X74580476Y14672820D01*
X74723333Y14672820D01*
X73961428Y14672820D02*
X73961428Y15339486D01*
X73961428Y15149010D02*
X73913809Y15244248D01*
X73866190Y15291867D01*
X73770952Y15339486D01*
X73675714Y15339486D01*
X72628095Y15577581D02*
X72580476Y15625200D01*
X72485238Y15672820D01*
X72247142Y15672820D01*
X72151904Y15625200D01*
X72104285Y15577581D01*
X72056666Y15482343D01*
X72056666Y15387105D01*
X72104285Y15244248D01*
X72675714Y14672820D01*
X72056666Y14672820D01*
X71723333Y15672820D02*
X71056666Y15672820D01*
X71485238Y14672820D01*
X70104285Y14768058D02*
X70151904Y14720439D01*
X70294761Y14672820D01*
X70390000Y14672820D01*
X70532857Y14720439D01*
X70628095Y14815677D01*
X70675714Y14910915D01*
X70723333Y15101391D01*
X70723333Y15244248D01*
X70675714Y15434724D01*
X70628095Y15529962D01*
X70532857Y15625200D01*
X70390000Y15672820D01*
X70294761Y15672820D01*
X70151904Y15625200D01*
X70104285Y15577581D01*
X69723333Y15577581D02*
X69675714Y15625200D01*
X69580476Y15672820D01*
X69342380Y15672820D01*
X69247142Y15625200D01*
X69199523Y15577581D01*
X69151904Y15482343D01*
X69151904Y15387105D01*
X69199523Y15244248D01*
X69770952Y14672820D01*
X69151904Y14672820D01*
X68247142Y15672820D02*
X68723333Y15672820D01*
X68770952Y15196629D01*
X68723333Y15244248D01*
X68628095Y15291867D01*
X68390000Y15291867D01*
X68294761Y15244248D01*
X68247142Y15196629D01*
X68199523Y15101391D01*
X68199523Y14863296D01*
X68247142Y14768058D01*
X68294761Y14720439D01*
X68390000Y14672820D01*
X68628095Y14672820D01*
X68723333Y14720439D01*
X68770952Y14768058D01*
X67342380Y15672820D02*
X67532857Y15672820D01*
X67628095Y15625200D01*
X67675714Y15577581D01*
X67770952Y15434724D01*
X67818571Y15244248D01*
X67818571Y14863296D01*
X67770952Y14768058D01*
X67723333Y14720439D01*
X67628095Y14672820D01*
X67437619Y14672820D01*
X67342380Y14720439D01*
X67294761Y14768058D01*
X67247142Y14863296D01*
X67247142Y15101391D01*
X67294761Y15196629D01*
X67342380Y15244248D01*
X67437619Y15291867D01*
X67628095Y15291867D01*
X67723333Y15244248D01*
X67770952Y15196629D01*
X67818571Y15101391D01*
X65247142Y14672820D02*
X65294761Y14672820D01*
X65390000Y14720439D01*
X65532857Y14863296D01*
X65770952Y15149010D01*
X65866190Y15291867D01*
X65913809Y15434724D01*
X65913809Y15529962D01*
X65866190Y15625200D01*
X65770952Y15672820D01*
X65723333Y15672820D01*
X65628095Y15625200D01*
X65580476Y15529962D01*
X65580476Y15482343D01*
X65628095Y15387105D01*
X65675714Y15339486D01*
X65961428Y15149010D01*
X66009047Y15101391D01*
X66056666Y15006153D01*
X66056666Y14863296D01*
X66009047Y14768058D01*
X65961428Y14720439D01*
X65866190Y14672820D01*
X65723333Y14672820D01*
X65628095Y14720439D01*
X65580476Y14768058D01*
X65437619Y14958534D01*
X65390000Y15101391D01*
X65390000Y15196629D01*
X64104285Y15577581D02*
X64056666Y15625200D01*
X63961428Y15672820D01*
X63723333Y15672820D01*
X63628095Y15625200D01*
X63580476Y15577581D01*
X63532857Y15482343D01*
X63532857Y15387105D01*
X63580476Y15244248D01*
X64151904Y14672820D01*
X63532857Y14672820D01*
X62961428Y15244248D02*
X63056666Y15291867D01*
X63104285Y15339486D01*
X63151904Y15434724D01*
X63151904Y15482343D01*
X63104285Y15577581D01*
X63056666Y15625200D01*
X62961428Y15672820D01*
X62770952Y15672820D01*
X62675714Y15625200D01*
X62628095Y15577581D01*
X62580476Y15482343D01*
X62580476Y15434724D01*
X62628095Y15339486D01*
X62675714Y15291867D01*
X62770952Y15244248D01*
X62961428Y15244248D01*
X63056666Y15196629D01*
X63104285Y15149010D01*
X63151904Y15053772D01*
X63151904Y14863296D01*
X63104285Y14768058D01*
X63056666Y14720439D01*
X62961428Y14672820D01*
X62770952Y14672820D01*
X62675714Y14720439D01*
X62628095Y14768058D01*
X62580476Y14863296D01*
X62580476Y15053772D01*
X62628095Y15149010D01*
X62675714Y15196629D01*
X62770952Y15244248D01*
X61580476Y14768058D02*
X61628095Y14720439D01*
X61770952Y14672820D01*
X61866190Y14672820D01*
X62009047Y14720439D01*
X62104285Y14815677D01*
X62151904Y14910915D01*
X62199523Y15101391D01*
X62199523Y15244248D01*
X62151904Y15434724D01*
X62104285Y15529962D01*
X62009047Y15625200D01*
X61866190Y15672820D01*
X61770952Y15672820D01*
X61628095Y15625200D01*
X61580476Y15577581D01*
X61199523Y15577581D02*
X61151904Y15625200D01*
X61056666Y15672820D01*
X60818571Y15672820D01*
X60723333Y15625200D01*
X60675714Y15577581D01*
X60628095Y15482343D01*
X60628095Y15387105D01*
X60675714Y15244248D01*
X61247142Y14672820D01*
X60628095Y14672820D01*
X59723333Y15672820D02*
X60199523Y15672820D01*
X60247142Y15196629D01*
X60199523Y15244248D01*
X60104285Y15291867D01*
X59866190Y15291867D01*
X59770952Y15244248D01*
X59723333Y15196629D01*
X59675714Y15101391D01*
X59675714Y14863296D01*
X59723333Y14768058D01*
X59770952Y14720439D01*
X59866190Y14672820D01*
X60104285Y14672820D01*
X60199523Y14720439D01*
X60247142Y14768058D01*
X58818571Y15672820D02*
X59009047Y15672820D01*
X59104285Y15625200D01*
X59151904Y15577581D01*
X59247142Y15434724D01*
X59294761Y15244248D01*
X59294761Y14863296D01*
X59247142Y14768058D01*
X59199523Y14720439D01*
X59104285Y14672820D01*
X58913809Y14672820D01*
X58818571Y14720439D01*
X58770952Y14768058D01*
X58723333Y14863296D01*
X58723333Y15101391D01*
X58770952Y15196629D01*
X58818571Y15244248D01*
X58913809Y15291867D01*
X59104285Y15291867D01*
X59199523Y15244248D01*
X59247142Y15196629D01*
X59294761Y15101391D01*
X85270952Y13070439D02*
X85128095Y13022820D01*
X84890000Y13022820D01*
X84794761Y13070439D01*
X84747142Y13118058D01*
X84699523Y13213296D01*
X84699523Y13308534D01*
X84747142Y13403772D01*
X84794761Y13451391D01*
X84890000Y13499010D01*
X85080476Y13546629D01*
X85175714Y13594248D01*
X85223333Y13641867D01*
X85270952Y13737105D01*
X85270952Y13832343D01*
X85223333Y13927581D01*
X85175714Y13975200D01*
X85080476Y14022820D01*
X84842380Y14022820D01*
X84699523Y13975200D01*
X83890000Y13070439D02*
X83985238Y13022820D01*
X84175714Y13022820D01*
X84270952Y13070439D01*
X84318571Y13165677D01*
X84318571Y13546629D01*
X84270952Y13641867D01*
X84175714Y13689486D01*
X83985238Y13689486D01*
X83890000Y13641867D01*
X83842380Y13546629D01*
X83842380Y13451391D01*
X84318571Y13356153D01*
X83556666Y13689486D02*
X83175714Y13689486D01*
X83413809Y14022820D02*
X83413809Y13165677D01*
X83366190Y13070439D01*
X83270952Y13022820D01*
X83175714Y13022820D01*
X81794761Y14022820D02*
X81794761Y13308534D01*
X81842380Y13165677D01*
X81937619Y13070439D01*
X82080476Y13022820D01*
X82175714Y13022820D01*
X81318571Y13022820D02*
X81318571Y14022820D01*
X80937619Y14022820D01*
X80842380Y13975200D01*
X80794761Y13927581D01*
X80747142Y13832343D01*
X80747142Y13689486D01*
X80794761Y13594248D01*
X80842380Y13546629D01*
X80937619Y13499010D01*
X81318571Y13499010D01*
X80413809Y14022820D02*
X79794761Y14022820D01*
X80128095Y13641867D01*
X79985238Y13641867D01*
X79890000Y13594248D01*
X79842380Y13546629D01*
X79794761Y13451391D01*
X79794761Y13213296D01*
X79842380Y13118058D01*
X79890000Y13070439D01*
X79985238Y13022820D01*
X80270952Y13022820D01*
X80366190Y13070439D01*
X80413809Y13118058D01*
X78175714Y13022820D02*
X78175714Y13546629D01*
X78223333Y13641867D01*
X78318571Y13689486D01*
X78509047Y13689486D01*
X78604285Y13641867D01*
X78175714Y13070439D02*
X78270952Y13022820D01*
X78509047Y13022820D01*
X78604285Y13070439D01*
X78651904Y13165677D01*
X78651904Y13260915D01*
X78604285Y13356153D01*
X78509047Y13403772D01*
X78270952Y13403772D01*
X78175714Y13451391D01*
X77699523Y13689486D02*
X77699523Y13022820D01*
X77699523Y13594248D02*
X77651904Y13641867D01*
X77556666Y13689486D01*
X77413809Y13689486D01*
X77318571Y13641867D01*
X77270952Y13546629D01*
X77270952Y13022820D01*
X76366190Y13022820D02*
X76366190Y14022820D01*
X76366190Y13070439D02*
X76461428Y13022820D01*
X76651904Y13022820D01*
X76747142Y13070439D01*
X76794761Y13118058D01*
X76842380Y13213296D01*
X76842380Y13499010D01*
X76794761Y13594248D01*
X76747142Y13641867D01*
X76651904Y13689486D01*
X76461428Y13689486D01*
X76366190Y13641867D01*
X74842380Y14022820D02*
X74842380Y13308534D01*
X74890000Y13165677D01*
X74985238Y13070439D01*
X75128095Y13022820D01*
X75223333Y13022820D01*
X74366190Y13022820D02*
X74366190Y14022820D01*
X73985238Y14022820D01*
X73890000Y13975200D01*
X73842380Y13927581D01*
X73794761Y13832343D01*
X73794761Y13689486D01*
X73842380Y13594248D01*
X73890000Y13546629D01*
X73985238Y13499010D01*
X74366190Y13499010D01*
X72937619Y13689486D02*
X72937619Y13022820D01*
X73175714Y14070439D02*
X73413809Y13356153D01*
X72794761Y13356153D01*
X71651904Y13022820D02*
X71651904Y14022820D01*
X71223333Y13022820D02*
X71223333Y13546629D01*
X71270952Y13641867D01*
X71366190Y13689486D01*
X71509047Y13689486D01*
X71604285Y13641867D01*
X71651904Y13594248D01*
X70747142Y13022820D02*
X70747142Y13689486D01*
X70747142Y14022820D02*
X70794761Y13975200D01*
X70747142Y13927581D01*
X70699523Y13975200D01*
X70747142Y14022820D01*
X70747142Y13927581D01*
X69842380Y13689486D02*
X69842380Y12879962D01*
X69890000Y12784724D01*
X69937619Y12737105D01*
X70032857Y12689486D01*
X70175714Y12689486D01*
X70270952Y12737105D01*
X69842380Y13070439D02*
X69937619Y13022820D01*
X70128095Y13022820D01*
X70223333Y13070439D01*
X70270952Y13118058D01*
X70318571Y13213296D01*
X70318571Y13499010D01*
X70270952Y13594248D01*
X70223333Y13641867D01*
X70128095Y13689486D01*
X69937619Y13689486D01*
X69842380Y13641867D01*
X69366190Y13022820D02*
X69366190Y14022820D01*
X68937619Y13022820D02*
X68937619Y13546629D01*
X68985238Y13641867D01*
X69080476Y13689486D01*
X69223333Y13689486D01*
X69318571Y13641867D01*
X69366190Y13594248D01*
X67842380Y13689486D02*
X67461428Y13689486D01*
X67699523Y13022820D02*
X67699523Y13879962D01*
X67651904Y13975200D01*
X67556666Y14022820D01*
X67461428Y14022820D01*
X66985238Y13022820D02*
X67080476Y13070439D01*
X67128095Y13118058D01*
X67175714Y13213296D01*
X67175714Y13499010D01*
X67128095Y13594248D01*
X67080476Y13641867D01*
X66985238Y13689486D01*
X66842380Y13689486D01*
X66747142Y13641867D01*
X66699523Y13594248D01*
X66651904Y13499010D01*
X66651904Y13213296D01*
X66699523Y13118058D01*
X66747142Y13070439D01*
X66842380Y13022820D01*
X66985238Y13022820D01*
X66223333Y13022820D02*
X66223333Y13689486D01*
X66223333Y13499010D02*
X66175714Y13594248D01*
X66128095Y13641867D01*
X66032857Y13689486D01*
X65937619Y13689486D01*
X64890000Y13927581D02*
X64842380Y13975200D01*
X64747142Y14022820D01*
X64509047Y14022820D01*
X64413809Y13975200D01*
X64366190Y13927581D01*
X64318571Y13832343D01*
X64318571Y13737105D01*
X64366190Y13594248D01*
X64937619Y13022820D01*
X64318571Y13022820D01*
X63985238Y14022820D02*
X63318571Y14022820D01*
X63747142Y13022820D01*
X62366190Y13118058D02*
X62413809Y13070439D01*
X62556666Y13022820D01*
X62651904Y13022820D01*
X62794761Y13070439D01*
X62890000Y13165677D01*
X62937619Y13260915D01*
X62985238Y13451391D01*
X62985238Y13594248D01*
X62937619Y13784724D01*
X62890000Y13879962D01*
X62794761Y13975200D01*
X62651904Y14022820D01*
X62556666Y14022820D01*
X62413809Y13975200D01*
X62366190Y13927581D01*
X61413809Y13022820D02*
X61985238Y13022820D01*
X61699523Y13022820D02*
X61699523Y14022820D01*
X61794761Y13879962D01*
X61890000Y13784724D01*
X61985238Y13737105D01*
X61032857Y13927581D02*
X60985238Y13975200D01*
X60890000Y14022820D01*
X60651904Y14022820D01*
X60556666Y13975200D01*
X60509047Y13927581D01*
X60461428Y13832343D01*
X60461428Y13737105D01*
X60509047Y13594248D01*
X61080476Y13022820D01*
X60461428Y13022820D01*
X59890000Y13594248D02*
X59985238Y13641867D01*
X60032857Y13689486D01*
X60080476Y13784724D01*
X60080476Y13832343D01*
X60032857Y13927581D01*
X59985238Y13975200D01*
X59890000Y14022820D01*
X59699523Y14022820D01*
X59604285Y13975200D01*
X59556666Y13927581D01*
X59509047Y13832343D01*
X59509047Y13784724D01*
X59556666Y13689486D01*
X59604285Y13641867D01*
X59699523Y13594248D01*
X59890000Y13594248D01*
X59985238Y13546629D01*
X60032857Y13499010D01*
X60080476Y13403772D01*
X60080476Y13213296D01*
X60032857Y13118058D01*
X59985238Y13070439D01*
X59890000Y13022820D01*
X59699523Y13022820D01*
X59604285Y13070439D01*
X59556666Y13118058D01*
X59509047Y13213296D01*
X59509047Y13403772D01*
X59556666Y13499010D01*
X59604285Y13546629D01*
X59699523Y13594248D01*
X86556666Y11658534D02*
X86080476Y11658534D01*
X86651904Y11372820D02*
X86318571Y12372820D01*
X85985238Y11372820D01*
X85699523Y11420439D02*
X85604285Y11372820D01*
X85413809Y11372820D01*
X85318571Y11420439D01*
X85270952Y11515677D01*
X85270952Y11563296D01*
X85318571Y11658534D01*
X85413809Y11706153D01*
X85556666Y11706153D01*
X85651904Y11753772D01*
X85699523Y11849010D01*
X85699523Y11896629D01*
X85651904Y11991867D01*
X85556666Y12039486D01*
X85413809Y12039486D01*
X85318571Y11991867D01*
X83651904Y11372820D02*
X83651904Y11896629D01*
X83699523Y11991867D01*
X83794761Y12039486D01*
X83985238Y12039486D01*
X84080476Y11991867D01*
X83651904Y11420439D02*
X83747142Y11372820D01*
X83985238Y11372820D01*
X84080476Y11420439D01*
X84128095Y11515677D01*
X84128095Y11610915D01*
X84080476Y11706153D01*
X83985238Y11753772D01*
X83747142Y11753772D01*
X83651904Y11801391D01*
X83175714Y11372820D02*
X83175714Y12372820D01*
X83175714Y11991867D02*
X83080476Y12039486D01*
X82890000Y12039486D01*
X82794761Y11991867D01*
X82747142Y11944248D01*
X82699523Y11849010D01*
X82699523Y11563296D01*
X82747142Y11468058D01*
X82794761Y11420439D01*
X82890000Y11372820D01*
X83080476Y11372820D01*
X83175714Y11420439D01*
X82128095Y11372820D02*
X82223333Y11420439D01*
X82270952Y11468058D01*
X82318571Y11563296D01*
X82318571Y11849010D01*
X82270952Y11944248D01*
X82223333Y11991867D01*
X82128095Y12039486D01*
X81985238Y12039486D01*
X81890000Y11991867D01*
X81842380Y11944248D01*
X81794761Y11849010D01*
X81794761Y11563296D01*
X81842380Y11468058D01*
X81890000Y11420439D01*
X81985238Y11372820D01*
X82128095Y11372820D01*
X81461428Y12039486D02*
X81223333Y11372820D01*
X80985238Y12039486D01*
X80223333Y11420439D02*
X80318571Y11372820D01*
X80509047Y11372820D01*
X80604285Y11420439D01*
X80651904Y11515677D01*
X80651904Y11896629D01*
X80604285Y11991867D01*
X80509047Y12039486D01*
X80318571Y12039486D01*
X80223333Y11991867D01*
X80175714Y11896629D01*
X80175714Y11801391D01*
X80651904Y11706153D01*
X79699523Y11420439D02*
X79699523Y11372820D01*
X79747142Y11277581D01*
X79794761Y11229962D01*
X78080476Y11372820D02*
X78080476Y11896629D01*
X78128095Y11991867D01*
X78223333Y12039486D01*
X78413809Y12039486D01*
X78509047Y11991867D01*
X78080476Y11420439D02*
X78175714Y11372820D01*
X78413809Y11372820D01*
X78509047Y11420439D01*
X78556666Y11515677D01*
X78556666Y11610915D01*
X78509047Y11706153D01*
X78413809Y11753772D01*
X78175714Y11753772D01*
X78080476Y11801391D01*
X77604285Y12039486D02*
X77604285Y11372820D01*
X77604285Y11944248D02*
X77556666Y11991867D01*
X77461428Y12039486D01*
X77318571Y12039486D01*
X77223333Y11991867D01*
X77175714Y11896629D01*
X77175714Y11372820D01*
X76270952Y11372820D02*
X76270952Y12372820D01*
X76270952Y11420439D02*
X76366190Y11372820D01*
X76556666Y11372820D01*
X76651904Y11420439D01*
X76699523Y11468058D01*
X76747142Y11563296D01*
X76747142Y11849010D01*
X76699523Y11944248D01*
X76651904Y11991867D01*
X76556666Y12039486D01*
X76366190Y12039486D01*
X76270952Y11991867D01*
X75032857Y11372820D02*
X75032857Y12039486D01*
X75032857Y11849010D02*
X74985238Y11944248D01*
X74937619Y11991867D01*
X74842380Y12039486D01*
X74747142Y12039486D01*
X74032857Y11420439D02*
X74128095Y11372820D01*
X74318571Y11372820D01*
X74413809Y11420439D01*
X74461428Y11515677D01*
X74461428Y11896629D01*
X74413809Y11991867D01*
X74318571Y12039486D01*
X74128095Y12039486D01*
X74032857Y11991867D01*
X73985238Y11896629D01*
X73985238Y11801391D01*
X74461428Y11706153D01*
X73556666Y11372820D02*
X73556666Y12039486D01*
X73556666Y11944248D02*
X73509047Y11991867D01*
X73413809Y12039486D01*
X73270952Y12039486D01*
X73175714Y11991867D01*
X73128095Y11896629D01*
X73128095Y11372820D01*
X73128095Y11896629D02*
X73080476Y11991867D01*
X72985238Y12039486D01*
X72842380Y12039486D01*
X72747142Y11991867D01*
X72699523Y11896629D01*
X72699523Y11372820D01*
X72080476Y11372820D02*
X72175714Y11420439D01*
X72223333Y11468058D01*
X72270952Y11563296D01*
X72270952Y11849010D01*
X72223333Y11944248D01*
X72175714Y11991867D01*
X72080476Y12039486D01*
X71937619Y12039486D01*
X71842380Y11991867D01*
X71794761Y11944248D01*
X71747142Y11849010D01*
X71747142Y11563296D01*
X71794761Y11468058D01*
X71842380Y11420439D01*
X71937619Y11372820D01*
X72080476Y11372820D01*
X71413809Y12039486D02*
X71175714Y11372820D01*
X70937619Y12039486D01*
X70175714Y11420439D02*
X70270952Y11372820D01*
X70461428Y11372820D01*
X70556666Y11420439D01*
X70604285Y11515677D01*
X70604285Y11896629D01*
X70556666Y11991867D01*
X70461428Y12039486D01*
X70270952Y12039486D01*
X70175714Y11991867D01*
X70128095Y11896629D01*
X70128095Y11801391D01*
X70604285Y11706153D01*
X68651904Y12372820D02*
X68651904Y11658534D01*
X68699523Y11515677D01*
X68794761Y11420439D01*
X68937619Y11372820D01*
X69032857Y11372820D01*
X68175714Y11372820D02*
X68175714Y12372820D01*
X67794761Y12372820D01*
X67699523Y12325200D01*
X67651904Y12277581D01*
X67604285Y12182343D01*
X67604285Y12039486D01*
X67651904Y11944248D01*
X67699523Y11896629D01*
X67794761Y11849010D01*
X68175714Y11849010D01*
X66699523Y12372820D02*
X67175714Y12372820D01*
X67223333Y11896629D01*
X67175714Y11944248D01*
X67080476Y11991867D01*
X66842380Y11991867D01*
X66747142Y11944248D01*
X66699523Y11896629D01*
X66651904Y11801391D01*
X66651904Y11563296D01*
X66699523Y11468058D01*
X66747142Y11420439D01*
X66842380Y11372820D01*
X67080476Y11372820D01*
X67175714Y11420439D01*
X67223333Y11468058D01*
X65604285Y12039486D02*
X65223333Y12039486D01*
X65461428Y11372820D02*
X65461428Y12229962D01*
X65413809Y12325200D01*
X65318571Y12372820D01*
X65223333Y12372820D01*
X64747142Y11372820D02*
X64842380Y11420439D01*
X64890000Y11468058D01*
X64937619Y11563296D01*
X64937619Y11849010D01*
X64890000Y11944248D01*
X64842380Y11991867D01*
X64747142Y12039486D01*
X64604285Y12039486D01*
X64509047Y11991867D01*
X64461428Y11944248D01*
X64413809Y11849010D01*
X64413809Y11563296D01*
X64461428Y11468058D01*
X64509047Y11420439D01*
X64604285Y11372820D01*
X64747142Y11372820D01*
X63985238Y11372820D02*
X63985238Y12039486D01*
X63985238Y11849010D02*
X63937619Y11944248D01*
X63890000Y11991867D01*
X63794761Y12039486D01*
X63699523Y12039486D01*
X62651904Y12277581D02*
X62604285Y12325200D01*
X62509047Y12372820D01*
X62270952Y12372820D01*
X62175714Y12325200D01*
X62128095Y12277581D01*
X62080476Y12182343D01*
X62080476Y12087105D01*
X62128095Y11944248D01*
X62699523Y11372820D01*
X62080476Y11372820D01*
X61747142Y12372820D02*
X61080476Y12372820D01*
X61509047Y11372820D01*
X60128095Y11468058D02*
X60175714Y11420439D01*
X60318571Y11372820D01*
X60413809Y11372820D01*
X60556666Y11420439D01*
X60651904Y11515677D01*
X60699523Y11610915D01*
X60747142Y11801391D01*
X60747142Y11944248D01*
X60699523Y12134724D01*
X60651904Y12229962D01*
X60556666Y12325200D01*
X60413809Y12372820D01*
X60318571Y12372820D01*
X60175714Y12325200D01*
X60128095Y12277581D01*
X59270952Y12372820D02*
X59461428Y12372820D01*
X59556666Y12325200D01*
X59604285Y12277581D01*
X59699523Y12134724D01*
X59747142Y11944248D01*
X59747142Y11563296D01*
X59699523Y11468058D01*
X59651904Y11420439D01*
X59556666Y11372820D01*
X59366190Y11372820D01*
X59270952Y11420439D01*
X59223333Y11468058D01*
X59175714Y11563296D01*
X59175714Y11801391D01*
X59223333Y11896629D01*
X59270952Y11944248D01*
X59366190Y11991867D01*
X59556666Y11991867D01*
X59651904Y11944248D01*
X59699523Y11896629D01*
X59747142Y11801391D01*
X58318571Y12039486D02*
X58318571Y11372820D01*
X58556666Y12420439D02*
X58794761Y11706153D01*
X58175714Y11706153D01*
X88930000Y37024248D02*
X89025238Y37071867D01*
X89072857Y37119486D01*
X89120476Y37214724D01*
X89120476Y37262343D01*
X89072857Y37357581D01*
X89025238Y37405200D01*
X88930000Y37452820D01*
X88739523Y37452820D01*
X88644285Y37405200D01*
X88596666Y37357581D01*
X88549047Y37262343D01*
X88549047Y37214724D01*
X88596666Y37119486D01*
X88644285Y37071867D01*
X88739523Y37024248D01*
X88930000Y37024248D01*
X89025238Y36976629D01*
X89072857Y36929010D01*
X89120476Y36833772D01*
X89120476Y36643296D01*
X89072857Y36548058D01*
X89025238Y36500439D01*
X88930000Y36452820D01*
X88739523Y36452820D01*
X88644285Y36500439D01*
X88596666Y36548058D01*
X88549047Y36643296D01*
X88549047Y36833772D01*
X88596666Y36929010D01*
X88644285Y36976629D01*
X88739523Y37024248D01*
X88120476Y36452820D02*
X88120476Y37452820D01*
X87549047Y36452820D02*
X87977619Y37024248D01*
X87549047Y37452820D02*
X88120476Y36881391D01*
X86358571Y37119486D02*
X86358571Y36119486D01*
X86358571Y37071867D02*
X86263333Y37119486D01*
X86072857Y37119486D01*
X85977619Y37071867D01*
X85930000Y37024248D01*
X85882380Y36929010D01*
X85882380Y36643296D01*
X85930000Y36548058D01*
X85977619Y36500439D01*
X86072857Y36452820D01*
X86263333Y36452820D01*
X86358571Y36500439D01*
X85025238Y36452820D02*
X85025238Y36976629D01*
X85072857Y37071867D01*
X85168095Y37119486D01*
X85358571Y37119486D01*
X85453809Y37071867D01*
X85025238Y36500439D02*
X85120476Y36452820D01*
X85358571Y36452820D01*
X85453809Y36500439D01*
X85501428Y36595677D01*
X85501428Y36690915D01*
X85453809Y36786153D01*
X85358571Y36833772D01*
X85120476Y36833772D01*
X85025238Y36881391D01*
X84120476Y37119486D02*
X84120476Y36309962D01*
X84168095Y36214724D01*
X84215714Y36167105D01*
X84310952Y36119486D01*
X84453809Y36119486D01*
X84549047Y36167105D01*
X84120476Y36500439D02*
X84215714Y36452820D01*
X84406190Y36452820D01*
X84501428Y36500439D01*
X84549047Y36548058D01*
X84596666Y36643296D01*
X84596666Y36929010D01*
X84549047Y37024248D01*
X84501428Y37071867D01*
X84406190Y37119486D01*
X84215714Y37119486D01*
X84120476Y37071867D01*
X83263333Y36500439D02*
X83358571Y36452820D01*
X83549047Y36452820D01*
X83644285Y36500439D01*
X83691904Y36595677D01*
X83691904Y36976629D01*
X83644285Y37071867D01*
X83549047Y37119486D01*
X83358571Y37119486D01*
X83263333Y37071867D01*
X83215714Y36976629D01*
X83215714Y36881391D01*
X83691904Y36786153D01*
X82072857Y36500439D02*
X81977619Y36452820D01*
X81787142Y36452820D01*
X81691904Y36500439D01*
X81644285Y36595677D01*
X81644285Y36643296D01*
X81691904Y36738534D01*
X81787142Y36786153D01*
X81930000Y36786153D01*
X82025238Y36833772D01*
X82072857Y36929010D01*
X82072857Y36976629D01*
X82025238Y37071867D01*
X81930000Y37119486D01*
X81787142Y37119486D01*
X81691904Y37071867D01*
X81215714Y36452820D02*
X81215714Y37119486D01*
X81215714Y37452820D02*
X81263333Y37405200D01*
X81215714Y37357581D01*
X81168095Y37405200D01*
X81215714Y37452820D01*
X81215714Y37357581D01*
X80834761Y37119486D02*
X80310952Y37119486D01*
X80834761Y36452820D01*
X80310952Y36452820D01*
X79549047Y36500439D02*
X79644285Y36452820D01*
X79834761Y36452820D01*
X79930000Y36500439D01*
X79977619Y36595677D01*
X79977619Y36976629D01*
X79930000Y37071867D01*
X79834761Y37119486D01*
X79644285Y37119486D01*
X79549047Y37071867D01*
X79501428Y36976629D01*
X79501428Y36881391D01*
X79977619Y36786153D01*
X77882380Y37119486D02*
X77882380Y36452820D01*
X78310952Y37119486D02*
X78310952Y36595677D01*
X78263333Y36500439D01*
X78168095Y36452820D01*
X78025238Y36452820D01*
X77930000Y36500439D01*
X77882380Y36548058D01*
X77453809Y36500439D02*
X77358571Y36452820D01*
X77168095Y36452820D01*
X77072857Y36500439D01*
X77025238Y36595677D01*
X77025238Y36643296D01*
X77072857Y36738534D01*
X77168095Y36786153D01*
X77310952Y36786153D01*
X77406190Y36833772D01*
X77453809Y36929010D01*
X77453809Y36976629D01*
X77406190Y37071867D01*
X77310952Y37119486D01*
X77168095Y37119486D01*
X77072857Y37071867D01*
X76215714Y36500439D02*
X76310952Y36452820D01*
X76501428Y36452820D01*
X76596666Y36500439D01*
X76644285Y36595677D01*
X76644285Y36976629D01*
X76596666Y37071867D01*
X76501428Y37119486D01*
X76310952Y37119486D01*
X76215714Y37071867D01*
X76168095Y36976629D01*
X76168095Y36881391D01*
X76644285Y36786153D01*
X75787142Y36500439D02*
X75691904Y36452820D01*
X75501428Y36452820D01*
X75406190Y36500439D01*
X75358571Y36595677D01*
X75358571Y36643296D01*
X75406190Y36738534D01*
X75501428Y36786153D01*
X75644285Y36786153D01*
X75739523Y36833772D01*
X75787142Y36929010D01*
X75787142Y36976629D01*
X75739523Y37071867D01*
X75644285Y37119486D01*
X75501428Y37119486D01*
X75406190Y37071867D01*
X73739523Y36452820D02*
X73739523Y36976629D01*
X73787142Y37071867D01*
X73882380Y37119486D01*
X74072857Y37119486D01*
X74168095Y37071867D01*
X73739523Y36500439D02*
X73834761Y36452820D01*
X74072857Y36452820D01*
X74168095Y36500439D01*
X74215714Y36595677D01*
X74215714Y36690915D01*
X74168095Y36786153D01*
X74072857Y36833772D01*
X73834761Y36833772D01*
X73739523Y36881391D01*
X73120476Y36452820D02*
X73215714Y36500439D01*
X73263333Y36595677D01*
X73263333Y37452820D01*
X72596666Y36452820D02*
X72691904Y36500439D01*
X72739523Y36595677D01*
X72739523Y37452820D01*
X71501428Y36500439D02*
X71406190Y36452820D01*
X71215714Y36452820D01*
X71120476Y36500439D01*
X71072857Y36595677D01*
X71072857Y36643296D01*
X71120476Y36738534D01*
X71215714Y36786153D01*
X71358571Y36786153D01*
X71453809Y36833772D01*
X71501428Y36929010D01*
X71501428Y36976629D01*
X71453809Y37071867D01*
X71358571Y37119486D01*
X71215714Y37119486D01*
X71120476Y37071867D01*
X70263333Y36500439D02*
X70358571Y36452820D01*
X70549047Y36452820D01*
X70644285Y36500439D01*
X70691904Y36595677D01*
X70691904Y36976629D01*
X70644285Y37071867D01*
X70549047Y37119486D01*
X70358571Y37119486D01*
X70263333Y37071867D01*
X70215714Y36976629D01*
X70215714Y36881391D01*
X70691904Y36786153D01*
X69644285Y36452820D02*
X69739523Y36500439D01*
X69787142Y36595677D01*
X69787142Y37452820D01*
X68882380Y36500439D02*
X68977619Y36452820D01*
X69168095Y36452820D01*
X69263333Y36500439D01*
X69310952Y36595677D01*
X69310952Y36976629D01*
X69263333Y37071867D01*
X69168095Y37119486D01*
X68977619Y37119486D01*
X68882380Y37071867D01*
X68834761Y36976629D01*
X68834761Y36881391D01*
X69310952Y36786153D01*
X67977619Y36500439D02*
X68072857Y36452820D01*
X68263333Y36452820D01*
X68358571Y36500439D01*
X68406190Y36548058D01*
X68453809Y36643296D01*
X68453809Y36929010D01*
X68406190Y37024248D01*
X68358571Y37071867D01*
X68263333Y37119486D01*
X68072857Y37119486D01*
X67977619Y37071867D01*
X67691904Y37119486D02*
X67310952Y37119486D01*
X67549047Y37452820D02*
X67549047Y36595677D01*
X67501428Y36500439D01*
X67406190Y36452820D01*
X67310952Y36452820D01*
X66215714Y37119486D02*
X66215714Y36262343D01*
X66263333Y36167105D01*
X66358571Y36119486D01*
X66406190Y36119486D01*
X66215714Y37452820D02*
X66263333Y37405200D01*
X66215714Y37357581D01*
X66168095Y37405200D01*
X66215714Y37452820D01*
X66215714Y37357581D01*
X65310952Y37119486D02*
X65310952Y36452820D01*
X65739523Y37119486D02*
X65739523Y36595677D01*
X65691904Y36500439D01*
X65596666Y36452820D01*
X65453809Y36452820D01*
X65358571Y36500439D01*
X65310952Y36548058D01*
X64834761Y36452820D02*
X64834761Y37119486D01*
X64834761Y37024248D02*
X64787142Y37071867D01*
X64691904Y37119486D01*
X64549047Y37119486D01*
X64453809Y37071867D01*
X64406190Y36976629D01*
X64406190Y36452820D01*
X64406190Y36976629D02*
X64358571Y37071867D01*
X64263333Y37119486D01*
X64120476Y37119486D01*
X64025238Y37071867D01*
X63977619Y36976629D01*
X63977619Y36452820D01*
X63501428Y37119486D02*
X63501428Y36119486D01*
X63501428Y37071867D02*
X63406190Y37119486D01*
X63215714Y37119486D01*
X63120476Y37071867D01*
X63072857Y37024248D01*
X63025238Y36929010D01*
X63025238Y36643296D01*
X63072857Y36548058D01*
X63120476Y36500439D01*
X63215714Y36452820D01*
X63406190Y36452820D01*
X63501428Y36500439D01*
X62215714Y36500439D02*
X62310952Y36452820D01*
X62501428Y36452820D01*
X62596666Y36500439D01*
X62644285Y36595677D01*
X62644285Y36976629D01*
X62596666Y37071867D01*
X62501428Y37119486D01*
X62310952Y37119486D01*
X62215714Y37071867D01*
X62168095Y36976629D01*
X62168095Y36881391D01*
X62644285Y36786153D01*
X61739523Y36452820D02*
X61739523Y37119486D01*
X61739523Y36929010D02*
X61691904Y37024248D01*
X61644285Y37071867D01*
X61549047Y37119486D01*
X61453809Y37119486D01*
X61168095Y36500439D02*
X61072857Y36452820D01*
X60882380Y36452820D01*
X60787142Y36500439D01*
X60739523Y36595677D01*
X60739523Y36643296D01*
X60787142Y36738534D01*
X60882380Y36786153D01*
X61025238Y36786153D01*
X61120476Y36833772D01*
X61168095Y36929010D01*
X61168095Y36976629D01*
X61120476Y37071867D01*
X61025238Y37119486D01*
X60882380Y37119486D01*
X60787142Y37071867D01*
X86430000Y35326629D02*
X86763333Y35326629D01*
X86763333Y34802820D02*
X86763333Y35802820D01*
X86287142Y35802820D01*
X85763333Y34802820D02*
X85858571Y34850439D01*
X85906190Y34898058D01*
X85953809Y34993296D01*
X85953809Y35279010D01*
X85906190Y35374248D01*
X85858571Y35421867D01*
X85763333Y35469486D01*
X85620476Y35469486D01*
X85525238Y35421867D01*
X85477619Y35374248D01*
X85430000Y35279010D01*
X85430000Y34993296D01*
X85477619Y34898058D01*
X85525238Y34850439D01*
X85620476Y34802820D01*
X85763333Y34802820D01*
X85001428Y34802820D02*
X85001428Y35469486D01*
X85001428Y35279010D02*
X84953809Y35374248D01*
X84906190Y35421867D01*
X84810952Y35469486D01*
X84715714Y35469486D01*
X83096666Y34802820D02*
X83668095Y34802820D01*
X83382380Y34802820D02*
X83382380Y35802820D01*
X83477619Y35659962D01*
X83572857Y35564724D01*
X83668095Y35517105D01*
X82239523Y35802820D02*
X82430000Y35802820D01*
X82525238Y35755200D01*
X82572857Y35707581D01*
X82668095Y35564724D01*
X82715714Y35374248D01*
X82715714Y34993296D01*
X82668095Y34898058D01*
X82620476Y34850439D01*
X82525238Y34802820D01*
X82334761Y34802820D01*
X82239523Y34850439D01*
X82191904Y34898058D01*
X82144285Y34993296D01*
X82144285Y35231391D01*
X82191904Y35326629D01*
X82239523Y35374248D01*
X82334761Y35421867D01*
X82525238Y35421867D01*
X82620476Y35374248D01*
X82668095Y35326629D01*
X82715714Y35231391D01*
X81715714Y34802820D02*
X81715714Y35802820D01*
X81144285Y34802820D02*
X81572857Y35374248D01*
X81144285Y35802820D02*
X81715714Y35231391D01*
X79953809Y35469486D02*
X79953809Y34469486D01*
X79953809Y35421867D02*
X79858571Y35469486D01*
X79668095Y35469486D01*
X79572857Y35421867D01*
X79525238Y35374248D01*
X79477619Y35279010D01*
X79477619Y34993296D01*
X79525238Y34898058D01*
X79572857Y34850439D01*
X79668095Y34802820D01*
X79858571Y34802820D01*
X79953809Y34850439D01*
X78620476Y34802820D02*
X78620476Y35326629D01*
X78668095Y35421867D01*
X78763333Y35469486D01*
X78953809Y35469486D01*
X79049047Y35421867D01*
X78620476Y34850439D02*
X78715714Y34802820D01*
X78953809Y34802820D01*
X79049047Y34850439D01*
X79096666Y34945677D01*
X79096666Y35040915D01*
X79049047Y35136153D01*
X78953809Y35183772D01*
X78715714Y35183772D01*
X78620476Y35231391D01*
X77715714Y35469486D02*
X77715714Y34659962D01*
X77763333Y34564724D01*
X77810952Y34517105D01*
X77906190Y34469486D01*
X78049047Y34469486D01*
X78144285Y34517105D01*
X77715714Y34850439D02*
X77810952Y34802820D01*
X78001428Y34802820D01*
X78096666Y34850439D01*
X78144285Y34898058D01*
X78191904Y34993296D01*
X78191904Y35279010D01*
X78144285Y35374248D01*
X78096666Y35421867D01*
X78001428Y35469486D01*
X77810952Y35469486D01*
X77715714Y35421867D01*
X76858571Y34850439D02*
X76953809Y34802820D01*
X77144285Y34802820D01*
X77239523Y34850439D01*
X77287142Y34945677D01*
X77287142Y35326629D01*
X77239523Y35421867D01*
X77144285Y35469486D01*
X76953809Y35469486D01*
X76858571Y35421867D01*
X76810952Y35326629D01*
X76810952Y35231391D01*
X77287142Y35136153D01*
X75668095Y34850439D02*
X75572857Y34802820D01*
X75382380Y34802820D01*
X75287142Y34850439D01*
X75239523Y34945677D01*
X75239523Y34993296D01*
X75287142Y35088534D01*
X75382380Y35136153D01*
X75525238Y35136153D01*
X75620476Y35183772D01*
X75668095Y35279010D01*
X75668095Y35326629D01*
X75620476Y35421867D01*
X75525238Y35469486D01*
X75382380Y35469486D01*
X75287142Y35421867D01*
X74810952Y34802820D02*
X74810952Y35469486D01*
X74810952Y35802820D02*
X74858571Y35755200D01*
X74810952Y35707581D01*
X74763333Y35755200D01*
X74810952Y35802820D01*
X74810952Y35707581D01*
X74430000Y35469486D02*
X73906190Y35469486D01*
X74430000Y34802820D01*
X73906190Y34802820D01*
X73144285Y34850439D02*
X73239523Y34802820D01*
X73430000Y34802820D01*
X73525238Y34850439D01*
X73572857Y34945677D01*
X73572857Y35326629D01*
X73525238Y35421867D01*
X73430000Y35469486D01*
X73239523Y35469486D01*
X73144285Y35421867D01*
X73096666Y35326629D01*
X73096666Y35231391D01*
X73572857Y35136153D01*
X72620476Y34850439D02*
X72620476Y34802820D01*
X72668095Y34707581D01*
X72715714Y34659962D01*
X71430000Y34802820D02*
X71430000Y35469486D01*
X71430000Y35279010D02*
X71382380Y35374248D01*
X71334761Y35421867D01*
X71239523Y35469486D01*
X71144285Y35469486D01*
X70430000Y34850439D02*
X70525238Y34802820D01*
X70715714Y34802820D01*
X70810952Y34850439D01*
X70858571Y34945677D01*
X70858571Y35326629D01*
X70810952Y35421867D01*
X70715714Y35469486D01*
X70525238Y35469486D01*
X70430000Y35421867D01*
X70382380Y35326629D01*
X70382380Y35231391D01*
X70858571Y35136153D01*
X69953809Y34802820D02*
X69953809Y35469486D01*
X69953809Y35374248D02*
X69906190Y35421867D01*
X69810952Y35469486D01*
X69668095Y35469486D01*
X69572857Y35421867D01*
X69525238Y35326629D01*
X69525238Y34802820D01*
X69525238Y35326629D02*
X69477619Y35421867D01*
X69382380Y35469486D01*
X69239523Y35469486D01*
X69144285Y35421867D01*
X69096666Y35326629D01*
X69096666Y34802820D01*
X68477619Y34802820D02*
X68572857Y34850439D01*
X68620476Y34898058D01*
X68668095Y34993296D01*
X68668095Y35279010D01*
X68620476Y35374248D01*
X68572857Y35421867D01*
X68477619Y35469486D01*
X68334761Y35469486D01*
X68239523Y35421867D01*
X68191904Y35374248D01*
X68144285Y35279010D01*
X68144285Y34993296D01*
X68191904Y34898058D01*
X68239523Y34850439D01*
X68334761Y34802820D01*
X68477619Y34802820D01*
X67810952Y35469486D02*
X67572857Y34802820D01*
X67334761Y35469486D01*
X66572857Y34850439D02*
X66668095Y34802820D01*
X66858571Y34802820D01*
X66953809Y34850439D01*
X67001428Y34945677D01*
X67001428Y35326629D01*
X66953809Y35421867D01*
X66858571Y35469486D01*
X66668095Y35469486D01*
X66572857Y35421867D01*
X66525238Y35326629D01*
X66525238Y35231391D01*
X67001428Y35136153D01*
X65049047Y35802820D02*
X65049047Y35088534D01*
X65096666Y34945677D01*
X65191904Y34850439D01*
X65334761Y34802820D01*
X65430000Y34802820D01*
X64572857Y34802820D02*
X64572857Y35802820D01*
X64191904Y35802820D01*
X64096666Y35755200D01*
X64049047Y35707581D01*
X64001428Y35612343D01*
X64001428Y35469486D01*
X64049047Y35374248D01*
X64096666Y35326629D01*
X64191904Y35279010D01*
X64572857Y35279010D01*
X63096666Y35802820D02*
X63572857Y35802820D01*
X63620476Y35326629D01*
X63572857Y35374248D01*
X63477619Y35421867D01*
X63239523Y35421867D01*
X63144285Y35374248D01*
X63096666Y35326629D01*
X63049047Y35231391D01*
X63049047Y34993296D01*
X63096666Y34898058D01*
X63144285Y34850439D01*
X63239523Y34802820D01*
X63477619Y34802820D01*
X63572857Y34850439D01*
X63620476Y34898058D01*
X89168095Y33676629D02*
X89501428Y33676629D01*
X89501428Y33152820D02*
X89501428Y34152820D01*
X89025238Y34152820D01*
X88501428Y33152820D02*
X88596666Y33200439D01*
X88644285Y33248058D01*
X88691904Y33343296D01*
X88691904Y33629010D01*
X88644285Y33724248D01*
X88596666Y33771867D01*
X88501428Y33819486D01*
X88358571Y33819486D01*
X88263333Y33771867D01*
X88215714Y33724248D01*
X88168095Y33629010D01*
X88168095Y33343296D01*
X88215714Y33248058D01*
X88263333Y33200439D01*
X88358571Y33152820D01*
X88501428Y33152820D01*
X87739523Y33152820D02*
X87739523Y33819486D01*
X87739523Y33629010D02*
X87691904Y33724248D01*
X87644285Y33771867D01*
X87549047Y33819486D01*
X87453809Y33819486D01*
X86453809Y34152820D02*
X85834761Y34152820D01*
X86168095Y33771867D01*
X86025238Y33771867D01*
X85930000Y33724248D01*
X85882380Y33676629D01*
X85834761Y33581391D01*
X85834761Y33343296D01*
X85882380Y33248058D01*
X85930000Y33200439D01*
X86025238Y33152820D01*
X86310952Y33152820D01*
X86406190Y33200439D01*
X86453809Y33248058D01*
X85453809Y34057581D02*
X85406190Y34105200D01*
X85310952Y34152820D01*
X85072857Y34152820D01*
X84977619Y34105200D01*
X84930000Y34057581D01*
X84882380Y33962343D01*
X84882380Y33867105D01*
X84930000Y33724248D01*
X85501428Y33152820D01*
X84882380Y33152820D01*
X84453809Y33152820D02*
X84453809Y34152820D01*
X83882380Y33152820D02*
X84310952Y33724248D01*
X83882380Y34152820D02*
X84453809Y33581391D01*
X82691904Y33819486D02*
X82691904Y32819486D01*
X82691904Y33771867D02*
X82596666Y33819486D01*
X82406190Y33819486D01*
X82310952Y33771867D01*
X82263333Y33724248D01*
X82215714Y33629010D01*
X82215714Y33343296D01*
X82263333Y33248058D01*
X82310952Y33200439D01*
X82406190Y33152820D01*
X82596666Y33152820D01*
X82691904Y33200439D01*
X81358571Y33152820D02*
X81358571Y33676629D01*
X81406190Y33771867D01*
X81501428Y33819486D01*
X81691904Y33819486D01*
X81787142Y33771867D01*
X81358571Y33200439D02*
X81453809Y33152820D01*
X81691904Y33152820D01*
X81787142Y33200439D01*
X81834761Y33295677D01*
X81834761Y33390915D01*
X81787142Y33486153D01*
X81691904Y33533772D01*
X81453809Y33533772D01*
X81358571Y33581391D01*
X80453809Y33819486D02*
X80453809Y33009962D01*
X80501428Y32914724D01*
X80549047Y32867105D01*
X80644285Y32819486D01*
X80787142Y32819486D01*
X80882380Y32867105D01*
X80453809Y33200439D02*
X80549047Y33152820D01*
X80739523Y33152820D01*
X80834761Y33200439D01*
X80882380Y33248058D01*
X80930000Y33343296D01*
X80930000Y33629010D01*
X80882380Y33724248D01*
X80834761Y33771867D01*
X80739523Y33819486D01*
X80549047Y33819486D01*
X80453809Y33771867D01*
X79596666Y33200439D02*
X79691904Y33152820D01*
X79882380Y33152820D01*
X79977619Y33200439D01*
X80025238Y33295677D01*
X80025238Y33676629D01*
X79977619Y33771867D01*
X79882380Y33819486D01*
X79691904Y33819486D01*
X79596666Y33771867D01*
X79549047Y33676629D01*
X79549047Y33581391D01*
X80025238Y33486153D01*
X78406190Y33200439D02*
X78310952Y33152820D01*
X78120476Y33152820D01*
X78025238Y33200439D01*
X77977619Y33295677D01*
X77977619Y33343296D01*
X78025238Y33438534D01*
X78120476Y33486153D01*
X78263333Y33486153D01*
X78358571Y33533772D01*
X78406190Y33629010D01*
X78406190Y33676629D01*
X78358571Y33771867D01*
X78263333Y33819486D01*
X78120476Y33819486D01*
X78025238Y33771867D01*
X77549047Y33152820D02*
X77549047Y33819486D01*
X77549047Y34152820D02*
X77596666Y34105200D01*
X77549047Y34057581D01*
X77501428Y34105200D01*
X77549047Y34152820D01*
X77549047Y34057581D01*
X77168095Y33819486D02*
X76644285Y33819486D01*
X77168095Y33152820D01*
X76644285Y33152820D01*
X75882380Y33200439D02*
X75977619Y33152820D01*
X76168095Y33152820D01*
X76263333Y33200439D01*
X76310952Y33295677D01*
X76310952Y33676629D01*
X76263333Y33771867D01*
X76168095Y33819486D01*
X75977619Y33819486D01*
X75882380Y33771867D01*
X75834761Y33676629D01*
X75834761Y33581391D01*
X76310952Y33486153D01*
X75358571Y33200439D02*
X75358571Y33152820D01*
X75406190Y33057581D01*
X75453809Y33009962D01*
X74168095Y33152820D02*
X74168095Y33819486D01*
X74168095Y33629010D02*
X74120476Y33724248D01*
X74072857Y33771867D01*
X73977619Y33819486D01*
X73882380Y33819486D01*
X73168095Y33200439D02*
X73263333Y33152820D01*
X73453809Y33152820D01*
X73549047Y33200439D01*
X73596666Y33295677D01*
X73596666Y33676629D01*
X73549047Y33771867D01*
X73453809Y33819486D01*
X73263333Y33819486D01*
X73168095Y33771867D01*
X73120476Y33676629D01*
X73120476Y33581391D01*
X73596666Y33486153D01*
X72691904Y33152820D02*
X72691904Y33819486D01*
X72691904Y33724248D02*
X72644285Y33771867D01*
X72549047Y33819486D01*
X72406190Y33819486D01*
X72310952Y33771867D01*
X72263333Y33676629D01*
X72263333Y33152820D01*
X72263333Y33676629D02*
X72215714Y33771867D01*
X72120476Y33819486D01*
X71977619Y33819486D01*
X71882380Y33771867D01*
X71834761Y33676629D01*
X71834761Y33152820D01*
X71215714Y33152820D02*
X71310952Y33200439D01*
X71358571Y33248058D01*
X71406190Y33343296D01*
X71406190Y33629010D01*
X71358571Y33724248D01*
X71310952Y33771867D01*
X71215714Y33819486D01*
X71072857Y33819486D01*
X70977619Y33771867D01*
X70930000Y33724248D01*
X70882380Y33629010D01*
X70882380Y33343296D01*
X70930000Y33248058D01*
X70977619Y33200439D01*
X71072857Y33152820D01*
X71215714Y33152820D01*
X70549047Y33819486D02*
X70310952Y33152820D01*
X70072857Y33819486D01*
X69310952Y33200439D02*
X69406190Y33152820D01*
X69596666Y33152820D01*
X69691904Y33200439D01*
X69739523Y33295677D01*
X69739523Y33676629D01*
X69691904Y33771867D01*
X69596666Y33819486D01*
X69406190Y33819486D01*
X69310952Y33771867D01*
X69263333Y33676629D01*
X69263333Y33581391D01*
X69739523Y33486153D01*
X67787142Y34152820D02*
X67787142Y33438534D01*
X67834761Y33295677D01*
X67930000Y33200439D01*
X68072857Y33152820D01*
X68168095Y33152820D01*
X67310952Y33152820D02*
X67310952Y34152820D01*
X66930000Y34152820D01*
X66834761Y34105200D01*
X66787142Y34057581D01*
X66739523Y33962343D01*
X66739523Y33819486D01*
X66787142Y33724248D01*
X66834761Y33676629D01*
X66930000Y33629010D01*
X67310952Y33629010D01*
X65882380Y33819486D02*
X65882380Y33152820D01*
X66120476Y34200439D02*
X66358571Y33486153D01*
X65739523Y33486153D01*
X63787142Y33152820D02*
X63834761Y33152820D01*
X63930000Y33200439D01*
X64072857Y33343296D01*
X64310952Y33629010D01*
X64406190Y33771867D01*
X64453809Y33914724D01*
X64453809Y34009962D01*
X64406190Y34105200D01*
X64310952Y34152820D01*
X64263333Y34152820D01*
X64168095Y34105200D01*
X64120476Y34009962D01*
X64120476Y33962343D01*
X64168095Y33867105D01*
X64215714Y33819486D01*
X64501428Y33629010D01*
X64549047Y33581391D01*
X64596666Y33486153D01*
X64596666Y33343296D01*
X64549047Y33248058D01*
X64501428Y33200439D01*
X64406190Y33152820D01*
X64263333Y33152820D01*
X64168095Y33200439D01*
X64120476Y33248058D01*
X63977619Y33438534D01*
X63930000Y33581391D01*
X63930000Y33676629D01*
X62310952Y34152820D02*
X62310952Y33438534D01*
X62358571Y33295677D01*
X62453809Y33200439D01*
X62596666Y33152820D01*
X62691904Y33152820D01*
X61834761Y33152820D02*
X61834761Y34152820D01*
X61453809Y34152820D01*
X61358571Y34105200D01*
X61310952Y34057581D01*
X61263333Y33962343D01*
X61263333Y33819486D01*
X61310952Y33724248D01*
X61358571Y33676629D01*
X61453809Y33629010D01*
X61834761Y33629010D01*
X60358571Y34152820D02*
X60834761Y34152820D01*
X60882380Y33676629D01*
X60834761Y33724248D01*
X60739523Y33771867D01*
X60501428Y33771867D01*
X60406190Y33724248D01*
X60358571Y33676629D01*
X60310952Y33581391D01*
X60310952Y33343296D01*
X60358571Y33248058D01*
X60406190Y33200439D01*
X60501428Y33152820D01*
X60739523Y33152820D01*
X60834761Y33200439D01*
X60882380Y33248058D01*
M02*
